%TF.GenerationSoftware,KiCad,Pcbnew,9.0.0*%
%TF.CreationDate,2025-03-08T23:10:00+01:00*%
%TF.ProjectId,MKRWAN_NSK,4d4b5257-414e-45f4-9e53-4b2e6b696361,v4*%
%TF.SameCoordinates,Original*%
%TF.FileFunction,Copper,L2,Bot*%
%TF.FilePolarity,Positive*%
%FSLAX46Y46*%
G04 Gerber Fmt 4.6, Leading zero omitted, Abs format (unit mm)*
G04 Created by KiCad (PCBNEW 9.0.0) date 2025-03-08 23:10:00*
%MOMM*%
%LPD*%
G01*
G04 APERTURE LIST*
G04 Aperture macros list*
%AMRoundRect*
0 Rectangle with rounded corners*
0 $1 Rounding radius*
0 $2 $3 $4 $5 $6 $7 $8 $9 X,Y pos of 4 corners*
0 Add a 4 corners polygon primitive as box body*
4,1,4,$2,$3,$4,$5,$6,$7,$8,$9,$2,$3,0*
0 Add four circle primitives for the rounded corners*
1,1,$1+$1,$2,$3*
1,1,$1+$1,$4,$5*
1,1,$1+$1,$6,$7*
1,1,$1+$1,$8,$9*
0 Add four rect primitives between the rounded corners*
20,1,$1+$1,$2,$3,$4,$5,0*
20,1,$1+$1,$4,$5,$6,$7,0*
20,1,$1+$1,$6,$7,$8,$9,0*
20,1,$1+$1,$8,$9,$2,$3,0*%
G04 Aperture macros list end*
%TA.AperFunction,ComponentPad*%
%ADD10C,1.508000*%
%TD*%
%TA.AperFunction,ComponentPad*%
%ADD11O,1.200000X1.750000*%
%TD*%
%TA.AperFunction,ComponentPad*%
%ADD12RoundRect,0.250000X-0.350000X-0.625000X0.350000X-0.625000X0.350000X0.625000X-0.350000X0.625000X0*%
%TD*%
%TA.AperFunction,ComponentPad*%
%ADD13R,1.350000X1.350000*%
%TD*%
%TA.AperFunction,ComponentPad*%
%ADD14O,1.350000X1.350000*%
%TD*%
%TA.AperFunction,ComponentPad*%
%ADD15R,1.700000X1.700000*%
%TD*%
%TA.AperFunction,ComponentPad*%
%ADD16O,1.700000X1.700000*%
%TD*%
%TA.AperFunction,ComponentPad*%
%ADD17RoundRect,0.250000X-0.600000X-0.725000X0.600000X-0.725000X0.600000X0.725000X-0.600000X0.725000X0*%
%TD*%
%TA.AperFunction,ComponentPad*%
%ADD18O,1.700000X1.950000*%
%TD*%
%TA.AperFunction,ComponentPad*%
%ADD19RoundRect,0.250000X0.650000X1.550000X-0.650000X1.550000X-0.650000X-1.550000X0.650000X-1.550000X0*%
%TD*%
%TA.AperFunction,ComponentPad*%
%ADD20O,1.800000X3.600000*%
%TD*%
%TA.AperFunction,ComponentPad*%
%ADD21O,1.950000X1.700000*%
%TD*%
%TA.AperFunction,ComponentPad*%
%ADD22RoundRect,0.250000X0.725000X-0.600000X0.725000X0.600000X-0.725000X0.600000X-0.725000X-0.600000X0*%
%TD*%
%TA.AperFunction,ComponentPad*%
%ADD23C,1.600000*%
%TD*%
%TA.AperFunction,ComponentPad*%
%ADD24O,1.600000X1.600000*%
%TD*%
%TA.AperFunction,ComponentPad*%
%ADD25RoundRect,0.250000X0.350000X0.625000X-0.350000X0.625000X-0.350000X-0.625000X0.350000X-0.625000X0*%
%TD*%
%TA.AperFunction,Conductor*%
%ADD26C,0.500000*%
%TD*%
%TA.AperFunction,Conductor*%
%ADD27C,0.700000*%
%TD*%
%TA.AperFunction,Conductor*%
%ADD28C,0.900000*%
%TD*%
%TA.AperFunction,Conductor*%
%ADD29C,0.800000*%
%TD*%
%TA.AperFunction,Conductor*%
%ADD30C,0.650000*%
%TD*%
%TA.AperFunction,Conductor*%
%ADD31C,1.800000*%
%TD*%
%TA.AperFunction,Conductor*%
%ADD32C,0.550000*%
%TD*%
G04 APERTURE END LIST*
D10*
%TO.P,U1,J5_14,+5V*%
%TO.N,unconnected-(U1-+5V-PadJ5_14)*%
X229935000Y-90000000D03*
%TO.P,U1,J5_13,VIN*%
%TO.N,unconnected-(U1-VIN-PadJ5_13)*%
X229935000Y-92540000D03*
%TO.P,U1,J5_12,+3V3*%
%TO.N,/3v3*%
X229935000Y-95080000D03*
%TO.P,U1,J5_11,GND*%
%TO.N,/GND*%
X229935000Y-97620000D03*
%TO.P,U1,J5_10,RESET*%
%TO.N,unconnected-(U1-RESET-PadJ5_10)*%
X229935000Y-100160000D03*
%TO.P,U1,J5_9,PB22/D14/TX(SC5)*%
%TO.N,/TX_D14*%
X229935000Y-102700000D03*
%TO.P,U1,J5_8,PB23/D13/RX(SC5)*%
%TO.N,/RX_D13*%
X229935000Y-105240000D03*
%TO.P,U1,J5_7,PA09/D12(PWM)/SCL(SC2)*%
%TO.N,/SCL*%
X229935000Y-107780000D03*
%TO.P,U1,J5_6,PA08/D11/SDA(SC2)*%
%TO.N,/SDA*%
X229935000Y-110320000D03*
%TO.P,U1,J5_5,PA19/D10(PWM)/CIPO(SC1)*%
%TO.N,unconnected-(U1-PA19{slash}D10(PWM){slash}CIPO(SC1)-PadJ5_5)*%
X229935000Y-112860000D03*
%TO.P,U1,J5_4,PA17/D9/SCK(SC1)*%
%TO.N,/D9_SCK*%
X229935000Y-115400000D03*
%TO.P,U1,J5_3,PA16/D8(PWM)/COPI(SC1)*%
%TO.N,/D8_MOSI*%
X229935000Y-117940000D03*
%TO.P,U1,J5_2,PA21/D7(PWM)*%
%TO.N,/D7*%
X229935000Y-120480000D03*
%TO.P,U1,J5_1,PA20/D6(PWM)*%
%TO.N,/D6*%
X229935000Y-123020000D03*
%TO.P,U1,J3_14,PB11/D5(PWM)*%
%TO.N,/D5*%
X209615000Y-123020000D03*
%TO.P,U1,J3_13,PB10/D4(PWM)*%
%TO.N,/D4*%
X209615000Y-120480000D03*
%TO.P,U1,J3_12,PA11/D3(PWM)*%
%TO.N,/D3*%
X209615000Y-117940000D03*
%TO.P,U1,J3_11,PA10/D2(PWM)*%
%TO.N,/D2*%
X209615000Y-115400000D03*
%TO.P,U1,J3_10,PA23/D1(PWM)*%
%TO.N,unconnected-(U1-PA23{slash}D1(PWM)-PadJ3_10)*%
X209615000Y-112860000D03*
%TO.P,U1,J3_9,PA22/D0(PWM)*%
%TO.N,unconnected-(U1-PA22{slash}D0(PWM)-PadJ3_9)*%
X209615000Y-110320000D03*
%TO.P,U1,J3_8,PA07/D21/AIN(7)/A6*%
%TO.N,unconnected-(U1-PA07{slash}D21{slash}AIN(7){slash}A6-PadJ3_8)*%
X209615000Y-107780000D03*
%TO.P,U1,J3_7,PA06/D20/AIN(6)/A5*%
%TO.N,unconnected-(U1-PA06{slash}D20{slash}AIN(6){slash}A5-PadJ3_7)*%
X209615000Y-105240000D03*
%TO.P,U1,J3_6,PA05/D19(PWM)/AIN(5)/A4*%
%TO.N,unconnected-(U1-PA05{slash}D19(PWM){slash}AIN(5){slash}A4-PadJ3_6)*%
X209615000Y-102700000D03*
%TO.P,U1,J3_5,PA04/D18(PWM)/AIN(4)/A3*%
%TO.N,/A3*%
X209615000Y-100160000D03*
%TO.P,U1,J3_4,PB03/D17/AIN(11)/A2*%
%TO.N,unconnected-(U1-PB03{slash}D17{slash}AIN(11){slash}A2-PadJ3_4)*%
X209615000Y-97620000D03*
%TO.P,U1,J3_3,PB02/D16/AIN(10)/A1*%
%TO.N,unconnected-(U1-PB02{slash}D16{slash}AIN(10){slash}A1-PadJ3_3)*%
X209615000Y-95080000D03*
%TO.P,U1,J3_2,PA02/D15/DAC0/AIN(0)/A0*%
%TO.N,unconnected-(U1-PA02{slash}D15{slash}DAC0{slash}AIN(0){slash}A0-PadJ3_2)*%
X209615000Y-92540000D03*
%TO.P,U1,J3_1,PA03/AREF/AIN(1)*%
%TO.N,unconnected-(U1-PA03{slash}AREF{slash}AIN(1)-PadJ3_1)*%
X209615000Y-90000000D03*
%TD*%
D11*
%TO.P,NPK1,4,4*%
%TO.N,/B_5v*%
X200500000Y-69550000D03*
%TO.P,NPK1,3,3*%
%TO.N,/A_5v*%
X198500000Y-69550000D03*
%TO.P,NPK1,2,2*%
%TO.N,/5v*%
X196500000Y-69550000D03*
D12*
%TO.P,NPK1,1,1*%
%TO.N,/GND*%
X194500000Y-69550000D03*
%TD*%
D13*
%TO.P,On1,1,Pin_1*%
%TO.N,/D2*%
X199500000Y-134000000D03*
D14*
%TO.P,On1,2,Pin_2*%
%TO.N,/GND*%
X197500000Y-134000000D03*
%TD*%
D15*
%TO.P,Level_Shifter_OUT1,1,Pin_1*%
%TO.N,/A_5v*%
X183650000Y-84500000D03*
D16*
%TO.P,Level_Shifter_OUT1,2,Pin_2*%
%TO.N,/B_5v*%
X186190000Y-84500000D03*
%TO.P,Level_Shifter_OUT1,3,Pin_3*%
%TO.N,/5v*%
X188730000Y-84500000D03*
%TO.P,Level_Shifter_OUT1,4,Pin_4*%
%TO.N,/GND*%
X191270000Y-84500000D03*
%TO.P,Level_Shifter_OUT1,5,Pin_5*%
%TO.N,unconnected-(Level_Shifter_OUT1-Pin_5-Pad5)*%
X193810000Y-84500000D03*
%TO.P,Level_Shifter_OUT1,6,Pin_6*%
%TO.N,unconnected-(Level_Shifter_OUT1-Pin_6-Pad6)*%
X196350000Y-84500000D03*
%TD*%
D17*
%TO.P,TTL_in1,1,Pin_1*%
%TO.N,/3v3*%
X182750000Y-142200000D03*
D18*
%TO.P,TTL_in1,2,Pin_2*%
%TO.N,/TX_D14*%
X185250000Y-142200000D03*
%TO.P,TTL_in1,3,Pin_3*%
%TO.N,/RX_D13*%
X187750000Y-142200000D03*
%TO.P,TTL_in1,4,Pin_4*%
%TO.N,/GND*%
X190250000Y-142200000D03*
%TD*%
D19*
%TO.P,TLL_out1,1,Pin_1*%
%TO.N,/GND*%
X192025000Y-101567500D03*
D20*
%TO.P,TLL_out1,2,Pin_2*%
%TO.N,/B_3v3*%
X186945000Y-101567500D03*
%TO.P,TLL_out1,3,Pin_3*%
%TO.N,/A_3v3*%
X181865000Y-101567500D03*
%TD*%
D17*
%TO.P,Level_Shifter_IN1,1,Pin_1*%
%TO.N,/A_3v3*%
X184000000Y-94500000D03*
D18*
%TO.P,Level_Shifter_IN1,2,Pin_2*%
%TO.N,/B_3v3*%
X186500000Y-94500000D03*
%TO.P,Level_Shifter_IN1,3,Pin_3*%
%TO.N,/3v3*%
X189000000Y-94500000D03*
%TO.P,Level_Shifter_IN1,4,Pin_4*%
%TO.N,/GND*%
X191500000Y-94500000D03*
%TO.P,Level_Shifter_IN1,5,Pin_5*%
%TO.N,unconnected-(Level_Shifter_IN1-Pin_5-Pad5)*%
X194000000Y-94500000D03*
%TO.P,Level_Shifter_IN1,6,Pin_6*%
%TO.N,unconnected-(Level_Shifter_IN1-Pin_6-Pad6)*%
X196500000Y-94500000D03*
%TD*%
D21*
%TO.P,3v3_to_5v1,4,Pin_4*%
%TO.N,/5v*%
X226000000Y-75000000D03*
%TO.P,3v3_to_5v1,3,Pin_3*%
%TO.N,/GND*%
X226000000Y-77500000D03*
%TO.P,3v3_to_5v1,2,Pin_2*%
%TO.N,/3v3*%
X226000000Y-80000000D03*
D22*
%TO.P,3v3_to_5v1,1,Pin_1*%
%TO.N,unconnected-(3v3_to_5v1-Pin_1-Pad1)*%
X226000000Y-82500000D03*
%TD*%
D11*
%TO.P,E_ink_1_D4_to_D5,4,4*%
%TO.N,/D5*%
X223000000Y-142000000D03*
%TO.P,E_ink_1_D4_to_D5,3,3*%
%TO.N,/D4*%
X221000000Y-142000000D03*
%TO.P,E_ink_1_D4_to_D5,2,2*%
%TO.N,/3v3*%
X219000000Y-142000000D03*
D12*
%TO.P,E_ink_1_D4_to_D5,1,1*%
%TO.N,/GND*%
X217000000Y-142000000D03*
%TD*%
%TO.P,E_ink_2_D6_to_D9,1,1*%
%TO.N,/D6*%
X230500000Y-142000000D03*
D11*
%TO.P,E_ink_2_D6_to_D9,2,2*%
%TO.N,/D7*%
X232500000Y-142000000D03*
%TO.P,E_ink_2_D6_to_D9,3,3*%
%TO.N,/D8_MOSI*%
X234500000Y-142000000D03*
%TO.P,E_ink_2_D6_to_D9,4,4*%
%TO.N,/D9_SCK*%
X236500000Y-142000000D03*
%TD*%
D14*
%TO.P,Battery_manager1,2,Pin_2*%
%TO.N,Net-(Battery_manager1-Pin_2)*%
X218000000Y-152000000D03*
D13*
%TO.P,Battery_manager1,1,Pin_1*%
%TO.N,/GND_bis*%
X216000000Y-152000000D03*
%TD*%
D15*
%TO.P,J1,1,Pin_1*%
%TO.N,Net-(Battery_manager1-Pin_2)*%
X207075000Y-142125000D03*
D16*
%TO.P,J1,2,Pin_2*%
%TO.N,/GND_bis*%
X204535000Y-142125000D03*
%TO.P,J1,3,Pin_3*%
%TO.N,Net-(J1-Pin_3)*%
X201995000Y-142125000D03*
%TO.P,J1,4,Pin_4*%
%TO.N,/3v3_bis*%
X199455000Y-142125000D03*
%TO.P,J1,5,Pin_5*%
%TO.N,/D3*%
X196915000Y-142125000D03*
%TD*%
D23*
%TO.P,R3_Delay1,1*%
%TO.N,Net-(J1-Pin_3)*%
X224880000Y-152000000D03*
D24*
%TO.P,R3_Delay1,2*%
%TO.N,/GND*%
X232500000Y-152000000D03*
%TD*%
D13*
%TO.P,Energy_IN1,1,Pin_1*%
%TO.N,/3v3_bis*%
X181500000Y-77500000D03*
D14*
%TO.P,Energy_IN1,2,Pin_2*%
%TO.N,/GND_bis*%
X181500000Y-79500000D03*
%TD*%
D11*
%TO.P,J3,4,4*%
%TO.N,/SCL*%
X243500000Y-143000000D03*
%TO.P,J3,3,3*%
%TO.N,/SDA*%
X245500000Y-143000000D03*
%TO.P,J3,2,2*%
%TO.N,/3v3*%
X247500000Y-143000000D03*
D25*
%TO.P,J3,1,1*%
%TO.N,/GND*%
X249500000Y-143000000D03*
%TD*%
D11*
%TO.P,J2,4,4*%
%TO.N,/SCL*%
X241500000Y-84500000D03*
%TO.P,J2,3,3*%
%TO.N,/SDA*%
X243500000Y-84500000D03*
%TO.P,J2,2,2*%
%TO.N,/3v3*%
X245500000Y-84500000D03*
D25*
%TO.P,J2,1,1*%
%TO.N,/GND*%
X247500000Y-84500000D03*
%TD*%
D11*
%TO.P,J4,4,4*%
%TO.N,/SCL*%
X243500000Y-154500000D03*
%TO.P,J4,3,3*%
%TO.N,/SDA*%
X245500000Y-154500000D03*
%TO.P,J4,2,2*%
%TO.N,/3v3*%
X247500000Y-154500000D03*
D25*
%TO.P,J4,1,1*%
%TO.N,/GND*%
X249500000Y-154500000D03*
%TD*%
D11*
%TO.P,J8,4,4*%
%TO.N,/SCL*%
X241500000Y-108500000D03*
%TO.P,J8,3,3*%
%TO.N,/SDA*%
X243500000Y-108500000D03*
%TO.P,J8,2,2*%
%TO.N,/3v3*%
X245500000Y-108500000D03*
D25*
%TO.P,J8,1,1*%
%TO.N,/GND*%
X247500000Y-108500000D03*
%TD*%
D11*
%TO.P,J6,4,4*%
%TO.N,/SCL*%
X241500000Y-72450000D03*
%TO.P,J6,3,3*%
%TO.N,/SDA*%
X243500000Y-72450000D03*
%TO.P,J6,2,2*%
%TO.N,/3v3*%
X245500000Y-72450000D03*
D25*
%TO.P,J6,1,1*%
%TO.N,/GND*%
X247500000Y-72450000D03*
%TD*%
D11*
%TO.P,J7,4,4*%
%TO.N,/SCL*%
X241500000Y-120000000D03*
%TO.P,J7,3,3*%
%TO.N,/SDA*%
X243500000Y-120000000D03*
%TO.P,J7,2,2*%
%TO.N,/3v3*%
X245500000Y-120000000D03*
D25*
%TO.P,J7,1,1*%
%TO.N,/GND*%
X247500000Y-120000000D03*
%TD*%
D11*
%TO.P,J10,4,4*%
%TO.N,/SCL*%
X241500000Y-131500000D03*
%TO.P,J10,3,3*%
%TO.N,/SDA*%
X243500000Y-131500000D03*
%TO.P,J10,2,2*%
%TO.N,/3v3*%
X245500000Y-131500000D03*
D25*
%TO.P,J10,1,1*%
%TO.N,/GND*%
X247500000Y-131500000D03*
%TD*%
D11*
%TO.P,J9,4,4*%
%TO.N,/SCL*%
X241500000Y-96500000D03*
%TO.P,J9,3,3*%
%TO.N,/SDA*%
X243500000Y-96500000D03*
%TO.P,J9,2,2*%
%TO.N,/3v3*%
X245500000Y-96500000D03*
D25*
%TO.P,J9,1,1*%
%TO.N,/GND*%
X247500000Y-96500000D03*
%TD*%
D13*
%TO.P,J13,1,Pin_1*%
%TO.N,Net-(J13-Pin_1)*%
X199500000Y-129000000D03*
D14*
%TO.P,J13,2,Pin_2*%
%TO.N,/GND*%
X197500000Y-129000000D03*
%TD*%
D23*
%TO.P,R1,1*%
%TO.N,/A3*%
X197500000Y-116690000D03*
D24*
%TO.P,R1,2*%
%TO.N,/GND*%
X197500000Y-124310000D03*
%TD*%
D23*
%TO.P,R2,1*%
%TO.N,Net-(J13-Pin_1)*%
X201000000Y-124310000D03*
D24*
%TO.P,R2,2*%
%TO.N,/A3*%
X201000000Y-116690000D03*
%TD*%
D26*
%TO.N,/GND*%
X220000000Y-108500000D02*
X220000000Y-107500000D01*
X219000000Y-107500000D02*
X220000000Y-108500000D01*
X219000000Y-108500000D02*
X219000000Y-107500000D01*
X218000000Y-107500000D02*
X218000000Y-108500000D01*
X216000000Y-108500000D02*
X217000000Y-108500000D01*
X216000000Y-107500000D02*
X216000000Y-108500000D01*
X215000000Y-108500000D02*
X215000000Y-107500000D01*
X214000000Y-108500000D02*
X215000000Y-108500000D01*
X214000000Y-107500000D02*
X214000000Y-108500000D01*
X212000000Y-107500000D02*
X212500000Y-108000000D01*
X212000000Y-106500000D02*
X212000000Y-107500000D01*
X212500000Y-108000000D02*
X212750000Y-107750000D01*
X212750000Y-107750000D02*
X213000000Y-107500000D01*
X213000000Y-106500000D02*
X213000000Y-107500000D01*
X212000000Y-108500000D02*
X212500000Y-108000000D01*
X228130000Y-117000000D02*
X228130000Y-118000000D01*
X228130000Y-118000000D02*
X227630000Y-118500000D01*
X227130000Y-118000000D02*
X227630000Y-118500000D01*
X227130000Y-117000000D02*
X227130000Y-118000000D01*
X226130000Y-118000000D02*
X225230000Y-118000000D01*
X225630000Y-117000000D02*
X226130000Y-117500000D01*
X225130000Y-117500000D02*
X225630000Y-117000000D01*
X226130000Y-117500000D02*
X226130000Y-118500000D01*
X225130000Y-118500000D02*
X225130000Y-117500000D01*
X223130000Y-118500000D02*
X224130000Y-118500000D01*
X223130000Y-117000000D02*
X223130000Y-118500000D01*
X221130000Y-117500000D02*
X221130000Y-117000000D01*
X221630000Y-117500000D02*
X221130000Y-117500000D01*
X222130000Y-118000000D02*
X221630000Y-117500000D01*
X221130000Y-117000000D02*
X221630000Y-116500000D01*
X221630000Y-118500000D02*
X222130000Y-118000000D01*
X221130000Y-118500000D02*
X221630000Y-118500000D01*
X220130000Y-117500000D02*
X220130000Y-118500000D01*
X219130000Y-117500000D02*
X219130000Y-118000000D01*
X218630000Y-117000000D02*
X219130000Y-117500000D01*
X218130000Y-117000000D02*
X218630000Y-117000000D01*
X218630000Y-118500000D02*
X219130000Y-118000000D01*
X218130000Y-118500000D02*
X218630000Y-118500000D01*
X218130000Y-117000000D02*
X218130000Y-118500000D01*
X217130000Y-118000000D02*
X216230000Y-118000000D01*
X216130000Y-117500000D02*
X216130000Y-118500000D01*
X216630000Y-117000000D02*
X216130000Y-117500000D01*
X217130000Y-117500000D02*
X216630000Y-117000000D01*
X217130000Y-118500000D02*
X217130000Y-117500000D01*
X214130000Y-118500000D02*
X215130000Y-118500000D01*
X214130000Y-117000000D02*
X214130000Y-118500000D01*
X213130000Y-118000000D02*
X213130000Y-117000000D01*
X212630000Y-118500000D02*
X213130000Y-118000000D01*
X212130000Y-117000000D02*
X212130000Y-118000000D01*
X212130000Y-118000000D02*
X212630000Y-118500000D01*
X222130000Y-111500000D02*
X223130000Y-111500000D01*
X222130000Y-110000000D02*
X222130000Y-111500000D01*
X220630000Y-111500000D02*
X221130000Y-111500000D01*
X220130000Y-111000000D02*
X220630000Y-111500000D01*
X220130000Y-110500000D02*
X220130000Y-111000000D01*
X221130000Y-110500000D02*
X220130000Y-110500000D01*
X220130000Y-110000000D02*
X220130000Y-110500000D01*
X220630000Y-109500000D02*
X221130000Y-109500000D01*
X220130000Y-110000000D02*
X220630000Y-109500000D01*
X218130000Y-111500000D02*
X218630000Y-111500000D01*
X219130000Y-111500000D02*
X218630000Y-111500000D01*
X218630000Y-110000000D02*
X218630000Y-111500000D01*
X218630000Y-110000000D02*
X218130000Y-110000000D01*
X219130000Y-110000000D02*
X218630000Y-110000000D01*
X217130000Y-111000000D02*
X217130000Y-110000000D01*
X217130000Y-111500000D02*
X217130000Y-111000000D01*
X216130000Y-110000000D02*
X217130000Y-111000000D01*
X216130000Y-111500000D02*
X216130000Y-110000000D01*
X215130000Y-111000000D02*
X214230000Y-111000000D01*
X214130000Y-110500000D02*
X214130000Y-111500000D01*
X215130000Y-110500000D02*
X214630000Y-110000000D01*
X214630000Y-110000000D02*
X214130000Y-110500000D01*
X215130000Y-111500000D02*
X215130000Y-110500000D01*
X212516396Y-109500000D02*
X212130000Y-109500000D01*
X213130000Y-111000000D02*
X213130000Y-110000000D01*
X212130000Y-111500000D02*
X212630000Y-111500000D01*
X212243604Y-109613604D02*
X212130000Y-109500000D01*
X212130000Y-109500000D02*
X212130000Y-111500000D01*
X212630000Y-111500000D02*
X213130000Y-111000000D01*
X213130000Y-110000000D02*
X212630000Y-109500000D01*
X226130000Y-115000000D02*
X226130000Y-114000000D01*
X225130000Y-114000000D02*
X226130000Y-115000000D01*
X225130000Y-115000000D02*
X225130000Y-114000000D01*
X223630000Y-113000000D02*
X224130000Y-113000000D01*
X223130000Y-113500000D02*
X223630000Y-113000000D01*
X224130000Y-114000000D02*
X223130000Y-114000000D01*
X223130000Y-114000000D02*
X223130000Y-115000000D01*
X223130000Y-113500000D02*
X223130000Y-114000000D01*
X224130000Y-115000000D02*
X223130000Y-115000000D01*
X221630000Y-114500000D02*
X222130000Y-115000000D01*
X221130000Y-114500000D02*
X221630000Y-114500000D01*
X221130000Y-114500000D02*
X221130000Y-113500000D01*
X221130000Y-115000000D02*
X221130000Y-114500000D01*
X219630000Y-114500000D02*
X220130000Y-115000000D01*
X220130000Y-114000000D02*
X219630000Y-114500000D01*
X218130000Y-115000000D02*
X218630000Y-114500000D01*
X217630000Y-114500000D02*
X218130000Y-115000000D01*
X218130000Y-114000000D02*
X217630000Y-114500000D01*
X218630000Y-114500000D02*
X218130000Y-114000000D01*
X216630000Y-113500000D02*
X217130000Y-113500000D01*
X216630000Y-115000000D02*
X216630000Y-114500000D01*
X214630000Y-114500000D02*
X215630000Y-114500000D01*
X214630000Y-114500000D02*
X214630000Y-115000000D01*
X212130000Y-115000000D02*
X213630000Y-113500000D01*
X212130000Y-113500000D02*
X213630000Y-115000000D01*
%TO.N,/B_5v*%
X200500000Y-70500000D02*
X200500000Y-69550000D01*
X186500000Y-84500000D02*
X200500000Y-70500000D01*
X186190000Y-84500000D02*
X186500000Y-84500000D01*
%TO.N,/A_5v*%
X184000000Y-84500000D02*
X198500000Y-70000000D01*
X183650000Y-84500000D02*
X184000000Y-84500000D01*
X198500000Y-70000000D02*
X198500000Y-69550000D01*
%TO.N,/RX_D13*%
X211695000Y-87000000D02*
X229935000Y-105240000D01*
X208000000Y-87000000D02*
X211695000Y-87000000D01*
X205500000Y-89500000D02*
X208000000Y-87000000D01*
X205500000Y-96650414D02*
X205500000Y-89500000D01*
X202264394Y-99886020D02*
X205500000Y-96650414D01*
X187750000Y-121750000D02*
X202264394Y-107235606D01*
X187750000Y-142200000D02*
X187750000Y-121750000D01*
X202264394Y-107235606D02*
X202264394Y-99886020D01*
%TO.N,/TX_D14*%
X212735000Y-85500000D02*
X229935000Y-102700000D01*
X201000000Y-99000000D02*
X204000000Y-96000000D01*
X201000000Y-106500000D02*
X201000000Y-99000000D01*
X204000000Y-89000000D02*
X207500000Y-85500000D01*
X185250000Y-122250000D02*
X201000000Y-106500000D01*
X204000000Y-96000000D02*
X204000000Y-89000000D01*
X185250000Y-142200000D02*
X185250000Y-122250000D01*
X207500000Y-85500000D02*
X212735000Y-85500000D01*
%TO.N,/A_3v3*%
X184000000Y-96500000D02*
X181865000Y-98635000D01*
X184000000Y-94500000D02*
X184000000Y-96500000D01*
%TO.N,/B_3v3*%
X186500000Y-99055000D02*
X186945000Y-99500000D01*
X186500000Y-94500000D02*
X186500000Y-99055000D01*
D27*
%TO.N,/3v3*%
X197500000Y-91000000D02*
X208500000Y-80000000D01*
X192500000Y-91000000D02*
X197500000Y-91000000D01*
X208500000Y-80000000D02*
X209000000Y-80000000D01*
X189000000Y-94500000D02*
X192500000Y-91000000D01*
%TO.N,/5v*%
X196500000Y-68000000D02*
X196500000Y-69550000D01*
X198000000Y-66500000D02*
X196500000Y-68000000D01*
X201000000Y-66500000D02*
X198000000Y-66500000D01*
X209500000Y-75000000D02*
X201000000Y-66500000D01*
X192000000Y-88000000D02*
X188730000Y-84730000D01*
X196500000Y-88000000D02*
X192000000Y-88000000D01*
X188730000Y-84730000D02*
X188730000Y-84500000D01*
X209500000Y-75000000D02*
X196500000Y-88000000D01*
X210000000Y-75000000D02*
X209500000Y-75000000D01*
X211000000Y-75000000D02*
X209500000Y-75000000D01*
X226000000Y-75000000D02*
X211000000Y-75000000D01*
%TO.N,/3v3*%
X208500000Y-80000000D02*
X226000000Y-80000000D01*
X230500000Y-80000000D02*
X236000000Y-85500000D01*
D28*
X236000000Y-85500000D02*
X236000000Y-92500000D01*
D27*
X226000000Y-80000000D02*
X230500000Y-80000000D01*
D29*
%TO.N,/3v3_bis*%
X185000000Y-155000000D02*
X190500000Y-155000000D01*
X179000000Y-149000000D02*
X185000000Y-155000000D01*
X180500000Y-77500000D02*
X179000000Y-79000000D01*
X179000000Y-79000000D02*
X179000000Y-149000000D01*
X181500000Y-77500000D02*
X180500000Y-77500000D01*
X199500000Y-143090000D02*
X199500000Y-146000000D01*
X190500000Y-155000000D02*
X199500000Y-146000000D01*
X199455000Y-143045000D02*
X199500000Y-143090000D01*
X199455000Y-142125000D02*
X199455000Y-143045000D01*
D26*
%TO.N,/A_3v3*%
X181500000Y-98270000D02*
X181865000Y-98635000D01*
D30*
%TO.N,/GND_bis*%
X184000000Y-78500000D02*
X183000000Y-79500000D01*
X184000000Y-77000000D02*
X184000000Y-78500000D01*
X177500000Y-78500000D02*
X180000000Y-76000000D01*
X177500000Y-149500000D02*
X177500000Y-78500000D01*
X180000000Y-76000000D02*
X183000000Y-76000000D01*
X186300000Y-158300000D02*
X177500000Y-149500000D01*
X183000000Y-79500000D02*
X181500000Y-79500000D01*
X183000000Y-76000000D02*
X184000000Y-77000000D01*
X214000000Y-158300000D02*
X186300000Y-158300000D01*
D26*
%TO.N,/A3*%
X197500000Y-116690000D02*
X201000000Y-116690000D01*
X206000000Y-111690000D02*
X201000000Y-116690000D01*
X208840000Y-100160000D02*
X206000000Y-103000000D01*
X209615000Y-100160000D02*
X208840000Y-100160000D01*
X206000000Y-103000000D02*
X206000000Y-111690000D01*
%TO.N,Net-(J13-Pin_1)*%
X201000000Y-127500000D02*
X201000000Y-124310000D01*
X199500000Y-129000000D02*
X201000000Y-127500000D01*
%TO.N,/GND*%
X197500000Y-124310000D02*
X197500000Y-129000000D01*
%TO.N,/D2*%
X202500000Y-131000000D02*
X199500000Y-134000000D01*
X202500000Y-122500000D02*
X202500000Y-131000000D01*
X209600000Y-115400000D02*
X202500000Y-122500000D01*
X209615000Y-115400000D02*
X209600000Y-115400000D01*
D31*
%TO.N,/GND*%
X192025000Y-104000000D02*
X192025000Y-99025000D01*
%TO.N,/A_3v3*%
X181865000Y-98635000D02*
X181865000Y-104000000D01*
D30*
%TO.N,/GND_bis*%
X204535000Y-141513000D02*
X204535000Y-142125000D01*
X206548000Y-139500000D02*
X204535000Y-141513000D01*
X230000000Y-151500000D02*
X227000000Y-148500000D01*
X210500000Y-139500000D02*
X206548000Y-139500000D01*
X230000000Y-156500000D02*
X230000000Y-151500000D01*
X228500000Y-157000000D02*
X229500000Y-157000000D01*
X229500000Y-157000000D02*
X230000000Y-156500000D01*
X227000000Y-148500000D02*
X219500000Y-148500000D01*
X227200000Y-158300000D02*
X228500000Y-157000000D01*
X219500000Y-148500000D02*
X210500000Y-139500000D01*
X214000000Y-158300000D02*
X227200000Y-158300000D01*
D26*
%TO.N,*%
X198500000Y-156500000D02*
X197000000Y-156500000D01*
X197000000Y-155000000D02*
X198500000Y-156500000D01*
X197000000Y-154500000D02*
X197000000Y-155000000D01*
X197500000Y-154000000D02*
X197000000Y-154500000D01*
X198000000Y-154000000D02*
X197500000Y-154000000D01*
X198500000Y-154500000D02*
X198000000Y-154000000D01*
X201000000Y-154000000D02*
X200500000Y-154000000D01*
X200000000Y-156000000D02*
X200500000Y-156500000D01*
X201500000Y-154500000D02*
X201000000Y-154000000D01*
X201500000Y-156000000D02*
X201500000Y-154500000D01*
X200000000Y-154500000D02*
X200000000Y-156000000D01*
X201000000Y-156500000D02*
X201500000Y-156000000D01*
X200500000Y-156500000D02*
X201000000Y-156500000D01*
X204000000Y-154000000D02*
X204500000Y-154500000D01*
X203500000Y-154000000D02*
X204000000Y-154000000D01*
X203000000Y-154500000D02*
X203500000Y-154000000D01*
X203000000Y-155000000D02*
X203000000Y-154500000D01*
X204500000Y-156500000D02*
X203000000Y-155000000D01*
X203000000Y-156500000D02*
X204500000Y-156500000D01*
X194000000Y-154000000D02*
X195500000Y-154000000D01*
X195500000Y-155000000D02*
X194500000Y-155000000D01*
X195500000Y-154000000D02*
X195500000Y-155000000D01*
X194000000Y-156000000D02*
X194500000Y-156500000D01*
X194500000Y-155000000D02*
X194000000Y-155500000D01*
X194500000Y-156500000D02*
X195500000Y-156500000D01*
X194000000Y-155500000D02*
X194000000Y-156000000D01*
%TO.N,Net-(Battery_manager1-Pin_2)*%
X207000000Y-155300000D02*
X206000000Y-155300000D01*
X219000000Y-155300000D02*
X218825000Y-155300000D01*
D30*
%TO.N,/GND_bis*%
X214000000Y-158300000D02*
X213750000Y-158300000D01*
D26*
%TO.N,Net-(Battery_manager1-Pin_2)*%
X210325000Y-156800000D02*
X210325000Y-155800000D01*
X210325000Y-155800000D02*
X210325000Y-154300000D01*
X210325000Y-155800000D02*
X209325000Y-155800000D01*
X209325000Y-155800000D02*
X208825000Y-155300000D01*
X208825000Y-155300000D02*
X208825000Y-154300000D01*
X216825000Y-155300000D02*
X216825000Y-156800000D01*
X211825000Y-156800000D02*
X212825000Y-156800000D01*
X215325000Y-155300000D02*
X216825000Y-155300000D01*
X212825000Y-156800000D02*
X213825000Y-156800000D01*
X212825000Y-156800000D02*
X212825000Y-154300000D01*
X216825000Y-156800000D02*
X215325000Y-156800000D01*
X219825000Y-155300000D02*
X219000000Y-155300000D01*
X216825000Y-154300000D02*
X216825000Y-155300000D01*
X221825000Y-154800000D02*
X221825000Y-155300000D01*
X222325000Y-156800000D02*
X223325000Y-156800000D01*
X221825000Y-156300000D02*
X222325000Y-156800000D01*
X224825000Y-155300000D02*
X225825000Y-154300000D01*
X224825000Y-155800000D02*
X224825000Y-155300000D01*
X221825000Y-155300000D02*
X221825000Y-156300000D01*
X226825000Y-155300000D02*
X226825000Y-156800000D01*
X224825000Y-156800000D02*
X224825000Y-155800000D01*
X223325000Y-156800000D02*
X223325000Y-154300000D01*
X222325000Y-154300000D02*
X221825000Y-154800000D01*
X225825000Y-154300000D02*
X226825000Y-155300000D01*
X233325000Y-154300000D02*
X233325000Y-155800000D01*
X233325000Y-155800000D02*
X232325000Y-156800000D01*
X232325000Y-156800000D02*
X231325000Y-155800000D01*
X231325000Y-155800000D02*
X231325000Y-154300000D01*
X226825000Y-155800000D02*
X224825000Y-155800000D01*
X213825000Y-154300000D02*
X212825000Y-154300000D01*
X216825000Y-154300000D02*
X215325000Y-154300000D01*
X211825000Y-154300000D02*
X212825000Y-154300000D01*
X223325000Y-154300000D02*
X222325000Y-154300000D01*
%TO.N,/D3*%
X204000000Y-135040000D02*
X196915000Y-142125000D01*
X204000000Y-123000000D02*
X204000000Y-135040000D01*
X209060000Y-117940000D02*
X204000000Y-123000000D01*
X209615000Y-117940000D02*
X209060000Y-117940000D01*
%TO.N,Net-(J1-Pin_3)*%
X223380000Y-153500000D02*
X224880000Y-152000000D01*
X211500000Y-153500000D02*
X223380000Y-153500000D01*
X201995000Y-142125000D02*
X201995000Y-143995000D01*
X201995000Y-143995000D02*
X211500000Y-153500000D01*
D30*
%TO.N,/GND_bis*%
X204535000Y-143535000D02*
X204535000Y-142125000D01*
X216000000Y-152000000D02*
X213000000Y-152000000D01*
X213000000Y-152000000D02*
X204535000Y-143535000D01*
D29*
%TO.N,Net-(Battery_manager1-Pin_2)*%
X209125000Y-142125000D02*
X207075000Y-142125000D01*
X218000000Y-151000000D02*
X209125000Y-142125000D01*
X218000000Y-152000000D02*
X218000000Y-151000000D01*
D26*
%TO.N,/D4*%
X206000000Y-124095000D02*
X209615000Y-120480000D01*
X206000000Y-129500000D02*
X206000000Y-124095000D01*
X209500000Y-133000000D02*
X206000000Y-129500000D01*
X221000000Y-137000000D02*
X217000000Y-133000000D01*
X221000000Y-142000000D02*
X221000000Y-137000000D01*
X217000000Y-133000000D02*
X209500000Y-133000000D01*
%TO.N,/D5*%
X223000000Y-136405000D02*
X223000000Y-142000000D01*
X209615000Y-123020000D02*
X223000000Y-136405000D01*
%TO.N,/D6*%
X232000000Y-124500000D02*
X230520000Y-123020000D01*
X232000000Y-139950000D02*
X232000000Y-124500000D01*
X230500000Y-142000000D02*
X230500000Y-141450000D01*
X230500000Y-141450000D02*
X232000000Y-139950000D01*
X230520000Y-123020000D02*
X229935000Y-123020000D01*
%TO.N,/D8_MOSI*%
X235000000Y-122500000D02*
X230440000Y-117940000D01*
X234500000Y-142000000D02*
X235000000Y-141500000D01*
X235000000Y-141500000D02*
X235000000Y-122500000D01*
X230440000Y-117940000D02*
X229935000Y-117940000D01*
%TO.N,/D9_SCK*%
X236500000Y-121950000D02*
X236485000Y-121950000D01*
X236485000Y-121950000D02*
X229935000Y-115400000D01*
%TO.N,/D7*%
X230480000Y-120480000D02*
X229935000Y-120480000D01*
X232500000Y-141450000D02*
X233500000Y-140450000D01*
X233500000Y-123500000D02*
X230480000Y-120480000D01*
X232500000Y-142000000D02*
X232500000Y-141450000D01*
X233500000Y-140450000D02*
X233500000Y-123500000D01*
%TO.N,/D9_SCK*%
X236500000Y-121950000D02*
X236500000Y-142000000D01*
%TO.N,/3v3*%
X246000000Y-158500000D02*
X247500000Y-157000000D01*
X247500000Y-157000000D02*
X247500000Y-154500000D01*
X241500000Y-158500000D02*
X246000000Y-158500000D01*
X239500000Y-156500000D02*
X241500000Y-158500000D01*
X239500000Y-149950000D02*
X239500000Y-156500000D01*
X235500000Y-145950000D02*
X239500000Y-149950000D01*
X221500000Y-145950000D02*
X235500000Y-145950000D01*
X219000000Y-142000000D02*
X219000000Y-143450000D01*
X219000000Y-143450000D02*
X221500000Y-145950000D01*
%TO.N,/D9_SCK*%
X236500000Y-141450000D02*
X236500000Y-142000000D01*
D27*
%TO.N,/SCL*%
X235500000Y-106500000D02*
X241500000Y-100500000D01*
X241500000Y-100500000D02*
X241500000Y-96500000D01*
X229935000Y-107780000D02*
X231215000Y-106500000D01*
X231215000Y-106500000D02*
X234500000Y-106500000D01*
X239500000Y-106500000D02*
X241500000Y-108500000D01*
X234500000Y-106500000D02*
X239500000Y-106500000D01*
D32*
%TO.N,/SDA*%
X234320000Y-110320000D02*
X229935000Y-110320000D01*
X235000000Y-111000000D02*
X234320000Y-110320000D01*
X239500000Y-115500000D02*
X235000000Y-111000000D01*
X241500000Y-143000000D02*
X239500000Y-141000000D01*
X242455989Y-157000000D02*
X241500000Y-156044011D01*
X244500000Y-157000000D02*
X242455989Y-157000000D01*
X241500000Y-156044011D02*
X241500000Y-143000000D01*
X245500000Y-156000000D02*
X244500000Y-157000000D01*
X245500000Y-154500000D02*
X245500000Y-156000000D01*
X239500000Y-141000000D02*
X239500000Y-115500000D01*
D26*
%TO.N,/SCL*%
X241500000Y-120000000D02*
X241500000Y-108500000D01*
D28*
%TO.N,/3v3*%
X238450000Y-68050000D02*
X236000000Y-70500000D01*
X243000000Y-68050000D02*
X238450000Y-68050000D01*
X236000000Y-70500000D02*
X236000000Y-85500000D01*
X245475000Y-70525000D02*
X243000000Y-68050000D01*
X245475000Y-73865000D02*
X245475000Y-70525000D01*
X236000000Y-92500000D02*
X233420000Y-95080000D01*
X233420000Y-95080000D02*
X229935000Y-95080000D01*
D32*
%TO.N,/SCL*%
X243500000Y-142500000D02*
X243500000Y-154500000D01*
X241500000Y-140500000D02*
X243500000Y-142500000D01*
X241500000Y-120500000D02*
X241500000Y-140500000D01*
%TO.N,/SDA*%
X245500000Y-142000000D02*
X245500000Y-154500000D01*
X243500000Y-140000000D02*
X245500000Y-142000000D01*
X243500000Y-72450000D02*
X243500000Y-140000000D01*
D29*
%TO.N,/3v3*%
X245475000Y-137500000D02*
X247500000Y-139525000D01*
X245475000Y-95765000D02*
X245475000Y-137500000D01*
X247500000Y-139525000D02*
X247500000Y-154050000D01*
D26*
%TO.N,/D6*%
X229935000Y-126679800D02*
X230179800Y-126679800D01*
%TO.N,/3v3*%
X245500000Y-110525000D02*
X245475000Y-110550000D01*
X245475000Y-103065000D02*
X245485000Y-103065000D01*
D29*
X245475000Y-95765000D02*
X245475000Y-73865000D01*
D26*
X245475000Y-110365000D02*
X245500000Y-110390000D01*
X245475000Y-103065000D02*
X245475000Y-110550000D01*
X245500000Y-110390000D02*
X245500000Y-110525000D01*
D29*
X245475000Y-103065000D02*
X245475000Y-95765000D01*
D26*
X245485000Y-103065000D02*
X245500000Y-103050000D01*
%TO.N,/SCL*%
X241500000Y-72450000D02*
X241500000Y-97000000D01*
D31*
%TO.N,/B_3v3*%
X186945000Y-104000000D02*
X186945000Y-99500000D01*
X186945000Y-99500000D02*
X186945000Y-99055000D01*
D26*
%TO.N,/GND*%
X214630000Y-114000000D02*
X214630000Y-114500000D01*
X215130000Y-113500000D02*
X214630000Y-114000000D01*
X215630000Y-115000000D02*
X215630000Y-114000000D01*
X215630000Y-114000000D02*
X215130000Y-113500000D01*
%TD*%
%TA.AperFunction,Conductor*%
%TO.N,/GND*%
G36*
X253934108Y-63500501D02*
G01*
X253997841Y-63500501D01*
X254002134Y-63500574D01*
X254549628Y-63519553D01*
X254558193Y-63520147D01*
X255090267Y-63575657D01*
X255100907Y-63576767D01*
X255109415Y-63577954D01*
X255247641Y-63602143D01*
X255646929Y-63672020D01*
X255655300Y-63673786D01*
X256185007Y-63804847D01*
X256193236Y-63807188D01*
X256712594Y-63974612D01*
X256720667Y-63977527D01*
X257227181Y-64180510D01*
X257235041Y-64183981D01*
X257726272Y-64421546D01*
X257733854Y-64425542D01*
X258207471Y-64696558D01*
X258214758Y-64701070D01*
X258656388Y-64996159D01*
X258668463Y-65004227D01*
X258675437Y-65009245D01*
X259107056Y-65343086D01*
X259113665Y-65348574D01*
X259443059Y-65641961D01*
X259488215Y-65682182D01*
X259521125Y-65711494D01*
X259527336Y-65717425D01*
X259908706Y-66107708D01*
X259914484Y-66114047D01*
X260267898Y-66529783D01*
X260273233Y-66536517D01*
X260597019Y-66975736D01*
X260601874Y-66982824D01*
X260894460Y-67443395D01*
X260898813Y-67450802D01*
X260929181Y-67506836D01*
X261062005Y-67751918D01*
X261158814Y-67930545D01*
X261162643Y-67938236D01*
X261388792Y-68434813D01*
X261392080Y-68442751D01*
X261583303Y-68953802D01*
X261586033Y-68961947D01*
X261741411Y-69485012D01*
X261743570Y-69493327D01*
X261786464Y-69685637D01*
X261862355Y-70025896D01*
X261863934Y-70034341D01*
X261945558Y-70573866D01*
X261946548Y-70582401D01*
X261990615Y-71126268D01*
X261991012Y-71134850D01*
X261997315Y-71680482D01*
X261997116Y-71689071D01*
X261965622Y-72233800D01*
X261964830Y-72242355D01*
X261895689Y-72783635D01*
X261894305Y-72792114D01*
X261787856Y-73327272D01*
X261785889Y-73335636D01*
X261642634Y-73862148D01*
X261640093Y-73870354D01*
X261460720Y-74385699D01*
X261457616Y-74393711D01*
X261242996Y-74895383D01*
X261239345Y-74903160D01*
X260990505Y-75388758D01*
X260986325Y-75396264D01*
X260704441Y-75863494D01*
X260699750Y-75870692D01*
X260386209Y-76317254D01*
X260381032Y-76324110D01*
X260037308Y-76747907D01*
X260031668Y-76754388D01*
X259669881Y-77142156D01*
X259659529Y-77152040D01*
X259622082Y-77183873D01*
X259408062Y-77365799D01*
X259402567Y-77370207D01*
X259125393Y-77579911D01*
X259119655Y-77584001D01*
X258831043Y-77777607D01*
X258825083Y-77781364D01*
X258525405Y-77958583D01*
X258521330Y-77960890D01*
X255098160Y-79814434D01*
X255093609Y-79816898D01*
X255052360Y-79834972D01*
X255035874Y-79848159D01*
X255026122Y-79853440D01*
X255026120Y-79853442D01*
X255017310Y-79858212D01*
X254988393Y-79885590D01*
X254980599Y-79892376D01*
X254860846Y-79988165D01*
X254860845Y-79988166D01*
X254601918Y-80236415D01*
X254601912Y-80236421D01*
X254366256Y-80506823D01*
X254366242Y-80506840D01*
X254155715Y-80797265D01*
X253972018Y-81105370D01*
X253816629Y-81428676D01*
X253816629Y-81428677D01*
X253690796Y-81764585D01*
X253595527Y-82110408D01*
X253595525Y-82110417D01*
X253531586Y-82463374D01*
X253531586Y-82463377D01*
X253499486Y-82820646D01*
X253499500Y-83000000D01*
X253499500Y-86435294D01*
X253499199Y-86436439D01*
X253499500Y-86501078D01*
X253499500Y-86570960D01*
X253499849Y-86576101D01*
X253734182Y-136898941D01*
X253734183Y-136899518D01*
X253734183Y-140332046D01*
X253734182Y-140332050D01*
X253734182Y-140342914D01*
X253734182Y-140346561D01*
X253734163Y-140346622D01*
X253734149Y-140577287D01*
X253734150Y-140577314D01*
X253766250Y-140934556D01*
X253766250Y-140934557D01*
X253830194Y-141287522D01*
X253830196Y-141287529D01*
X253925466Y-141633346D01*
X253925469Y-141633354D01*
X254041899Y-141944158D01*
X254051309Y-141969276D01*
X254206692Y-142292563D01*
X254206695Y-142292568D01*
X254206696Y-142292570D01*
X254378125Y-142580095D01*
X254390398Y-142600678D01*
X254390401Y-142600682D01*
X254600906Y-142891074D01*
X254600917Y-142891088D01*
X254600926Y-142891100D01*
X254647133Y-142944119D01*
X254836593Y-143161514D01*
X254836600Y-143161520D01*
X254836602Y-143161523D01*
X255059784Y-143375499D01*
X255095531Y-143409772D01*
X255095540Y-143409780D01*
X255221807Y-143510778D01*
X255221813Y-143510782D01*
X255224550Y-143512971D01*
X255263040Y-143547507D01*
X255275833Y-143553997D01*
X255287044Y-143562966D01*
X255287045Y-143562966D01*
X255287047Y-143562968D01*
X255311692Y-143573765D01*
X255331246Y-143582332D01*
X255337561Y-143585314D01*
X258809268Y-145346659D01*
X258816295Y-145350514D01*
X259116900Y-145528325D01*
X259122867Y-145532087D01*
X259417460Y-145729836D01*
X259423195Y-145733929D01*
X259705996Y-145948114D01*
X259711509Y-145952541D01*
X259968652Y-146171437D01*
X259978882Y-146181206D01*
X260339437Y-146567190D01*
X260344969Y-146573533D01*
X260688011Y-146994936D01*
X260693115Y-147001661D01*
X261006683Y-147445424D01*
X261011318Y-147452481D01*
X261293972Y-147916567D01*
X261298115Y-147923923D01*
X261548521Y-148406142D01*
X261552155Y-148413763D01*
X261769177Y-148911927D01*
X261772283Y-148919777D01*
X261954900Y-149431538D01*
X261957463Y-149439577D01*
X262025151Y-149679794D01*
X262104836Y-149962589D01*
X262106848Y-149970789D01*
X262218288Y-150502614D01*
X262219737Y-150510931D01*
X262294729Y-151049102D01*
X262295609Y-151057499D01*
X262333808Y-151599521D01*
X262334115Y-151607958D01*
X262335342Y-152151346D01*
X262335073Y-152159785D01*
X262299322Y-152701974D01*
X262298480Y-152710374D01*
X262225920Y-153248869D01*
X262224509Y-153257193D01*
X262115468Y-153789529D01*
X262113493Y-153797737D01*
X261968486Y-154321403D01*
X261965958Y-154329454D01*
X261949434Y-154376431D01*
X261785654Y-154842037D01*
X261782583Y-154849900D01*
X261567816Y-155349033D01*
X261564217Y-155356671D01*
X261315984Y-155840028D01*
X261311874Y-155847402D01*
X261031324Y-156312751D01*
X261026721Y-156319829D01*
X260715163Y-156765000D01*
X260710090Y-156771748D01*
X260368950Y-157194699D01*
X260363429Y-157201086D01*
X259994308Y-157599835D01*
X259988365Y-157605832D01*
X259592968Y-157978537D01*
X259586631Y-157984116D01*
X259166777Y-158329062D01*
X259160075Y-158334196D01*
X258717728Y-158649770D01*
X258710692Y-158654436D01*
X258247907Y-158939171D01*
X258240570Y-158943348D01*
X257759469Y-159195939D01*
X257751864Y-159199607D01*
X257254700Y-159418871D01*
X257246864Y-159422013D01*
X256735919Y-159606943D01*
X256727887Y-159609544D01*
X256205560Y-159759273D01*
X256197370Y-159761322D01*
X255666056Y-159875163D01*
X255657745Y-159876650D01*
X255119916Y-159954073D01*
X255111524Y-159954991D01*
X254569660Y-159995638D01*
X254561224Y-159995982D01*
X254042435Y-159999497D01*
X254041595Y-159999500D01*
X254008527Y-159999500D01*
X254005145Y-159999454D01*
X253947780Y-159997888D01*
X253939703Y-159998729D01*
X253939621Y-159997947D01*
X253926432Y-159999500D01*
X189001732Y-159999500D01*
X188998254Y-159999451D01*
X188330659Y-159980720D01*
X188323715Y-159980330D01*
X187659945Y-159924342D01*
X187653033Y-159923563D01*
X186993454Y-159830445D01*
X186986597Y-159829280D01*
X186333284Y-159699328D01*
X186326503Y-159697781D01*
X185681474Y-159531394D01*
X185674790Y-159529468D01*
X185040133Y-159327185D01*
X185033568Y-159324888D01*
X184411236Y-159087331D01*
X184404810Y-159084669D01*
X183796788Y-158812597D01*
X183790521Y-158809579D01*
X183198707Y-158503840D01*
X183192620Y-158500476D01*
X182618877Y-158162034D01*
X182612987Y-158158333D01*
X182059120Y-157788251D01*
X182053448Y-157784226D01*
X181521221Y-157383684D01*
X181515783Y-157379348D01*
X181040982Y-156978415D01*
X181006833Y-156949578D01*
X181001649Y-156944946D01*
X180944611Y-156891021D01*
X180517581Y-156487300D01*
X180512699Y-156482418D01*
X180055049Y-155998345D01*
X180050418Y-155993163D01*
X180050063Y-155992743D01*
X179794253Y-155689802D01*
X179620651Y-155484216D01*
X179616315Y-155478778D01*
X179215773Y-154946551D01*
X179211748Y-154940879D01*
X178971339Y-154581082D01*
X178841665Y-154387010D01*
X178837965Y-154381122D01*
X178822706Y-154355255D01*
X178499521Y-153807375D01*
X178496159Y-153801292D01*
X178494871Y-153798799D01*
X178190415Y-153209468D01*
X178187402Y-153203211D01*
X177915323Y-152595173D01*
X177912675Y-152588779D01*
X177675106Y-151966416D01*
X177672814Y-151959866D01*
X177470526Y-151325192D01*
X177468609Y-151318541D01*
X177344823Y-150838659D01*
X177347139Y-150768829D01*
X177386841Y-150711335D01*
X177451324Y-150684433D01*
X177520115Y-150696663D01*
X177552574Y-150720007D01*
X185773768Y-158941203D01*
X185773775Y-158941209D01*
X185908976Y-159031547D01*
X185908980Y-159031549D01*
X186040660Y-159086092D01*
X186059211Y-159093776D01*
X186059215Y-159093776D01*
X186059216Y-159093777D01*
X186218691Y-159125500D01*
X186218694Y-159125500D01*
X227281307Y-159125500D01*
X227388598Y-159104157D01*
X227440789Y-159093776D01*
X227591021Y-159031548D01*
X227591023Y-159031547D01*
X227725957Y-158941387D01*
X227726225Y-158941208D01*
X228805614Y-157861819D01*
X228866937Y-157828334D01*
X228893295Y-157825500D01*
X229581307Y-157825500D01*
X229688598Y-157804157D01*
X229740789Y-157793776D01*
X229891021Y-157731548D01*
X229891023Y-157731547D01*
X229972642Y-157677011D01*
X230026225Y-157641208D01*
X230641208Y-157026225D01*
X230731548Y-156891021D01*
X230793776Y-156740789D01*
X230806962Y-156674500D01*
X230816649Y-156625803D01*
X230849034Y-156563892D01*
X230909750Y-156529318D01*
X230979519Y-156533058D01*
X231025947Y-156562314D01*
X231737707Y-157274074D01*
X231737728Y-157274097D01*
X231846578Y-157382947D01*
X231846581Y-157382949D01*
X231846584Y-157382952D01*
X231969506Y-157465084D01*
X232106088Y-157521659D01*
X232251078Y-157550499D01*
X232251082Y-157550500D01*
X232251083Y-157550500D01*
X232398919Y-157550500D01*
X232398920Y-157550499D01*
X232543913Y-157521659D01*
X232680495Y-157465084D01*
X232803416Y-157382952D01*
X232907952Y-157278416D01*
X232907952Y-157278415D01*
X233907952Y-156278415D01*
X233945875Y-156221658D01*
X233990084Y-156155495D01*
X234022042Y-156078342D01*
X234046659Y-156018912D01*
X234075500Y-155873917D01*
X234075500Y-155726082D01*
X234075500Y-154226082D01*
X234075500Y-154226079D01*
X234046659Y-154081092D01*
X234046658Y-154081088D01*
X234046658Y-154081087D01*
X234039241Y-154063181D01*
X233990087Y-153944511D01*
X233990080Y-153944498D01*
X233907951Y-153821584D01*
X233907948Y-153821580D01*
X233803419Y-153717051D01*
X233803415Y-153717048D01*
X233680501Y-153634919D01*
X233680488Y-153634912D01*
X233543917Y-153578343D01*
X233543907Y-153578340D01*
X233398920Y-153549500D01*
X233398918Y-153549500D01*
X233251082Y-153549500D01*
X233251080Y-153549500D01*
X233106092Y-153578340D01*
X233106082Y-153578343D01*
X232969511Y-153634912D01*
X232969498Y-153634919D01*
X232846584Y-153717048D01*
X232846580Y-153717051D01*
X232742051Y-153821580D01*
X232742048Y-153821584D01*
X232659919Y-153944498D01*
X232659912Y-153944511D01*
X232603343Y-154081082D01*
X232603340Y-154081092D01*
X232574500Y-154226079D01*
X232574500Y-155437770D01*
X232565855Y-155467210D01*
X232559332Y-155497197D01*
X232555577Y-155502212D01*
X232554815Y-155504809D01*
X232538181Y-155525451D01*
X232412681Y-155650951D01*
X232351358Y-155684436D01*
X232281666Y-155679452D01*
X232237319Y-155650951D01*
X232111819Y-155525451D01*
X232078334Y-155464128D01*
X232075500Y-155437770D01*
X232075500Y-154226079D01*
X232046659Y-154081092D01*
X232046658Y-154081088D01*
X232046658Y-154081087D01*
X232039241Y-154063181D01*
X231990087Y-153944511D01*
X231990080Y-153944498D01*
X231907951Y-153821584D01*
X231907948Y-153821580D01*
X231803419Y-153717051D01*
X231803415Y-153717048D01*
X231680501Y-153634919D01*
X231680488Y-153634912D01*
X231543917Y-153578343D01*
X231543907Y-153578340D01*
X231398920Y-153549500D01*
X231398918Y-153549500D01*
X231251082Y-153549500D01*
X231251080Y-153549500D01*
X231106092Y-153578340D01*
X231106082Y-153578343D01*
X230996952Y-153623546D01*
X230927483Y-153631015D01*
X230865004Y-153599739D01*
X230829352Y-153539650D01*
X230825500Y-153508985D01*
X230825500Y-151750000D01*
X231223391Y-151750000D01*
X232184314Y-151750000D01*
X232179920Y-151754394D01*
X232127259Y-151845606D01*
X232100000Y-151947339D01*
X232100000Y-152052661D01*
X232127259Y-152154394D01*
X232179920Y-152245606D01*
X232184314Y-152250000D01*
X231223391Y-152250000D01*
X231232009Y-152304413D01*
X231295244Y-152499029D01*
X231388140Y-152681349D01*
X231508417Y-152846894D01*
X231508417Y-152846895D01*
X231653104Y-152991582D01*
X231818650Y-153111859D01*
X232000968Y-153204754D01*
X232195578Y-153267988D01*
X232250000Y-153276607D01*
X232250000Y-152315686D01*
X232254394Y-152320080D01*
X232345606Y-152372741D01*
X232447339Y-152400000D01*
X232552661Y-152400000D01*
X232654394Y-152372741D01*
X232745606Y-152320080D01*
X232750000Y-152315686D01*
X232750000Y-153276606D01*
X232804421Y-153267988D01*
X232999031Y-153204754D01*
X233181349Y-153111859D01*
X233346894Y-152991582D01*
X233346895Y-152991582D01*
X233491582Y-152846895D01*
X233491582Y-152846894D01*
X233611859Y-152681349D01*
X233704755Y-152499029D01*
X233767990Y-152304413D01*
X233776609Y-152250000D01*
X232815686Y-152250000D01*
X232820080Y-152245606D01*
X232872741Y-152154394D01*
X232900000Y-152052661D01*
X232900000Y-151947339D01*
X232872741Y-151845606D01*
X232820080Y-151754394D01*
X232815686Y-151750000D01*
X233776609Y-151750000D01*
X233767990Y-151695586D01*
X233704755Y-151500970D01*
X233611859Y-151318650D01*
X233491582Y-151153105D01*
X233491582Y-151153104D01*
X233346895Y-151008417D01*
X233181349Y-150888140D01*
X232999029Y-150795244D01*
X232804413Y-150732009D01*
X232750000Y-150723390D01*
X232750000Y-151684314D01*
X232745606Y-151679920D01*
X232654394Y-151627259D01*
X232552661Y-151600000D01*
X232447339Y-151600000D01*
X232345606Y-151627259D01*
X232254394Y-151679920D01*
X232250000Y-151684314D01*
X232250000Y-150723390D01*
X232195586Y-150732009D01*
X232000970Y-150795244D01*
X231818650Y-150888140D01*
X231653105Y-151008417D01*
X231653104Y-151008417D01*
X231508417Y-151153104D01*
X231508417Y-151153105D01*
X231388140Y-151318650D01*
X231295244Y-151500970D01*
X231232009Y-151695586D01*
X231223391Y-151750000D01*
X230825500Y-151750000D01*
X230825500Y-151418692D01*
X230793777Y-151259216D01*
X230793776Y-151259215D01*
X230793776Y-151259211D01*
X230749826Y-151153105D01*
X230731549Y-151108980D01*
X230731547Y-151108976D01*
X230641211Y-150973779D01*
X230641209Y-150973776D01*
X230634885Y-150967452D01*
X230526225Y-150858792D01*
X229029252Y-149361819D01*
X227526228Y-147858794D01*
X227526220Y-147858788D01*
X227391023Y-147768452D01*
X227391019Y-147768450D01*
X227240793Y-147706225D01*
X227240783Y-147706222D01*
X227081307Y-147674500D01*
X227081305Y-147674500D01*
X219893295Y-147674500D01*
X219826256Y-147654815D01*
X219805614Y-147638181D01*
X214453753Y-142286319D01*
X211026228Y-138858794D01*
X211026220Y-138858788D01*
X210891023Y-138768452D01*
X210891019Y-138768450D01*
X210740793Y-138706225D01*
X210740783Y-138706222D01*
X210581307Y-138674500D01*
X210581305Y-138674500D01*
X206629305Y-138674500D01*
X206466695Y-138674500D01*
X206466693Y-138674500D01*
X206307216Y-138706222D01*
X206307206Y-138706225D01*
X206156980Y-138768450D01*
X206156976Y-138768452D01*
X206021779Y-138858788D01*
X206021771Y-138858794D01*
X204011182Y-140869384D01*
X203979797Y-140892187D01*
X203827182Y-140969949D01*
X203655213Y-141094890D01*
X203504890Y-141245213D01*
X203379949Y-141417182D01*
X203375484Y-141425946D01*
X203327509Y-141476742D01*
X203259688Y-141493536D01*
X203193553Y-141470998D01*
X203154516Y-141425946D01*
X203150050Y-141417182D01*
X203025109Y-141245213D01*
X202874786Y-141094890D01*
X202702820Y-140969951D01*
X202513414Y-140873444D01*
X202513413Y-140873443D01*
X202513412Y-140873443D01*
X202311243Y-140807754D01*
X202311241Y-140807753D01*
X202311240Y-140807753D01*
X202149957Y-140782208D01*
X202101287Y-140774500D01*
X201888713Y-140774500D01*
X201840042Y-140782208D01*
X201678760Y-140807753D01*
X201577672Y-140840598D01*
X201495390Y-140867334D01*
X201476585Y-140873444D01*
X201287179Y-140969951D01*
X201115213Y-141094890D01*
X200964890Y-141245213D01*
X200839949Y-141417182D01*
X200835484Y-141425946D01*
X200787509Y-141476742D01*
X200719688Y-141493536D01*
X200653553Y-141470998D01*
X200614516Y-141425946D01*
X200610050Y-141417182D01*
X200485109Y-141245213D01*
X200334786Y-141094890D01*
X200162820Y-140969951D01*
X199973414Y-140873444D01*
X199973413Y-140873443D01*
X199973412Y-140873443D01*
X199771243Y-140807754D01*
X199771241Y-140807753D01*
X199771239Y-140807753D01*
X199599285Y-140780518D01*
X199536150Y-140750589D01*
X199499219Y-140691277D01*
X199500217Y-140621415D01*
X199531000Y-140570366D01*
X204582951Y-135518416D01*
X204665084Y-135395495D01*
X204721658Y-135258913D01*
X204738250Y-135175500D01*
X204750500Y-135113920D01*
X204750500Y-123362228D01*
X204770185Y-123295189D01*
X204786814Y-123274552D01*
X208303425Y-119757940D01*
X208364746Y-119724457D01*
X208434438Y-119729441D01*
X208490371Y-119771313D01*
X208514788Y-119836777D01*
X208501589Y-119901917D01*
X208452409Y-119998438D01*
X208452409Y-119998439D01*
X208391389Y-120186236D01*
X208360500Y-120381263D01*
X208360500Y-120578734D01*
X208363523Y-120597825D01*
X208354566Y-120667118D01*
X208328730Y-120704900D01*
X205417047Y-123616584D01*
X205417043Y-123616589D01*
X205371280Y-123685082D01*
X205371279Y-123685084D01*
X205353097Y-123712294D01*
X205334916Y-123739504D01*
X205334912Y-123739511D01*
X205278343Y-123876082D01*
X205278340Y-123876092D01*
X205249500Y-124021079D01*
X205249500Y-124021082D01*
X205249500Y-129573918D01*
X205249500Y-129573920D01*
X205249499Y-129573920D01*
X205278340Y-129718907D01*
X205278343Y-129718917D01*
X205334914Y-129855491D01*
X205334916Y-129855495D01*
X205355052Y-129885631D01*
X205364986Y-129900499D01*
X205417049Y-129978418D01*
X205417052Y-129978421D01*
X208045837Y-132607204D01*
X208917048Y-133478415D01*
X208917049Y-133478416D01*
X208987589Y-133548956D01*
X209021585Y-133582952D01*
X209144498Y-133665080D01*
X209144511Y-133665087D01*
X209281082Y-133721656D01*
X209281087Y-133721658D01*
X209281091Y-133721658D01*
X209281092Y-133721659D01*
X209426079Y-133750500D01*
X209426082Y-133750500D01*
X216637770Y-133750500D01*
X216704809Y-133770185D01*
X216725451Y-133786819D01*
X220213181Y-137274548D01*
X220246666Y-137335871D01*
X220249500Y-137362229D01*
X220249500Y-140867796D01*
X220242365Y-140892091D01*
X220239224Y-140917222D01*
X220231772Y-140928166D01*
X220229815Y-140934835D01*
X220220692Y-140947259D01*
X220217120Y-140951537D01*
X220160586Y-141008072D01*
X220097875Y-141094385D01*
X220095192Y-141097600D01*
X220069482Y-141114799D01*
X220044987Y-141133689D01*
X220040697Y-141134057D01*
X220037120Y-141136451D01*
X220006194Y-141137020D01*
X219975374Y-141139667D01*
X219971566Y-141137657D01*
X219967262Y-141137737D01*
X219940942Y-141121499D01*
X219913579Y-141107061D01*
X219909030Y-141101811D01*
X219907798Y-141101051D01*
X219907088Y-141099569D01*
X219899683Y-141091023D01*
X219851899Y-141025257D01*
X219839414Y-141008072D01*
X219716928Y-140885586D01*
X219576788Y-140783768D01*
X219460467Y-140724500D01*
X219422447Y-140705128D01*
X219422446Y-140705127D01*
X219422445Y-140705127D01*
X219257701Y-140651598D01*
X219257699Y-140651597D01*
X219257698Y-140651597D01*
X219105009Y-140627414D01*
X219086611Y-140624500D01*
X218913389Y-140624500D01*
X218894991Y-140627414D01*
X218742302Y-140651597D01*
X218577552Y-140705128D01*
X218423211Y-140783768D01*
X218283073Y-140885585D01*
X218175166Y-140993492D01*
X218113843Y-141026976D01*
X218044151Y-141021992D01*
X217988218Y-140980120D01*
X217981946Y-140970906D01*
X217942317Y-140906656D01*
X217818345Y-140782684D01*
X217669124Y-140690643D01*
X217669119Y-140690641D01*
X217502697Y-140635494D01*
X217502690Y-140635493D01*
X217399986Y-140625000D01*
X217250000Y-140625000D01*
X217250000Y-141719670D01*
X217230255Y-141699925D01*
X217144745Y-141650556D01*
X217049370Y-141625000D01*
X216950630Y-141625000D01*
X216855255Y-141650556D01*
X216769745Y-141699925D01*
X216750000Y-141719670D01*
X216750000Y-140625000D01*
X216600027Y-140625000D01*
X216600012Y-140625001D01*
X216497302Y-140635494D01*
X216330880Y-140690641D01*
X216330875Y-140690643D01*
X216181654Y-140782684D01*
X216057684Y-140906654D01*
X215965643Y-141055875D01*
X215965641Y-141055880D01*
X215910494Y-141222302D01*
X215910493Y-141222309D01*
X215900000Y-141325013D01*
X215900000Y-141750000D01*
X216719670Y-141750000D01*
X216699925Y-141769745D01*
X216650556Y-141855255D01*
X216625000Y-141950630D01*
X216625000Y-142049370D01*
X216650556Y-142144745D01*
X216699925Y-142230255D01*
X216719670Y-142250000D01*
X215900001Y-142250000D01*
X215900001Y-142674986D01*
X215910494Y-142777697D01*
X215965641Y-142944119D01*
X215965643Y-142944124D01*
X216057684Y-143093345D01*
X216181654Y-143217315D01*
X216330875Y-143309356D01*
X216330880Y-143309358D01*
X216497302Y-143364505D01*
X216497309Y-143364506D01*
X216600019Y-143374999D01*
X216749999Y-143374999D01*
X216750000Y-143374998D01*
X216750000Y-142280330D01*
X216769745Y-142300075D01*
X216855255Y-142349444D01*
X216950630Y-142375000D01*
X217049370Y-142375000D01*
X217144745Y-142349444D01*
X217230255Y-142300075D01*
X217250000Y-142280330D01*
X217250000Y-143374999D01*
X217399972Y-143374999D01*
X217399986Y-143374998D01*
X217502697Y-143364505D01*
X217669119Y-143309358D01*
X217669124Y-143309356D01*
X217818345Y-143217315D01*
X217942315Y-143093345D01*
X217981945Y-143029094D01*
X217999237Y-143013539D01*
X218013175Y-142994922D01*
X218024725Y-142990613D01*
X218033893Y-142982368D01*
X218056850Y-142978631D01*
X218078639Y-142970505D01*
X218090685Y-142973125D01*
X218102855Y-142971145D01*
X218124186Y-142980413D01*
X218146912Y-142985357D01*
X218162608Y-142997107D01*
X218166937Y-142998988D01*
X218175166Y-143006508D01*
X218213181Y-143044523D01*
X218246666Y-143105846D01*
X218249500Y-143132204D01*
X218249500Y-143523918D01*
X218249500Y-143523920D01*
X218249499Y-143523920D01*
X218278340Y-143668907D01*
X218278343Y-143668917D01*
X218334912Y-143805488D01*
X218334920Y-143805502D01*
X218359209Y-143841852D01*
X218359210Y-143841855D01*
X218359211Y-143841855D01*
X218415446Y-143926019D01*
X218417051Y-143928420D01*
X218417052Y-143928421D01*
X219773545Y-145284913D01*
X221021584Y-146532952D01*
X221052328Y-146553494D01*
X221083067Y-146574033D01*
X221083069Y-146574034D01*
X221083072Y-146574036D01*
X221144505Y-146615084D01*
X221281087Y-146671658D01*
X221281091Y-146671658D01*
X221281092Y-146671659D01*
X221426079Y-146700500D01*
X221426082Y-146700500D01*
X221426083Y-146700500D01*
X221573917Y-146700500D01*
X235137770Y-146700500D01*
X235204809Y-146720185D01*
X235225451Y-146736819D01*
X238713181Y-150224548D01*
X238746666Y-150285871D01*
X238749500Y-150312229D01*
X238749500Y-156573918D01*
X238749500Y-156573920D01*
X238749499Y-156573920D01*
X238778340Y-156718907D01*
X238778343Y-156718917D01*
X238834913Y-156855490D01*
X238834914Y-156855491D01*
X238834916Y-156855495D01*
X238853103Y-156882713D01*
X238858653Y-156891019D01*
X238858654Y-156891022D01*
X238917043Y-156978410D01*
X238917047Y-156978415D01*
X238917048Y-156978416D01*
X240917049Y-158978416D01*
X240970180Y-159031547D01*
X241021585Y-159082952D01*
X241144498Y-159165080D01*
X241144511Y-159165087D01*
X241281082Y-159221656D01*
X241281087Y-159221658D01*
X241281091Y-159221658D01*
X241281092Y-159221659D01*
X241426079Y-159250500D01*
X241426082Y-159250500D01*
X246073920Y-159250500D01*
X246171462Y-159231096D01*
X246218913Y-159221658D01*
X246355495Y-159165084D01*
X246414737Y-159125500D01*
X246414737Y-159125499D01*
X246414739Y-159125499D01*
X246471862Y-159087331D01*
X246478416Y-159082952D01*
X248082951Y-157478416D01*
X248165084Y-157355495D01*
X248221658Y-157218913D01*
X248238909Y-157132187D01*
X248250500Y-157073920D01*
X248250500Y-155632204D01*
X248259144Y-155602764D01*
X248265667Y-155572779D01*
X248269422Y-155567762D01*
X248270185Y-155565165D01*
X248286818Y-155544524D01*
X248302249Y-155529093D01*
X248324834Y-155506507D01*
X248386154Y-155473023D01*
X248455846Y-155478007D01*
X248511780Y-155519877D01*
X248518053Y-155529093D01*
X248557682Y-155593343D01*
X248681654Y-155717315D01*
X248830875Y-155809356D01*
X248830880Y-155809358D01*
X248997302Y-155864505D01*
X248997309Y-155864506D01*
X249100019Y-155874999D01*
X249249999Y-155874999D01*
X249250000Y-155874998D01*
X249250000Y-154780330D01*
X249269745Y-154800075D01*
X249355255Y-154849444D01*
X249450630Y-154875000D01*
X249549370Y-154875000D01*
X249644745Y-154849444D01*
X249730255Y-154800075D01*
X249750000Y-154780330D01*
X249750000Y-155874999D01*
X249899972Y-155874999D01*
X249899986Y-155874998D01*
X250002697Y-155864505D01*
X250169119Y-155809358D01*
X250169124Y-155809356D01*
X250318345Y-155717315D01*
X250442315Y-155593345D01*
X250534356Y-155444124D01*
X250534358Y-155444119D01*
X250589505Y-155277697D01*
X250589506Y-155277690D01*
X250599999Y-155174986D01*
X250600000Y-155174973D01*
X250600000Y-154750000D01*
X249780330Y-154750000D01*
X249800075Y-154730255D01*
X249849444Y-154644745D01*
X249875000Y-154549370D01*
X249875000Y-154450630D01*
X249849444Y-154355255D01*
X249800075Y-154269745D01*
X249780330Y-154250000D01*
X250599999Y-154250000D01*
X250599999Y-153825028D01*
X250599998Y-153825013D01*
X250589505Y-153722302D01*
X250534358Y-153555880D01*
X250534356Y-153555875D01*
X250442315Y-153406654D01*
X250318345Y-153282684D01*
X250169124Y-153190643D01*
X250169119Y-153190641D01*
X250002697Y-153135494D01*
X250002690Y-153135493D01*
X249899986Y-153125000D01*
X249750000Y-153125000D01*
X249750000Y-154219670D01*
X249730255Y-154199925D01*
X249644745Y-154150556D01*
X249549370Y-154125000D01*
X249450630Y-154125000D01*
X249355255Y-154150556D01*
X249269745Y-154199925D01*
X249250000Y-154219670D01*
X249250000Y-153125000D01*
X249100027Y-153125000D01*
X249100012Y-153125001D01*
X248997302Y-153135494D01*
X248830880Y-153190641D01*
X248830875Y-153190643D01*
X248681654Y-153282684D01*
X248612181Y-153352158D01*
X248550858Y-153385643D01*
X248481166Y-153380659D01*
X248425233Y-153338787D01*
X248400816Y-153273323D01*
X248400500Y-153264477D01*
X248400500Y-151776648D01*
X254649500Y-151776648D01*
X254649500Y-152019225D01*
X254681161Y-152259722D01*
X254743947Y-152494041D01*
X254836773Y-152718142D01*
X254836777Y-152718151D01*
X254858974Y-152756598D01*
X254958064Y-152928226D01*
X254958066Y-152928229D01*
X254958067Y-152928230D01*
X255105733Y-153120673D01*
X255105739Y-153120680D01*
X255277256Y-153292197D01*
X255277263Y-153292203D01*
X255337973Y-153338787D01*
X255469711Y-153439873D01*
X255679788Y-153561161D01*
X255903900Y-153653991D01*
X256138211Y-153716775D01*
X256300444Y-153738133D01*
X256378711Y-153748437D01*
X256378712Y-153748437D01*
X256621289Y-153748437D01*
X256669388Y-153742104D01*
X256861789Y-153716775D01*
X257096100Y-153653991D01*
X257320212Y-153561161D01*
X257530289Y-153439873D01*
X257722738Y-153292202D01*
X257894265Y-153120675D01*
X258041936Y-152928226D01*
X258163224Y-152718149D01*
X258256054Y-152494037D01*
X258318838Y-152259726D01*
X258350500Y-152019225D01*
X258350500Y-151776649D01*
X258318838Y-151536148D01*
X258256054Y-151301837D01*
X258163224Y-151077725D01*
X258041936Y-150867648D01*
X257910735Y-150696663D01*
X257894266Y-150675200D01*
X257894260Y-150675193D01*
X257722743Y-150503676D01*
X257722736Y-150503670D01*
X257530293Y-150356004D01*
X257530292Y-150356003D01*
X257530289Y-150356001D01*
X257320212Y-150234713D01*
X257320205Y-150234710D01*
X257096104Y-150141884D01*
X256861785Y-150079098D01*
X256621289Y-150047437D01*
X256621288Y-150047437D01*
X256378712Y-150047437D01*
X256378711Y-150047437D01*
X256138214Y-150079098D01*
X255903895Y-150141884D01*
X255679794Y-150234710D01*
X255679785Y-150234714D01*
X255469706Y-150356004D01*
X255277263Y-150503670D01*
X255277256Y-150503676D01*
X255105739Y-150675193D01*
X255105733Y-150675200D01*
X254958067Y-150867643D01*
X254958064Y-150867647D01*
X254958064Y-150867648D01*
X254946478Y-150887715D01*
X254836777Y-151077722D01*
X254836773Y-151077731D01*
X254743947Y-151301832D01*
X254681161Y-151536151D01*
X254649500Y-151776648D01*
X248400500Y-151776648D01*
X248400500Y-144235523D01*
X248420185Y-144168484D01*
X248472989Y-144122729D01*
X248542147Y-144112785D01*
X248605703Y-144141810D01*
X248612181Y-144147842D01*
X248681654Y-144217315D01*
X248830875Y-144309356D01*
X248830880Y-144309358D01*
X248997302Y-144364505D01*
X248997309Y-144364506D01*
X249100019Y-144374999D01*
X249249999Y-144374999D01*
X249250000Y-144374998D01*
X249250000Y-143280330D01*
X249269745Y-143300075D01*
X249355255Y-143349444D01*
X249450630Y-143375000D01*
X249549370Y-143375000D01*
X249644745Y-143349444D01*
X249730255Y-143300075D01*
X249750000Y-143280330D01*
X249750000Y-144374999D01*
X249899972Y-144374999D01*
X249899986Y-144374998D01*
X250002697Y-144364505D01*
X250169119Y-144309358D01*
X250169124Y-144309356D01*
X250318345Y-144217315D01*
X250442315Y-144093345D01*
X250534356Y-143944124D01*
X250534358Y-143944119D01*
X250589505Y-143777697D01*
X250589506Y-143777690D01*
X250599999Y-143674986D01*
X250600000Y-143674973D01*
X250600000Y-143250000D01*
X249780330Y-143250000D01*
X249800075Y-143230255D01*
X249849444Y-143144745D01*
X249875000Y-143049370D01*
X249875000Y-142950630D01*
X249849444Y-142855255D01*
X249800075Y-142769745D01*
X249780330Y-142750000D01*
X250599999Y-142750000D01*
X250599999Y-142325028D01*
X250599998Y-142325013D01*
X250589505Y-142222302D01*
X250534358Y-142055880D01*
X250534356Y-142055875D01*
X250442315Y-141906654D01*
X250318345Y-141782684D01*
X250169124Y-141690643D01*
X250169119Y-141690641D01*
X250002697Y-141635494D01*
X250002690Y-141635493D01*
X249899986Y-141625000D01*
X249750000Y-141625000D01*
X249750000Y-142719670D01*
X249730255Y-142699925D01*
X249644745Y-142650556D01*
X249549370Y-142625000D01*
X249450630Y-142625000D01*
X249355255Y-142650556D01*
X249269745Y-142699925D01*
X249250000Y-142719670D01*
X249250000Y-141625000D01*
X249100027Y-141625000D01*
X249100012Y-141625001D01*
X248997302Y-141635494D01*
X248830880Y-141690641D01*
X248830875Y-141690643D01*
X248681654Y-141782684D01*
X248612181Y-141852158D01*
X248550858Y-141885643D01*
X248481166Y-141880659D01*
X248425233Y-141838787D01*
X248400816Y-141773323D01*
X248400500Y-141764477D01*
X248400500Y-139436306D01*
X248400499Y-139436304D01*
X248365896Y-139262341D01*
X248365893Y-139262332D01*
X248298016Y-139098459D01*
X248298009Y-139098446D01*
X248199465Y-138950966D01*
X248199464Y-138950965D01*
X248074035Y-138825536D01*
X246411819Y-137163319D01*
X246378334Y-137101996D01*
X246375500Y-137075638D01*
X246375500Y-132710523D01*
X246395185Y-132643484D01*
X246447989Y-132597729D01*
X246517147Y-132587785D01*
X246580703Y-132616810D01*
X246587181Y-132622842D01*
X246681654Y-132717315D01*
X246830875Y-132809356D01*
X246830880Y-132809358D01*
X246997302Y-132864505D01*
X246997309Y-132864506D01*
X247100019Y-132874999D01*
X247249999Y-132874999D01*
X247250000Y-132874998D01*
X247250000Y-131780330D01*
X247269745Y-131800075D01*
X247355255Y-131849444D01*
X247450630Y-131875000D01*
X247549370Y-131875000D01*
X247644745Y-131849444D01*
X247730255Y-131800075D01*
X247750000Y-131780330D01*
X247750000Y-132874999D01*
X247899972Y-132874999D01*
X247899986Y-132874998D01*
X248002697Y-132864505D01*
X248169119Y-132809358D01*
X248169124Y-132809356D01*
X248318345Y-132717315D01*
X248442315Y-132593345D01*
X248534356Y-132444124D01*
X248534358Y-132444119D01*
X248589505Y-132277697D01*
X248589506Y-132277690D01*
X248599999Y-132174986D01*
X248600000Y-132174973D01*
X248600000Y-131750000D01*
X247780330Y-131750000D01*
X247800075Y-131730255D01*
X247849444Y-131644745D01*
X247875000Y-131549370D01*
X247875000Y-131450630D01*
X247849444Y-131355255D01*
X247800075Y-131269745D01*
X247780330Y-131250000D01*
X248599999Y-131250000D01*
X248599999Y-130825028D01*
X248599998Y-130825013D01*
X248589505Y-130722302D01*
X248534358Y-130555880D01*
X248534356Y-130555875D01*
X248442315Y-130406654D01*
X248318345Y-130282684D01*
X248169124Y-130190643D01*
X248169119Y-130190641D01*
X248002697Y-130135494D01*
X248002690Y-130135493D01*
X247899986Y-130125000D01*
X247750000Y-130125000D01*
X247750000Y-131219670D01*
X247730255Y-131199925D01*
X247644745Y-131150556D01*
X247549370Y-131125000D01*
X247450630Y-131125000D01*
X247355255Y-131150556D01*
X247269745Y-131199925D01*
X247250000Y-131219670D01*
X247250000Y-130125000D01*
X247100027Y-130125000D01*
X247100012Y-130125001D01*
X246997302Y-130135494D01*
X246830880Y-130190641D01*
X246830875Y-130190643D01*
X246681654Y-130282684D01*
X246587181Y-130377158D01*
X246525858Y-130410643D01*
X246456166Y-130405659D01*
X246400233Y-130363787D01*
X246375816Y-130298323D01*
X246375500Y-130289477D01*
X246375500Y-121210523D01*
X246395185Y-121143484D01*
X246447989Y-121097729D01*
X246517147Y-121087785D01*
X246580703Y-121116810D01*
X246587181Y-121122842D01*
X246681654Y-121217315D01*
X246830875Y-121309356D01*
X246830880Y-121309358D01*
X246997302Y-121364505D01*
X246997309Y-121364506D01*
X247100019Y-121374999D01*
X247249999Y-121374999D01*
X247250000Y-121374998D01*
X247250000Y-120280330D01*
X247269745Y-120300075D01*
X247355255Y-120349444D01*
X247450630Y-120375000D01*
X247549370Y-120375000D01*
X247644745Y-120349444D01*
X247730255Y-120300075D01*
X247750000Y-120280330D01*
X247750000Y-121374999D01*
X247899972Y-121374999D01*
X247899986Y-121374998D01*
X248002697Y-121364505D01*
X248169119Y-121309358D01*
X248169124Y-121309356D01*
X248318345Y-121217315D01*
X248442315Y-121093345D01*
X248534356Y-120944124D01*
X248534358Y-120944119D01*
X248589505Y-120777697D01*
X248589506Y-120777690D01*
X248599999Y-120674986D01*
X248600000Y-120674973D01*
X248600000Y-120250000D01*
X247780330Y-120250000D01*
X247800075Y-120230255D01*
X247849444Y-120144745D01*
X247875000Y-120049370D01*
X247875000Y-119950630D01*
X247849444Y-119855255D01*
X247800075Y-119769745D01*
X247780330Y-119750000D01*
X248599999Y-119750000D01*
X248599999Y-119325028D01*
X248599998Y-119325013D01*
X248589505Y-119222302D01*
X248534358Y-119055880D01*
X248534356Y-119055875D01*
X248442315Y-118906654D01*
X248318345Y-118782684D01*
X248169124Y-118690643D01*
X248169119Y-118690641D01*
X248002697Y-118635494D01*
X248002690Y-118635493D01*
X247899986Y-118625000D01*
X247750000Y-118625000D01*
X247750000Y-119719670D01*
X247730255Y-119699925D01*
X247644745Y-119650556D01*
X247549370Y-119625000D01*
X247450630Y-119625000D01*
X247355255Y-119650556D01*
X247269745Y-119699925D01*
X247250000Y-119719670D01*
X247250000Y-118625000D01*
X247100027Y-118625000D01*
X247100012Y-118625001D01*
X246997302Y-118635494D01*
X246830880Y-118690641D01*
X246830875Y-118690643D01*
X246681654Y-118782684D01*
X246587181Y-118877158D01*
X246525858Y-118910643D01*
X246456166Y-118905659D01*
X246400233Y-118863787D01*
X246375816Y-118798323D01*
X246375500Y-118789477D01*
X246375500Y-109710523D01*
X246395185Y-109643484D01*
X246447989Y-109597729D01*
X246517147Y-109587785D01*
X246580703Y-109616810D01*
X246587181Y-109622842D01*
X246681654Y-109717315D01*
X246830875Y-109809356D01*
X246830880Y-109809358D01*
X246997302Y-109864505D01*
X246997309Y-109864506D01*
X247100019Y-109874999D01*
X247249999Y-109874999D01*
X247250000Y-109874998D01*
X247250000Y-108780330D01*
X247269745Y-108800075D01*
X247355255Y-108849444D01*
X247450630Y-108875000D01*
X247549370Y-108875000D01*
X247644745Y-108849444D01*
X247730255Y-108800075D01*
X247750000Y-108780330D01*
X247750000Y-109874999D01*
X247899972Y-109874999D01*
X247899986Y-109874998D01*
X248002697Y-109864505D01*
X248169119Y-109809358D01*
X248169124Y-109809356D01*
X248318345Y-109717315D01*
X248442315Y-109593345D01*
X248534356Y-109444124D01*
X248534358Y-109444119D01*
X248589505Y-109277697D01*
X248589506Y-109277690D01*
X248599999Y-109174986D01*
X248600000Y-109174973D01*
X248600000Y-108750000D01*
X247780330Y-108750000D01*
X247800075Y-108730255D01*
X247849444Y-108644745D01*
X247875000Y-108549370D01*
X247875000Y-108450630D01*
X247849444Y-108355255D01*
X247800075Y-108269745D01*
X247780330Y-108250000D01*
X248599999Y-108250000D01*
X248599999Y-107825028D01*
X248599998Y-107825013D01*
X248589505Y-107722302D01*
X248534358Y-107555880D01*
X248534356Y-107555875D01*
X248442315Y-107406654D01*
X248318345Y-107282684D01*
X248169124Y-107190643D01*
X248169119Y-107190641D01*
X248002697Y-107135494D01*
X248002690Y-107135493D01*
X247899986Y-107125000D01*
X247750000Y-107125000D01*
X247750000Y-108219670D01*
X247730255Y-108199925D01*
X247644745Y-108150556D01*
X247549370Y-108125000D01*
X247450630Y-108125000D01*
X247355255Y-108150556D01*
X247269745Y-108199925D01*
X247250000Y-108219670D01*
X247250000Y-107125000D01*
X247100027Y-107125000D01*
X247100012Y-107125001D01*
X246997302Y-107135494D01*
X246830880Y-107190641D01*
X246830875Y-107190643D01*
X246681654Y-107282684D01*
X246587181Y-107377158D01*
X246525858Y-107410643D01*
X246456166Y-107405659D01*
X246400233Y-107363787D01*
X246375816Y-107298323D01*
X246375500Y-107289477D01*
X246375500Y-97710523D01*
X246395185Y-97643484D01*
X246447989Y-97597729D01*
X246517147Y-97587785D01*
X246580703Y-97616810D01*
X246587181Y-97622842D01*
X246681654Y-97717315D01*
X246830875Y-97809356D01*
X246830880Y-97809358D01*
X246997302Y-97864505D01*
X246997309Y-97864506D01*
X247100019Y-97874999D01*
X247249999Y-97874999D01*
X247250000Y-97874998D01*
X247250000Y-96780330D01*
X247269745Y-96800075D01*
X247355255Y-96849444D01*
X247450630Y-96875000D01*
X247549370Y-96875000D01*
X247644745Y-96849444D01*
X247730255Y-96800075D01*
X247750000Y-96780330D01*
X247750000Y-97874999D01*
X247899972Y-97874999D01*
X247899986Y-97874998D01*
X248002697Y-97864505D01*
X248169119Y-97809358D01*
X248169124Y-97809356D01*
X248318345Y-97717315D01*
X248442315Y-97593345D01*
X248534356Y-97444124D01*
X248534358Y-97444119D01*
X248589505Y-97277697D01*
X248589506Y-97277690D01*
X248599999Y-97174986D01*
X248600000Y-97174973D01*
X248600000Y-96750000D01*
X247780330Y-96750000D01*
X247800075Y-96730255D01*
X247849444Y-96644745D01*
X247875000Y-96549370D01*
X247875000Y-96450630D01*
X247849444Y-96355255D01*
X247800075Y-96269745D01*
X247780330Y-96250000D01*
X248599999Y-96250000D01*
X248599999Y-95825028D01*
X248599998Y-95825013D01*
X248589505Y-95722302D01*
X248534358Y-95555880D01*
X248534356Y-95555875D01*
X248442315Y-95406654D01*
X248318345Y-95282684D01*
X248169124Y-95190643D01*
X248169119Y-95190641D01*
X248002697Y-95135494D01*
X248002690Y-95135493D01*
X247899986Y-95125000D01*
X247750000Y-95125000D01*
X247750000Y-96219670D01*
X247730255Y-96199925D01*
X247644745Y-96150556D01*
X247549370Y-96125000D01*
X247450630Y-96125000D01*
X247355255Y-96150556D01*
X247269745Y-96199925D01*
X247250000Y-96219670D01*
X247250000Y-95125000D01*
X247100027Y-95125000D01*
X247100012Y-95125001D01*
X246997302Y-95135494D01*
X246830880Y-95190641D01*
X246830875Y-95190643D01*
X246681654Y-95282684D01*
X246587181Y-95377158D01*
X246525858Y-95410643D01*
X246456166Y-95405659D01*
X246400233Y-95363787D01*
X246375816Y-95298323D01*
X246375500Y-95289477D01*
X246375500Y-85710523D01*
X246395185Y-85643484D01*
X246447989Y-85597729D01*
X246517147Y-85587785D01*
X246580703Y-85616810D01*
X246587181Y-85622842D01*
X246681654Y-85717315D01*
X246830875Y-85809356D01*
X246830880Y-85809358D01*
X246997302Y-85864505D01*
X246997309Y-85864506D01*
X247100019Y-85874999D01*
X247249999Y-85874999D01*
X247250000Y-85874998D01*
X247250000Y-84780330D01*
X247269745Y-84800075D01*
X247355255Y-84849444D01*
X247450630Y-84875000D01*
X247549370Y-84875000D01*
X247644745Y-84849444D01*
X247730255Y-84800075D01*
X247750000Y-84780330D01*
X247750000Y-85874999D01*
X247899972Y-85874999D01*
X247899986Y-85874998D01*
X248002697Y-85864505D01*
X248169119Y-85809358D01*
X248169124Y-85809356D01*
X248318345Y-85717315D01*
X248442315Y-85593345D01*
X248534356Y-85444124D01*
X248534358Y-85444119D01*
X248589505Y-85277697D01*
X248589506Y-85277690D01*
X248599999Y-85174986D01*
X248600000Y-85174973D01*
X248600000Y-84750000D01*
X247780330Y-84750000D01*
X247800075Y-84730255D01*
X247849444Y-84644745D01*
X247875000Y-84549370D01*
X247875000Y-84450630D01*
X247849444Y-84355255D01*
X247800075Y-84269745D01*
X247780330Y-84250000D01*
X248599999Y-84250000D01*
X248599999Y-83825028D01*
X248599998Y-83825013D01*
X248589505Y-83722302D01*
X248534358Y-83555880D01*
X248534356Y-83555875D01*
X248442315Y-83406654D01*
X248318345Y-83282684D01*
X248169124Y-83190643D01*
X248169119Y-83190641D01*
X248002697Y-83135494D01*
X248002690Y-83135493D01*
X247899986Y-83125000D01*
X247750000Y-83125000D01*
X247750000Y-84219670D01*
X247730255Y-84199925D01*
X247644745Y-84150556D01*
X247549370Y-84125000D01*
X247450630Y-84125000D01*
X247355255Y-84150556D01*
X247269745Y-84199925D01*
X247250000Y-84219670D01*
X247250000Y-83125000D01*
X247100027Y-83125000D01*
X247100012Y-83125001D01*
X246997302Y-83135494D01*
X246830880Y-83190641D01*
X246830875Y-83190643D01*
X246681654Y-83282684D01*
X246587181Y-83377158D01*
X246525858Y-83410643D01*
X246456166Y-83405659D01*
X246400233Y-83363787D01*
X246375816Y-83298323D01*
X246375500Y-83289477D01*
X246375500Y-74199442D01*
X246384938Y-74151991D01*
X246388973Y-74142251D01*
X246425500Y-73958616D01*
X246425500Y-73710523D01*
X246445185Y-73643484D01*
X246497989Y-73597729D01*
X246567147Y-73587785D01*
X246630703Y-73616810D01*
X246637181Y-73622842D01*
X246681654Y-73667315D01*
X246830875Y-73759356D01*
X246830880Y-73759358D01*
X246997302Y-73814505D01*
X246997309Y-73814506D01*
X247100019Y-73824999D01*
X247249999Y-73824999D01*
X247250000Y-73824998D01*
X247250000Y-72730330D01*
X247269745Y-72750075D01*
X247355255Y-72799444D01*
X247450630Y-72825000D01*
X247549370Y-72825000D01*
X247644745Y-72799444D01*
X247730255Y-72750075D01*
X247750000Y-72730330D01*
X247750000Y-73824999D01*
X247899972Y-73824999D01*
X247899986Y-73824998D01*
X248002697Y-73814505D01*
X248169119Y-73759358D01*
X248169124Y-73759356D01*
X248318345Y-73667315D01*
X248442315Y-73543345D01*
X248534356Y-73394124D01*
X248534358Y-73394119D01*
X248589505Y-73227697D01*
X248589506Y-73227690D01*
X248599999Y-73124986D01*
X248600000Y-73124973D01*
X248600000Y-72700000D01*
X247780330Y-72700000D01*
X247800075Y-72680255D01*
X247849444Y-72594745D01*
X247875000Y-72499370D01*
X247875000Y-72400630D01*
X247849444Y-72305255D01*
X247800075Y-72219745D01*
X247780330Y-72200000D01*
X248599999Y-72200000D01*
X248599999Y-71775028D01*
X248599998Y-71775013D01*
X248589505Y-71672302D01*
X248534358Y-71505880D01*
X248534353Y-71505869D01*
X248493571Y-71439752D01*
X248493569Y-71439750D01*
X248455920Y-71378711D01*
X254649500Y-71378711D01*
X254649500Y-71621288D01*
X254681161Y-71861785D01*
X254743947Y-72096104D01*
X254836773Y-72320205D01*
X254836776Y-72320212D01*
X254958064Y-72530289D01*
X254958066Y-72530292D01*
X254958067Y-72530293D01*
X255105733Y-72722736D01*
X255105739Y-72722743D01*
X255277256Y-72894260D01*
X255277262Y-72894265D01*
X255469711Y-73041936D01*
X255679788Y-73163224D01*
X255903900Y-73256054D01*
X256138211Y-73318838D01*
X256304584Y-73340741D01*
X256378711Y-73350500D01*
X256378712Y-73350500D01*
X256621289Y-73350500D01*
X256695416Y-73340741D01*
X256861789Y-73318838D01*
X257096100Y-73256054D01*
X257320212Y-73163224D01*
X257530289Y-73041936D01*
X257722738Y-72894265D01*
X257894265Y-72722738D01*
X258041936Y-72530289D01*
X258163224Y-72320212D01*
X258256054Y-72096100D01*
X258318838Y-71861789D01*
X258350500Y-71621288D01*
X258350500Y-71378712D01*
X258318838Y-71138211D01*
X258256054Y-70903900D01*
X258163224Y-70679788D01*
X258041936Y-70469711D01*
X257894265Y-70277262D01*
X257894260Y-70277256D01*
X257722743Y-70105739D01*
X257722736Y-70105733D01*
X257530293Y-69958067D01*
X257530292Y-69958066D01*
X257530289Y-69958064D01*
X257320212Y-69836776D01*
X257231427Y-69800000D01*
X257096104Y-69743947D01*
X256878497Y-69685639D01*
X256861789Y-69681162D01*
X256861788Y-69681161D01*
X256861785Y-69681161D01*
X256621289Y-69649500D01*
X256621288Y-69649500D01*
X256378712Y-69649500D01*
X256378711Y-69649500D01*
X256138214Y-69681161D01*
X255903895Y-69743947D01*
X255679794Y-69836773D01*
X255679785Y-69836777D01*
X255469706Y-69958067D01*
X255277263Y-70105733D01*
X255277256Y-70105739D01*
X255105739Y-70277256D01*
X255105733Y-70277263D01*
X254958067Y-70469706D01*
X254836777Y-70679785D01*
X254836773Y-70679794D01*
X254743947Y-70903895D01*
X254681161Y-71138214D01*
X254649500Y-71378711D01*
X248455920Y-71378711D01*
X248442315Y-71356654D01*
X248318345Y-71232684D01*
X248169124Y-71140643D01*
X248169119Y-71140641D01*
X248002697Y-71085494D01*
X248002690Y-71085493D01*
X247899986Y-71075000D01*
X247750000Y-71075000D01*
X247750000Y-72169670D01*
X247730255Y-72149925D01*
X247644745Y-72100556D01*
X247549370Y-72075000D01*
X247450630Y-72075000D01*
X247355255Y-72100556D01*
X247269745Y-72149925D01*
X247250000Y-72169670D01*
X247250000Y-71075000D01*
X247100027Y-71075000D01*
X247100012Y-71075001D01*
X246997302Y-71085494D01*
X246830880Y-71140641D01*
X246830875Y-71140643D01*
X246681654Y-71232684D01*
X246637181Y-71277158D01*
X246575858Y-71310643D01*
X246506166Y-71305659D01*
X246450233Y-71263787D01*
X246425816Y-71198323D01*
X246425500Y-71189477D01*
X246425500Y-70431383D01*
X246425499Y-70431379D01*
X246413077Y-70368928D01*
X246388973Y-70247749D01*
X246330149Y-70105735D01*
X246330148Y-70105733D01*
X246317324Y-70074772D01*
X246317319Y-70074763D01*
X246213302Y-69919092D01*
X246213299Y-69919088D01*
X243605911Y-67311700D01*
X243605907Y-67311697D01*
X243450236Y-67207680D01*
X243450223Y-67207673D01*
X243343179Y-67163335D01*
X243343176Y-67163334D01*
X243336638Y-67160626D01*
X243277251Y-67136027D01*
X243185433Y-67117763D01*
X243180423Y-67116766D01*
X243180418Y-67116765D01*
X243093620Y-67099500D01*
X243093617Y-67099500D01*
X243093616Y-67099500D01*
X238543617Y-67099500D01*
X238356383Y-67099500D01*
X238356378Y-67099500D01*
X238172756Y-67136025D01*
X238172748Y-67136027D01*
X237999771Y-67207676D01*
X237929064Y-67254922D01*
X237929063Y-67254922D01*
X237844095Y-67311695D01*
X237844087Y-67311701D01*
X235261700Y-69894088D01*
X235261697Y-69894092D01*
X235157680Y-70049764D01*
X235157675Y-70049774D01*
X235147321Y-70074772D01*
X235091860Y-70208666D01*
X235091858Y-70208671D01*
X235087617Y-70218912D01*
X235086027Y-70222750D01*
X235057172Y-70367816D01*
X235056959Y-70368885D01*
X235056950Y-70368928D01*
X235049500Y-70406383D01*
X235049500Y-83047348D01*
X235029815Y-83114387D01*
X234977011Y-83160142D01*
X234907853Y-83170086D01*
X234844297Y-83141061D01*
X234837819Y-83135029D01*
X231042165Y-79339375D01*
X231042161Y-79339372D01*
X230902866Y-79246297D01*
X230902863Y-79246296D01*
X230793416Y-79200962D01*
X230793414Y-79200961D01*
X230748086Y-79182185D01*
X230748074Y-79182182D01*
X230583771Y-79149500D01*
X230583767Y-79149500D01*
X227235758Y-79149500D01*
X227168719Y-79129815D01*
X227148077Y-79113181D01*
X227004790Y-78969894D01*
X227004785Y-78969890D01*
X226839781Y-78850008D01*
X226797115Y-78794678D01*
X226791136Y-78725065D01*
X226823741Y-78663270D01*
X226839781Y-78649371D01*
X227004466Y-78529721D01*
X227154723Y-78379464D01*
X227154727Y-78379459D01*
X227279620Y-78207557D01*
X227376095Y-78018217D01*
X227441757Y-77816129D01*
X227441757Y-77816126D01*
X227452231Y-77750000D01*
X226404146Y-77750000D01*
X226442630Y-77683343D01*
X226475000Y-77562535D01*
X226475000Y-77437465D01*
X226442630Y-77316657D01*
X226404146Y-77250000D01*
X227452231Y-77250000D01*
X227441757Y-77183873D01*
X227441757Y-77183870D01*
X227376095Y-76981782D01*
X227279620Y-76792442D01*
X227154727Y-76620540D01*
X227154723Y-76620535D01*
X227004464Y-76470276D01*
X227004459Y-76470272D01*
X226839781Y-76350627D01*
X226797115Y-76295297D01*
X226791136Y-76225684D01*
X226823741Y-76163889D01*
X226839776Y-76149994D01*
X227004792Y-76030104D01*
X227155104Y-75879792D01*
X227155106Y-75879788D01*
X227155109Y-75879786D01*
X227280048Y-75707820D01*
X227280047Y-75707820D01*
X227280051Y-75707816D01*
X227376557Y-75518412D01*
X227442246Y-75316243D01*
X227475500Y-75106287D01*
X227475500Y-74893713D01*
X227442246Y-74683757D01*
X227376557Y-74481588D01*
X227280051Y-74292184D01*
X227280049Y-74292181D01*
X227280048Y-74292179D01*
X227155109Y-74120213D01*
X227004786Y-73969890D01*
X226832820Y-73844951D01*
X226643414Y-73748444D01*
X226643413Y-73748443D01*
X226643412Y-73748443D01*
X226441243Y-73682754D01*
X226441241Y-73682753D01*
X226441240Y-73682753D01*
X226279957Y-73657208D01*
X226231287Y-73649500D01*
X225768713Y-73649500D01*
X225720042Y-73657208D01*
X225558760Y-73682753D01*
X225356585Y-73748444D01*
X225167179Y-73844951D01*
X224995213Y-73969890D01*
X224995209Y-73969894D01*
X224851923Y-74113181D01*
X224790600Y-74146666D01*
X224764242Y-74149500D01*
X209903650Y-74149500D01*
X209836611Y-74129815D01*
X209815969Y-74113181D01*
X205794511Y-70091722D01*
X205711702Y-70008913D01*
X208174500Y-70008913D01*
X208174500Y-70221486D01*
X208207744Y-70431384D01*
X208207754Y-70431443D01*
X208269007Y-70619960D01*
X208273444Y-70633614D01*
X208369951Y-70823020D01*
X208494890Y-70994986D01*
X208645213Y-71145309D01*
X208817179Y-71270248D01*
X208817181Y-71270249D01*
X208817184Y-71270251D01*
X209006588Y-71366757D01*
X209208757Y-71432446D01*
X209418713Y-71465700D01*
X209418714Y-71465700D01*
X209631286Y-71465700D01*
X209631287Y-71465700D01*
X209841243Y-71432446D01*
X210043412Y-71366757D01*
X210232816Y-71270251D01*
X210284523Y-71232684D01*
X210404786Y-71145309D01*
X210404788Y-71145306D01*
X210404792Y-71145304D01*
X210555104Y-70994992D01*
X210555106Y-70994988D01*
X210555109Y-70994986D01*
X210680048Y-70823020D01*
X210680047Y-70823020D01*
X210680051Y-70823016D01*
X210776557Y-70633612D01*
X210842246Y-70431443D01*
X210875500Y-70221487D01*
X210875500Y-70008913D01*
X228674500Y-70008913D01*
X228674500Y-70221486D01*
X228707744Y-70431384D01*
X228707754Y-70431443D01*
X228769007Y-70619960D01*
X228773444Y-70633614D01*
X228869951Y-70823020D01*
X228994890Y-70994986D01*
X229145213Y-71145309D01*
X229317179Y-71270248D01*
X229317181Y-71270249D01*
X229317184Y-71270251D01*
X229506588Y-71366757D01*
X229708757Y-71432446D01*
X229918713Y-71465700D01*
X229918714Y-71465700D01*
X230131286Y-71465700D01*
X230131287Y-71465700D01*
X230341243Y-71432446D01*
X230543412Y-71366757D01*
X230732816Y-71270251D01*
X230784523Y-71232684D01*
X230904786Y-71145309D01*
X230904788Y-71145306D01*
X230904792Y-71145304D01*
X231055104Y-70994992D01*
X231055106Y-70994988D01*
X231055109Y-70994986D01*
X231180048Y-70823020D01*
X231180047Y-70823020D01*
X231180051Y-70823016D01*
X231276557Y-70633612D01*
X231342246Y-70431443D01*
X231375500Y-70221487D01*
X231375500Y-70008913D01*
X231342246Y-69798957D01*
X231276557Y-69596788D01*
X231180051Y-69407384D01*
X231180049Y-69407381D01*
X231180048Y-69407379D01*
X231055109Y-69235413D01*
X230904786Y-69085090D01*
X230732820Y-68960151D01*
X230543414Y-68863644D01*
X230543413Y-68863643D01*
X230543412Y-68863643D01*
X230341243Y-68797954D01*
X230341241Y-68797953D01*
X230341240Y-68797953D01*
X230179284Y-68772302D01*
X230131287Y-68764700D01*
X229918713Y-68764700D01*
X229870716Y-68772302D01*
X229708760Y-68797953D01*
X229506585Y-68863644D01*
X229317179Y-68960151D01*
X229145213Y-69085090D01*
X228994890Y-69235413D01*
X228869951Y-69407379D01*
X228773444Y-69596785D01*
X228773443Y-69596787D01*
X228773443Y-69596788D01*
X228741615Y-69694745D01*
X228707753Y-69798960D01*
X228674500Y-70008913D01*
X210875500Y-70008913D01*
X210842246Y-69798957D01*
X210776557Y-69596788D01*
X210680051Y-69407384D01*
X210680049Y-69407381D01*
X210680048Y-69407379D01*
X210555109Y-69235413D01*
X210404786Y-69085090D01*
X210232820Y-68960151D01*
X210043414Y-68863644D01*
X210043413Y-68863643D01*
X210043412Y-68863643D01*
X209841243Y-68797954D01*
X209841241Y-68797953D01*
X209841240Y-68797953D01*
X209679284Y-68772302D01*
X209631287Y-68764700D01*
X209418713Y-68764700D01*
X209370716Y-68772302D01*
X209208760Y-68797953D01*
X209006585Y-68863644D01*
X208817179Y-68960151D01*
X208645213Y-69085090D01*
X208494890Y-69235413D01*
X208369951Y-69407379D01*
X208273444Y-69596785D01*
X208273443Y-69596787D01*
X208273443Y-69596788D01*
X208241615Y-69694745D01*
X208207753Y-69798960D01*
X208174500Y-70008913D01*
X205711702Y-70008913D01*
X201542165Y-65839375D01*
X201542161Y-65839372D01*
X201402866Y-65746297D01*
X201402863Y-65746296D01*
X201293416Y-65700962D01*
X201293414Y-65700961D01*
X201248086Y-65682185D01*
X201248074Y-65682182D01*
X201083771Y-65649500D01*
X201083767Y-65649500D01*
X197916233Y-65649500D01*
X197916228Y-65649500D01*
X197751925Y-65682182D01*
X197751917Y-65682184D01*
X197597135Y-65746297D01*
X197597129Y-65746301D01*
X197457838Y-65839373D01*
X197457834Y-65839376D01*
X195839375Y-67457834D01*
X195839372Y-67457838D01*
X195746299Y-67597130D01*
X195746292Y-67597143D01*
X195700962Y-67706583D01*
X195682185Y-67751913D01*
X195682182Y-67751925D01*
X195649500Y-67916228D01*
X195649500Y-68364477D01*
X195629815Y-68431516D01*
X195577011Y-68477271D01*
X195507853Y-68487215D01*
X195444297Y-68458190D01*
X195437819Y-68452158D01*
X195318345Y-68332684D01*
X195169124Y-68240643D01*
X195169119Y-68240641D01*
X195002697Y-68185494D01*
X195002690Y-68185493D01*
X194899986Y-68175000D01*
X194750000Y-68175000D01*
X194750000Y-69269670D01*
X194730255Y-69249925D01*
X194644745Y-69200556D01*
X194549370Y-69175000D01*
X194450630Y-69175000D01*
X194355255Y-69200556D01*
X194269745Y-69249925D01*
X194250000Y-69269670D01*
X194250000Y-68175000D01*
X194100027Y-68175000D01*
X194100012Y-68175001D01*
X193997302Y-68185494D01*
X193830880Y-68240641D01*
X193830875Y-68240643D01*
X193681654Y-68332684D01*
X193557684Y-68456654D01*
X193465643Y-68605875D01*
X193465641Y-68605880D01*
X193410494Y-68772302D01*
X193410493Y-68772309D01*
X193400000Y-68875013D01*
X193400000Y-69300000D01*
X194219670Y-69300000D01*
X194199925Y-69319745D01*
X194150556Y-69405255D01*
X194125000Y-69500630D01*
X194125000Y-69599370D01*
X194150556Y-69694745D01*
X194199925Y-69780255D01*
X194219670Y-69800000D01*
X193400001Y-69800000D01*
X193400001Y-70224986D01*
X193410494Y-70327697D01*
X193465641Y-70494119D01*
X193465643Y-70494124D01*
X193557684Y-70643345D01*
X193681654Y-70767315D01*
X193830875Y-70859356D01*
X193830880Y-70859358D01*
X193997302Y-70914505D01*
X193997309Y-70914506D01*
X194100019Y-70924999D01*
X194249999Y-70924999D01*
X194250000Y-70924998D01*
X194250000Y-69830330D01*
X194269745Y-69850075D01*
X194355255Y-69899444D01*
X194450630Y-69925000D01*
X194549370Y-69925000D01*
X194644745Y-69899444D01*
X194730255Y-69850075D01*
X194750000Y-69830330D01*
X194750000Y-70924999D01*
X194899972Y-70924999D01*
X194899986Y-70924998D01*
X195002697Y-70914505D01*
X195169119Y-70859358D01*
X195169124Y-70859356D01*
X195318345Y-70767315D01*
X195442315Y-70643345D01*
X195481945Y-70579094D01*
X195533893Y-70532368D01*
X195602855Y-70521145D01*
X195666937Y-70548988D01*
X195675166Y-70556508D01*
X195783072Y-70664414D01*
X195923212Y-70766232D01*
X196077555Y-70844873D01*
X196242299Y-70898402D01*
X196259128Y-70901067D01*
X196322260Y-70930994D01*
X196359193Y-70990304D01*
X196358197Y-71060167D01*
X196327411Y-71111221D01*
X184325449Y-83113181D01*
X184264126Y-83146666D01*
X184237768Y-83149500D01*
X182752129Y-83149500D01*
X182752123Y-83149501D01*
X182692516Y-83155908D01*
X182557671Y-83206202D01*
X182557664Y-83206206D01*
X182442455Y-83292452D01*
X182442452Y-83292455D01*
X182356206Y-83407664D01*
X182356202Y-83407671D01*
X182305908Y-83542517D01*
X182299501Y-83602116D01*
X182299500Y-83602135D01*
X182299500Y-85397870D01*
X182299501Y-85397876D01*
X182305908Y-85457483D01*
X182356202Y-85592328D01*
X182356206Y-85592335D01*
X182442452Y-85707544D01*
X182442455Y-85707547D01*
X182557664Y-85793793D01*
X182557671Y-85793797D01*
X182692517Y-85844091D01*
X182692516Y-85844091D01*
X182699444Y-85844835D01*
X182752127Y-85850500D01*
X184547872Y-85850499D01*
X184607483Y-85844091D01*
X184742331Y-85793796D01*
X184857546Y-85707546D01*
X184943796Y-85592331D01*
X184992810Y-85460916D01*
X185034681Y-85404984D01*
X185100145Y-85380566D01*
X185168418Y-85395417D01*
X185196673Y-85416569D01*
X185310213Y-85530109D01*
X185482179Y-85655048D01*
X185482181Y-85655049D01*
X185482184Y-85655051D01*
X185671588Y-85751557D01*
X185873757Y-85817246D01*
X186083713Y-85850500D01*
X186083714Y-85850500D01*
X186296286Y-85850500D01*
X186296287Y-85850500D01*
X186506243Y-85817246D01*
X186708412Y-85751557D01*
X186897816Y-85655051D01*
X186963672Y-85607204D01*
X187069786Y-85530109D01*
X187069788Y-85530106D01*
X187069792Y-85530104D01*
X187220104Y-85379792D01*
X187220106Y-85379788D01*
X187220109Y-85379786D01*
X187345048Y-85207820D01*
X187345050Y-85207817D01*
X187345051Y-85207816D01*
X187349514Y-85199054D01*
X187397488Y-85148259D01*
X187465308Y-85131463D01*
X187531444Y-85153999D01*
X187570486Y-85199056D01*
X187574951Y-85207820D01*
X187699890Y-85379786D01*
X187850213Y-85530109D01*
X188022179Y-85655048D01*
X188022181Y-85655049D01*
X188022184Y-85655051D01*
X188211588Y-85751557D01*
X188413757Y-85817246D01*
X188612434Y-85848713D01*
X188675567Y-85878642D01*
X188680716Y-85883505D01*
X191339374Y-88542162D01*
X191457838Y-88660626D01*
X191597137Y-88753703D01*
X191597138Y-88753703D01*
X191597139Y-88753704D01*
X191632201Y-88768227D01*
X191751918Y-88817816D01*
X191850420Y-88837409D01*
X191916228Y-88850499D01*
X191916232Y-88850500D01*
X191916233Y-88850500D01*
X196583768Y-88850500D01*
X196583769Y-88850499D01*
X196638538Y-88839605D01*
X196748074Y-88817818D01*
X196748078Y-88817816D01*
X196748082Y-88817816D01*
X196793415Y-88799037D01*
X196902863Y-88753704D01*
X197042162Y-88660627D01*
X209815969Y-75886818D01*
X209877292Y-75853334D01*
X209903650Y-75850500D01*
X210916233Y-75850500D01*
X224764242Y-75850500D01*
X224831281Y-75870185D01*
X224851923Y-75886819D01*
X224995209Y-76030105D01*
X224995214Y-76030109D01*
X225160218Y-76149991D01*
X225202884Y-76205320D01*
X225208863Y-76274934D01*
X225176258Y-76336729D01*
X225160218Y-76350627D01*
X224995540Y-76470272D01*
X224995535Y-76470276D01*
X224845276Y-76620535D01*
X224845272Y-76620540D01*
X224720379Y-76792442D01*
X224623904Y-76981782D01*
X224558242Y-77183870D01*
X224558242Y-77183873D01*
X224547769Y-77250000D01*
X225595854Y-77250000D01*
X225557370Y-77316657D01*
X225525000Y-77437465D01*
X225525000Y-77562535D01*
X225557370Y-77683343D01*
X225595854Y-77750000D01*
X224547769Y-77750000D01*
X224558242Y-77816126D01*
X224558242Y-77816129D01*
X224623904Y-78018217D01*
X224720379Y-78207557D01*
X224845272Y-78379459D01*
X224845276Y-78379464D01*
X224995535Y-78529723D01*
X224995540Y-78529727D01*
X225160218Y-78649372D01*
X225202884Y-78704701D01*
X225208863Y-78774315D01*
X225176258Y-78836110D01*
X225160218Y-78850008D01*
X224995214Y-78969890D01*
X224995209Y-78969894D01*
X224851923Y-79113181D01*
X224790600Y-79146666D01*
X224764242Y-79149500D01*
X208416228Y-79149500D01*
X208251925Y-79182182D01*
X208251913Y-79182185D01*
X208206583Y-79200962D01*
X208097143Y-79246292D01*
X208097137Y-79246295D01*
X208097137Y-79246296D01*
X207957840Y-79339373D01*
X207957831Y-79339379D01*
X207957831Y-79339380D01*
X197184030Y-90113181D01*
X197122707Y-90146666D01*
X197096349Y-90149500D01*
X192416228Y-90149500D01*
X192251925Y-90182182D01*
X192251917Y-90182184D01*
X192097139Y-90246295D01*
X191957837Y-90339373D01*
X189294631Y-93002579D01*
X189233308Y-93036064D01*
X189187552Y-93037371D01*
X189148188Y-93031136D01*
X189106287Y-93024500D01*
X188893713Y-93024500D01*
X188845042Y-93032208D01*
X188683760Y-93057753D01*
X188481585Y-93123444D01*
X188292179Y-93219951D01*
X188120213Y-93344890D01*
X187969894Y-93495209D01*
X187969890Y-93495214D01*
X187850318Y-93659793D01*
X187794989Y-93702459D01*
X187725375Y-93708438D01*
X187663580Y-93675833D01*
X187649682Y-93659793D01*
X187530109Y-93495214D01*
X187530105Y-93495209D01*
X187379786Y-93344890D01*
X187207820Y-93219951D01*
X187018414Y-93123444D01*
X187018413Y-93123443D01*
X187018412Y-93123443D01*
X186816243Y-93057754D01*
X186816241Y-93057753D01*
X186816240Y-93057753D01*
X186654957Y-93032208D01*
X186606287Y-93024500D01*
X186393713Y-93024500D01*
X186345042Y-93032208D01*
X186183760Y-93057753D01*
X185981585Y-93123444D01*
X185792179Y-93219951D01*
X185620215Y-93344889D01*
X185481398Y-93483706D01*
X185420075Y-93517190D01*
X185350383Y-93512206D01*
X185294450Y-93470334D01*
X185288178Y-93461120D01*
X185192712Y-93306344D01*
X185068657Y-93182289D01*
X185068656Y-93182288D01*
X184973253Y-93123443D01*
X184919336Y-93090187D01*
X184919331Y-93090185D01*
X184884650Y-93078693D01*
X184752797Y-93035001D01*
X184752795Y-93035000D01*
X184650010Y-93024500D01*
X183349998Y-93024500D01*
X183349981Y-93024501D01*
X183247203Y-93035000D01*
X183247200Y-93035001D01*
X183080668Y-93090185D01*
X183080663Y-93090187D01*
X182931342Y-93182289D01*
X182807289Y-93306342D01*
X182715187Y-93455663D01*
X182715185Y-93455668D01*
X182710325Y-93470334D01*
X182660001Y-93622203D01*
X182660001Y-93622204D01*
X182660000Y-93622204D01*
X182649500Y-93724983D01*
X182649500Y-95275001D01*
X182649501Y-95275018D01*
X182660000Y-95377796D01*
X182660001Y-95377799D01*
X182715185Y-95544331D01*
X182715187Y-95544336D01*
X182726576Y-95562801D01*
X182807288Y-95693656D01*
X182931344Y-95817712D01*
X183080666Y-95909814D01*
X183164505Y-95937595D01*
X183184535Y-95951463D01*
X183206703Y-95961587D01*
X183212751Y-95970998D01*
X183221948Y-95977366D01*
X183231302Y-95999864D01*
X183244477Y-96020365D01*
X183246935Y-96037465D01*
X183248772Y-96041882D01*
X183249500Y-96055300D01*
X183249500Y-96137769D01*
X183229815Y-96204808D01*
X183213181Y-96225450D01*
X182217508Y-97221122D01*
X182156185Y-97254607D01*
X182110429Y-97255914D01*
X181975227Y-97234500D01*
X181975222Y-97234500D01*
X181754778Y-97234500D01*
X181682201Y-97245995D01*
X181537047Y-97268985D01*
X181327396Y-97337103D01*
X181327393Y-97337104D01*
X181130974Y-97437187D01*
X180952641Y-97566752D01*
X180952636Y-97566756D01*
X180796756Y-97722636D01*
X180796752Y-97722641D01*
X180667187Y-97900974D01*
X180567104Y-98097393D01*
X180567103Y-98097396D01*
X180498985Y-98307047D01*
X180464500Y-98524778D01*
X180464500Y-104110221D01*
X180498985Y-104327952D01*
X180567103Y-104537603D01*
X180567104Y-104537606D01*
X180667187Y-104734025D01*
X180796752Y-104912358D01*
X180796756Y-104912363D01*
X180952636Y-105068243D01*
X180952641Y-105068247D01*
X181108192Y-105181260D01*
X181130978Y-105197815D01*
X181259375Y-105263237D01*
X181327393Y-105297895D01*
X181327396Y-105297896D01*
X181432221Y-105331955D01*
X181537049Y-105366015D01*
X181754778Y-105400500D01*
X181754779Y-105400500D01*
X181975221Y-105400500D01*
X181975222Y-105400500D01*
X182192951Y-105366015D01*
X182402606Y-105297895D01*
X182599022Y-105197815D01*
X182777365Y-105068242D01*
X182933242Y-104912365D01*
X183062815Y-104734022D01*
X183162895Y-104537606D01*
X183231015Y-104327951D01*
X183265500Y-104110222D01*
X183265500Y-98524778D01*
X183244084Y-98389566D01*
X183253038Y-98320276D01*
X183278873Y-98282493D01*
X184582952Y-96978416D01*
X184632186Y-96904729D01*
X184665084Y-96855495D01*
X184721658Y-96718913D01*
X184750500Y-96573918D01*
X184750500Y-96055300D01*
X184770185Y-95988261D01*
X184822989Y-95942506D01*
X184835482Y-95937599D01*
X184919334Y-95909814D01*
X185068656Y-95817712D01*
X185192712Y-95693656D01*
X185284814Y-95544334D01*
X185284814Y-95544331D01*
X185288178Y-95538879D01*
X185340126Y-95492154D01*
X185409088Y-95480931D01*
X185473170Y-95508774D01*
X185481398Y-95516294D01*
X185620208Y-95655104D01*
X185698384Y-95711902D01*
X185741051Y-95767231D01*
X185749500Y-95812220D01*
X185749500Y-98286665D01*
X185735984Y-98342961D01*
X185647106Y-98517388D01*
X185647103Y-98517396D01*
X185578985Y-98727047D01*
X185544500Y-98944778D01*
X185544500Y-104110221D01*
X185578985Y-104327952D01*
X185647103Y-104537603D01*
X185647104Y-104537606D01*
X185747187Y-104734025D01*
X185876752Y-104912358D01*
X185876756Y-104912363D01*
X186032636Y-105068243D01*
X186032641Y-105068247D01*
X186188192Y-105181260D01*
X186210978Y-105197815D01*
X186339375Y-105263237D01*
X186407393Y-105297895D01*
X186407396Y-105297896D01*
X186512221Y-105331955D01*
X186617049Y-105366015D01*
X186834778Y-105400500D01*
X186834779Y-105400500D01*
X187055221Y-105400500D01*
X187055222Y-105400500D01*
X187272951Y-105366015D01*
X187482606Y-105297895D01*
X187679022Y-105197815D01*
X187857365Y-105068242D01*
X188013242Y-104912365D01*
X188142815Y-104734022D01*
X188242895Y-104537606D01*
X188311015Y-104327951D01*
X188345500Y-104110222D01*
X188345500Y-99967513D01*
X190625000Y-99967513D01*
X190625000Y-101317500D01*
X191476518Y-101317500D01*
X191465889Y-101335909D01*
X191425000Y-101488509D01*
X191425000Y-101646491D01*
X191465889Y-101799091D01*
X191476518Y-101817500D01*
X190625001Y-101817500D01*
X190625001Y-103167486D01*
X190635494Y-103270197D01*
X190690641Y-103436619D01*
X190690643Y-103436624D01*
X190782684Y-103585845D01*
X190906654Y-103709815D01*
X191055875Y-103801856D01*
X191055880Y-103801858D01*
X191222302Y-103857005D01*
X191222309Y-103857006D01*
X191325019Y-103867499D01*
X191774999Y-103867499D01*
X191775000Y-103867498D01*
X191775000Y-102115982D01*
X191793409Y-102126611D01*
X191946009Y-102167500D01*
X192103991Y-102167500D01*
X192256591Y-102126611D01*
X192275000Y-102115982D01*
X192275000Y-103867499D01*
X192724972Y-103867499D01*
X192724986Y-103867498D01*
X192827697Y-103857005D01*
X192994119Y-103801858D01*
X192994124Y-103801856D01*
X193143345Y-103709815D01*
X193267315Y-103585845D01*
X193359356Y-103436624D01*
X193359358Y-103436619D01*
X193414505Y-103270197D01*
X193414506Y-103270190D01*
X193424999Y-103167486D01*
X193425000Y-103167473D01*
X193425000Y-101817500D01*
X192573482Y-101817500D01*
X192584111Y-101799091D01*
X192625000Y-101646491D01*
X192625000Y-101488509D01*
X192584111Y-101335909D01*
X192573482Y-101317500D01*
X193424999Y-101317500D01*
X193424999Y-99967528D01*
X193424998Y-99967513D01*
X193414505Y-99864802D01*
X193359358Y-99698380D01*
X193359356Y-99698375D01*
X193267315Y-99549154D01*
X193143345Y-99425184D01*
X192994124Y-99333143D01*
X192994119Y-99333141D01*
X192827697Y-99277994D01*
X192827690Y-99277993D01*
X192724986Y-99267500D01*
X192275000Y-99267500D01*
X192275000Y-101019017D01*
X192256591Y-101008389D01*
X192103991Y-100967500D01*
X191946009Y-100967500D01*
X191793409Y-101008389D01*
X191775000Y-101019017D01*
X191775000Y-99267500D01*
X191325028Y-99267500D01*
X191325012Y-99267501D01*
X191222302Y-99277994D01*
X191055880Y-99333141D01*
X191055875Y-99333143D01*
X190906654Y-99425184D01*
X190782684Y-99549154D01*
X190690643Y-99698375D01*
X190690641Y-99698380D01*
X190635494Y-99864802D01*
X190635493Y-99864809D01*
X190625000Y-99967513D01*
X188345500Y-99967513D01*
X188345500Y-99389778D01*
X188345500Y-98944778D01*
X188311015Y-98727049D01*
X188262127Y-98576584D01*
X188242896Y-98517396D01*
X188242895Y-98517393D01*
X188202057Y-98437246D01*
X188142815Y-98320978D01*
X188114852Y-98282490D01*
X188013247Y-98142641D01*
X188013243Y-98142636D01*
X187857363Y-97986756D01*
X187857358Y-97986752D01*
X187679025Y-97857187D01*
X187679024Y-97857186D01*
X187679022Y-97857185D01*
X187616096Y-97825122D01*
X187482606Y-97757104D01*
X187482603Y-97757103D01*
X187336182Y-97709529D01*
X187278507Y-97670092D01*
X187251308Y-97605733D01*
X187250500Y-97591598D01*
X187250500Y-95812220D01*
X187270185Y-95745181D01*
X187301614Y-95711902D01*
X187379792Y-95655104D01*
X187530104Y-95504792D01*
X187649683Y-95340204D01*
X187705011Y-95297540D01*
X187774624Y-95291561D01*
X187836420Y-95324166D01*
X187850313Y-95340199D01*
X187907677Y-95419154D01*
X187969896Y-95504792D01*
X188120213Y-95655109D01*
X188292179Y-95780048D01*
X188292181Y-95780049D01*
X188292184Y-95780051D01*
X188481588Y-95876557D01*
X188683757Y-95942246D01*
X188893713Y-95975500D01*
X188893714Y-95975500D01*
X189106286Y-95975500D01*
X189106287Y-95975500D01*
X189316243Y-95942246D01*
X189518412Y-95876557D01*
X189707816Y-95780051D01*
X189755811Y-95745181D01*
X189879786Y-95655109D01*
X189879788Y-95655106D01*
X189879792Y-95655104D01*
X190030104Y-95504792D01*
X190149991Y-95339779D01*
X190205320Y-95297115D01*
X190274933Y-95291136D01*
X190336729Y-95323741D01*
X190350627Y-95339781D01*
X190470272Y-95504459D01*
X190470276Y-95504464D01*
X190620535Y-95654723D01*
X190620540Y-95654727D01*
X190792442Y-95779620D01*
X190981782Y-95876095D01*
X191183871Y-95941757D01*
X191250000Y-95952231D01*
X191250000Y-94904145D01*
X191316657Y-94942630D01*
X191437465Y-94975000D01*
X191562535Y-94975000D01*
X191683343Y-94942630D01*
X191750000Y-94904145D01*
X191750000Y-95952230D01*
X191816126Y-95941757D01*
X191816129Y-95941757D01*
X192018217Y-95876095D01*
X192207557Y-95779620D01*
X192379459Y-95654727D01*
X192379464Y-95654723D01*
X192529721Y-95504466D01*
X192649371Y-95339781D01*
X192704701Y-95297115D01*
X192774314Y-95291136D01*
X192836110Y-95323741D01*
X192850008Y-95339781D01*
X192969890Y-95504785D01*
X192969894Y-95504790D01*
X193120213Y-95655109D01*
X193292179Y-95780048D01*
X193292181Y-95780049D01*
X193292184Y-95780051D01*
X193481588Y-95876557D01*
X193683757Y-95942246D01*
X193893713Y-95975500D01*
X193893714Y-95975500D01*
X194106286Y-95975500D01*
X194106287Y-95975500D01*
X194316243Y-95942246D01*
X194518412Y-95876557D01*
X194707816Y-95780051D01*
X194755811Y-95745181D01*
X194879786Y-95655109D01*
X194879788Y-95655106D01*
X194879792Y-95655104D01*
X195030104Y-95504792D01*
X195149683Y-95340204D01*
X195205011Y-95297540D01*
X195274624Y-95291561D01*
X195336420Y-95324166D01*
X195350313Y-95340199D01*
X195407677Y-95419154D01*
X195469896Y-95504792D01*
X195620213Y-95655109D01*
X195792179Y-95780048D01*
X195792181Y-95780049D01*
X195792184Y-95780051D01*
X195981588Y-95876557D01*
X196183757Y-95942246D01*
X196393713Y-95975500D01*
X196393714Y-95975500D01*
X196606286Y-95975500D01*
X196606287Y-95975500D01*
X196816243Y-95942246D01*
X197018412Y-95876557D01*
X197207816Y-95780051D01*
X197255811Y-95745181D01*
X197379786Y-95655109D01*
X197379788Y-95655106D01*
X197379792Y-95655104D01*
X197530104Y-95504792D01*
X197530106Y-95504788D01*
X197530109Y-95504786D01*
X197655048Y-95332820D01*
X197655047Y-95332820D01*
X197655051Y-95332816D01*
X197751557Y-95143412D01*
X197817246Y-94941243D01*
X197850500Y-94731287D01*
X197850500Y-94268713D01*
X197817246Y-94058757D01*
X197751557Y-93856588D01*
X197655051Y-93667184D01*
X197655049Y-93667181D01*
X197655048Y-93667179D01*
X197530109Y-93495213D01*
X197379786Y-93344890D01*
X197207820Y-93219951D01*
X197018414Y-93123444D01*
X197018413Y-93123443D01*
X197018412Y-93123443D01*
X196816243Y-93057754D01*
X196816241Y-93057753D01*
X196816240Y-93057753D01*
X196654957Y-93032208D01*
X196606287Y-93024500D01*
X196393713Y-93024500D01*
X196345042Y-93032208D01*
X196183760Y-93057753D01*
X195981585Y-93123444D01*
X195792179Y-93219951D01*
X195620213Y-93344890D01*
X195469894Y-93495209D01*
X195469890Y-93495214D01*
X195350318Y-93659793D01*
X195294989Y-93702459D01*
X195225375Y-93708438D01*
X195163580Y-93675833D01*
X195149682Y-93659793D01*
X195030109Y-93495214D01*
X195030105Y-93495209D01*
X194879786Y-93344890D01*
X194707820Y-93219951D01*
X194518414Y-93123444D01*
X194518413Y-93123443D01*
X194518412Y-93123443D01*
X194316243Y-93057754D01*
X194316241Y-93057753D01*
X194316240Y-93057753D01*
X194154957Y-93032208D01*
X194106287Y-93024500D01*
X193893713Y-93024500D01*
X193845042Y-93032208D01*
X193683760Y-93057753D01*
X193481585Y-93123444D01*
X193292179Y-93219951D01*
X193120213Y-93344890D01*
X192969894Y-93495209D01*
X192969890Y-93495214D01*
X192850008Y-93660218D01*
X192794678Y-93702884D01*
X192725065Y-93708863D01*
X192663270Y-93676257D01*
X192649372Y-93660218D01*
X192529727Y-93495540D01*
X192529723Y-93495535D01*
X192379464Y-93345276D01*
X192379459Y-93345272D01*
X192207557Y-93220379D01*
X192018215Y-93123903D01*
X191879069Y-93078693D01*
X191821393Y-93039256D01*
X191794194Y-92974898D01*
X191806108Y-92906051D01*
X191829699Y-92873088D01*
X192815969Y-91886819D01*
X192877292Y-91853334D01*
X192903650Y-91850500D01*
X197583768Y-91850500D01*
X197583769Y-91850499D01*
X197638538Y-91839605D01*
X197748074Y-91817818D01*
X197748078Y-91817816D01*
X197748082Y-91817816D01*
X197793415Y-91799037D01*
X197902863Y-91753704D01*
X198042162Y-91660627D01*
X208815969Y-80886818D01*
X208877292Y-80853334D01*
X208903650Y-80850500D01*
X224764242Y-80850500D01*
X224793682Y-80859144D01*
X224823669Y-80865668D01*
X224828684Y-80869422D01*
X224831281Y-80870185D01*
X224851922Y-80886818D01*
X224983705Y-81018601D01*
X225017190Y-81079924D01*
X225012206Y-81149616D01*
X224970334Y-81205549D01*
X224961121Y-81211821D01*
X224806342Y-81307289D01*
X224682289Y-81431342D01*
X224590187Y-81580663D01*
X224590186Y-81580666D01*
X224535001Y-81747203D01*
X224535001Y-81747204D01*
X224535000Y-81747204D01*
X224524500Y-81849983D01*
X224524500Y-83150001D01*
X224524501Y-83150018D01*
X224535000Y-83252796D01*
X224535001Y-83252799D01*
X224585984Y-83406654D01*
X224590186Y-83419334D01*
X224682288Y-83568656D01*
X224806344Y-83692712D01*
X224955666Y-83784814D01*
X225122203Y-83839999D01*
X225224991Y-83850500D01*
X226775008Y-83850499D01*
X226877797Y-83839999D01*
X227044334Y-83784814D01*
X227193656Y-83692712D01*
X227317712Y-83568656D01*
X227409814Y-83419334D01*
X227464999Y-83252797D01*
X227475500Y-83150009D01*
X227475499Y-81849992D01*
X227464999Y-81747203D01*
X227409814Y-81580666D01*
X227317712Y-81431344D01*
X227193656Y-81307288D01*
X227044334Y-81215186D01*
X227044333Y-81215185D01*
X227038878Y-81211821D01*
X227023324Y-81194528D01*
X227004708Y-81180592D01*
X227000399Y-81169040D01*
X226992154Y-81159873D01*
X226988418Y-81136918D01*
X226980291Y-81115128D01*
X226982911Y-81103080D01*
X226980931Y-81090910D01*
X226990199Y-81069578D01*
X226995143Y-81046855D01*
X227006893Y-81031157D01*
X227008775Y-81026828D01*
X227016272Y-81018623D01*
X227148079Y-80886816D01*
X227209400Y-80853334D01*
X227235758Y-80850500D01*
X230096349Y-80850500D01*
X230163388Y-80870185D01*
X230184030Y-80886819D01*
X235013181Y-85715970D01*
X235046666Y-85777293D01*
X235049500Y-85803651D01*
X235049500Y-92054928D01*
X235029815Y-92121967D01*
X235013181Y-92142609D01*
X233062609Y-94093181D01*
X233001286Y-94126666D01*
X232974928Y-94129500D01*
X230801323Y-94129500D01*
X230734284Y-94109815D01*
X230728438Y-94105819D01*
X230592500Y-94007055D01*
X230535691Y-93978109D01*
X230422593Y-93920482D01*
X230371800Y-93872510D01*
X230355005Y-93804689D01*
X230377542Y-93738554D01*
X230422593Y-93699517D01*
X230592501Y-93612944D01*
X230612912Y-93598114D01*
X230752246Y-93496884D01*
X230752248Y-93496881D01*
X230752252Y-93496879D01*
X230891879Y-93357252D01*
X230891881Y-93357248D01*
X230891884Y-93357246D01*
X230991633Y-93219951D01*
X231007944Y-93197501D01*
X231097591Y-93021561D01*
X231158610Y-92833763D01*
X231167562Y-92777242D01*
X231189500Y-92638736D01*
X231189500Y-92441263D01*
X231158610Y-92246236D01*
X231118232Y-92121967D01*
X231097591Y-92058439D01*
X231007944Y-91882499D01*
X230960951Y-91817818D01*
X230891884Y-91722753D01*
X230752246Y-91583115D01*
X230592505Y-91467058D01*
X230586119Y-91463804D01*
X230422593Y-91380482D01*
X230371800Y-91332510D01*
X230355005Y-91264689D01*
X230377542Y-91198554D01*
X230422593Y-91159517D01*
X230592501Y-91072944D01*
X230612912Y-91058114D01*
X230752246Y-90956884D01*
X230752248Y-90956881D01*
X230752252Y-90956879D01*
X230891879Y-90817252D01*
X230891881Y-90817248D01*
X230891884Y-90817246D01*
X230942779Y-90747192D01*
X231007944Y-90657501D01*
X231097591Y-90481561D01*
X231158610Y-90293763D01*
X231166128Y-90246295D01*
X231189500Y-90098736D01*
X231189500Y-89901263D01*
X231158610Y-89706236D01*
X231138270Y-89643637D01*
X231097591Y-89518439D01*
X231007944Y-89342499D01*
X230984962Y-89310867D01*
X230891884Y-89182753D01*
X230752246Y-89043115D01*
X230592504Y-88927058D01*
X230592503Y-88927057D01*
X230592501Y-88927056D01*
X230416561Y-88837409D01*
X230416558Y-88837408D01*
X230228763Y-88776389D01*
X230033736Y-88745500D01*
X230033731Y-88745500D01*
X229836269Y-88745500D01*
X229836264Y-88745500D01*
X229641236Y-88776389D01*
X229453441Y-88837408D01*
X229277495Y-88927058D01*
X229117753Y-89043115D01*
X228978115Y-89182753D01*
X228862058Y-89342495D01*
X228772408Y-89518441D01*
X228711389Y-89706236D01*
X228680500Y-89901263D01*
X228680500Y-90098736D01*
X228711389Y-90293763D01*
X228772408Y-90481558D01*
X228772409Y-90481561D01*
X228862056Y-90657501D01*
X228862058Y-90657504D01*
X228978115Y-90817246D01*
X229117753Y-90956884D01*
X229267234Y-91065486D01*
X229277499Y-91072944D01*
X229447404Y-91159516D01*
X229498199Y-91207490D01*
X229514994Y-91275311D01*
X229492456Y-91341446D01*
X229447404Y-91380483D01*
X229290321Y-91460522D01*
X229277495Y-91467058D01*
X229117753Y-91583115D01*
X228978115Y-91722753D01*
X228862058Y-91882495D01*
X228772408Y-92058441D01*
X228711389Y-92246236D01*
X228680500Y-92441263D01*
X228680500Y-92638736D01*
X228711389Y-92833763D01*
X228749230Y-92950223D01*
X228772409Y-93021561D01*
X228854305Y-93182289D01*
X228862058Y-93197504D01*
X228978115Y-93357246D01*
X229117753Y-93496884D01*
X229267234Y-93605486D01*
X229277499Y-93612944D01*
X229447404Y-93699516D01*
X229498199Y-93747490D01*
X229514994Y-93815311D01*
X229492456Y-93881446D01*
X229447404Y-93920483D01*
X229290321Y-94000522D01*
X229277495Y-94007058D01*
X229117753Y-94123115D01*
X228978115Y-94262753D01*
X228862058Y-94422495D01*
X228772408Y-94598441D01*
X228711389Y-94786236D01*
X228680500Y-94981263D01*
X228680500Y-95178736D01*
X228711389Y-95373763D01*
X228770563Y-95555880D01*
X228772409Y-95561561D01*
X228845398Y-95704808D01*
X228862058Y-95737504D01*
X228978115Y-95897246D01*
X229117753Y-96036884D01*
X229277494Y-96152941D01*
X229277496Y-96152942D01*
X229277499Y-96152944D01*
X229447956Y-96239797D01*
X229498749Y-96287768D01*
X229515544Y-96355589D01*
X229493007Y-96421724D01*
X229447954Y-96460763D01*
X229277767Y-96547479D01*
X229277760Y-96547483D01*
X229242010Y-96573456D01*
X229242010Y-96573457D01*
X229805591Y-97137037D01*
X229742007Y-97154075D01*
X229627993Y-97219901D01*
X229534901Y-97312993D01*
X229469075Y-97427007D01*
X229452037Y-97490590D01*
X228888457Y-96927010D01*
X228888456Y-96927010D01*
X228862483Y-96962760D01*
X228862482Y-96962762D01*
X228772873Y-97138626D01*
X228711876Y-97326353D01*
X228681000Y-97521302D01*
X228681000Y-97718693D01*
X228680999Y-97718695D01*
X228711876Y-97913646D01*
X228772873Y-98101373D01*
X228862483Y-98277239D01*
X228888457Y-98312988D01*
X228888457Y-98312989D01*
X229452037Y-97749409D01*
X229469075Y-97812993D01*
X229534901Y-97927007D01*
X229627993Y-98020099D01*
X229742007Y-98085925D01*
X229805590Y-98102962D01*
X229242009Y-98666541D01*
X229242010Y-98666542D01*
X229277755Y-98692512D01*
X229277768Y-98692520D01*
X229447953Y-98779235D01*
X229498749Y-98827210D01*
X229515544Y-98895031D01*
X229493006Y-98961166D01*
X229447954Y-99000203D01*
X229286189Y-99082627D01*
X229277495Y-99087058D01*
X229117753Y-99203115D01*
X228978115Y-99342753D01*
X228862058Y-99502495D01*
X228772408Y-99678441D01*
X228711389Y-99866236D01*
X228680500Y-100061263D01*
X228680500Y-100084770D01*
X228660815Y-100151809D01*
X228608011Y-100197564D01*
X228538853Y-100207508D01*
X228475297Y-100178483D01*
X228468819Y-100172451D01*
X225900485Y-97604117D01*
X213213421Y-84917052D01*
X213213414Y-84917046D01*
X213130447Y-84861610D01*
X213130446Y-84861610D01*
X213090501Y-84834919D01*
X213090488Y-84834912D01*
X212953917Y-84778343D01*
X212953907Y-84778340D01*
X212808920Y-84749500D01*
X212808918Y-84749500D01*
X207426082Y-84749500D01*
X207426080Y-84749500D01*
X207281092Y-84778340D01*
X207281082Y-84778343D01*
X207144511Y-84834912D01*
X207144498Y-84834919D01*
X207021584Y-84917048D01*
X207021580Y-84917051D01*
X203417050Y-88521581D01*
X203417048Y-88521584D01*
X203403299Y-88542162D01*
X203403297Y-88542163D01*
X203403297Y-88542164D01*
X203334916Y-88644503D01*
X203334914Y-88644506D01*
X203278343Y-88781082D01*
X203278340Y-88781092D01*
X203249500Y-88926079D01*
X203249500Y-95637769D01*
X203229815Y-95704808D01*
X203213181Y-95725450D01*
X200417052Y-98521578D01*
X200417049Y-98521581D01*
X200380298Y-98576583D01*
X200380299Y-98576584D01*
X200334913Y-98644508D01*
X200278343Y-98781082D01*
X200278340Y-98781092D01*
X200249500Y-98926079D01*
X200249500Y-106137770D01*
X200229815Y-106204809D01*
X200213181Y-106225451D01*
X184667046Y-121771585D01*
X184662534Y-121778340D01*
X184662529Y-121778347D01*
X184584916Y-121894502D01*
X184584914Y-121894506D01*
X184528343Y-122031082D01*
X184528340Y-122031092D01*
X184499500Y-122176079D01*
X184499500Y-140887779D01*
X184479815Y-140954818D01*
X184448385Y-140988097D01*
X184370211Y-141044893D01*
X184231398Y-141183706D01*
X184170075Y-141217190D01*
X184100383Y-141212206D01*
X184044450Y-141170334D01*
X184038178Y-141161120D01*
X183942712Y-141006344D01*
X183818657Y-140882289D01*
X183818656Y-140882288D01*
X183723998Y-140823903D01*
X183669336Y-140790187D01*
X183669331Y-140790185D01*
X183649966Y-140783768D01*
X183502797Y-140735001D01*
X183502795Y-140735000D01*
X183400010Y-140724500D01*
X182099998Y-140724500D01*
X182099981Y-140724501D01*
X181997203Y-140735000D01*
X181997200Y-140735001D01*
X181830668Y-140790185D01*
X181830663Y-140790187D01*
X181681342Y-140882289D01*
X181557289Y-141006342D01*
X181465187Y-141155663D01*
X181465185Y-141155668D01*
X181446450Y-141212206D01*
X181410001Y-141322203D01*
X181410001Y-141322204D01*
X181410000Y-141322204D01*
X181399500Y-141424983D01*
X181399500Y-142975001D01*
X181399501Y-142975018D01*
X181410000Y-143077796D01*
X181410001Y-143077799D01*
X181465185Y-143244331D01*
X181465187Y-143244336D01*
X181499567Y-143300075D01*
X181557288Y-143393656D01*
X181681344Y-143517712D01*
X181830666Y-143609814D01*
X181997203Y-143664999D01*
X182099991Y-143675500D01*
X183400008Y-143675499D01*
X183502797Y-143664999D01*
X183669334Y-143609814D01*
X183818656Y-143517712D01*
X183942712Y-143393656D01*
X184034814Y-143244334D01*
X184034814Y-143244331D01*
X184038178Y-143238879D01*
X184090126Y-143192154D01*
X184159088Y-143180931D01*
X184223170Y-143208774D01*
X184231398Y-143216294D01*
X184370213Y-143355109D01*
X184542179Y-143480048D01*
X184542181Y-143480049D01*
X184542184Y-143480051D01*
X184731588Y-143576557D01*
X184933757Y-143642246D01*
X185143713Y-143675500D01*
X185143714Y-143675500D01*
X185356286Y-143675500D01*
X185356287Y-143675500D01*
X185566243Y-143642246D01*
X185768412Y-143576557D01*
X185957816Y-143480051D01*
X185994092Y-143453695D01*
X186129786Y-143355109D01*
X186129788Y-143355106D01*
X186129792Y-143355104D01*
X186280104Y-143204792D01*
X186399683Y-143040204D01*
X186455011Y-142997540D01*
X186524624Y-142991561D01*
X186586420Y-143024166D01*
X186600313Y-143040199D01*
X186691081Y-143165131D01*
X186719896Y-143204792D01*
X186870213Y-143355109D01*
X187042179Y-143480048D01*
X187042181Y-143480049D01*
X187042184Y-143480051D01*
X187231588Y-143576557D01*
X187433757Y-143642246D01*
X187643713Y-143675500D01*
X187643714Y-143675500D01*
X187856286Y-143675500D01*
X187856287Y-143675500D01*
X188066243Y-143642246D01*
X188268412Y-143576557D01*
X188457816Y-143480051D01*
X188494092Y-143453695D01*
X188629786Y-143355109D01*
X188629788Y-143355106D01*
X188629792Y-143355104D01*
X188780104Y-143204792D01*
X188899991Y-143039779D01*
X188955320Y-142997115D01*
X189024933Y-142991136D01*
X189086729Y-143023741D01*
X189100627Y-143039781D01*
X189220272Y-143204459D01*
X189220276Y-143204464D01*
X189370535Y-143354723D01*
X189370540Y-143354727D01*
X189542442Y-143479620D01*
X189731782Y-143576095D01*
X189933871Y-143641757D01*
X190000000Y-143652231D01*
X190000000Y-142604145D01*
X190066657Y-142642630D01*
X190187465Y-142675000D01*
X190312535Y-142675000D01*
X190433343Y-142642630D01*
X190500000Y-142604145D01*
X190500000Y-143652230D01*
X190566126Y-143641757D01*
X190566129Y-143641757D01*
X190768217Y-143576095D01*
X190957557Y-143479620D01*
X191129459Y-143354727D01*
X191129464Y-143354723D01*
X191279723Y-143204464D01*
X191279727Y-143204459D01*
X191404620Y-143032557D01*
X191501095Y-142843217D01*
X191566757Y-142641130D01*
X191566757Y-142641127D01*
X191597030Y-142450000D01*
X190654146Y-142450000D01*
X190692630Y-142383343D01*
X190725000Y-142262535D01*
X190725000Y-142137465D01*
X190692630Y-142016657D01*
X190654146Y-141950000D01*
X191597030Y-141950000D01*
X191566757Y-141758872D01*
X191566757Y-141758869D01*
X191501095Y-141556782D01*
X191404620Y-141367442D01*
X191279727Y-141195540D01*
X191279723Y-141195535D01*
X191129464Y-141045276D01*
X191129459Y-141045272D01*
X190957557Y-140920379D01*
X190768215Y-140823903D01*
X190566124Y-140758241D01*
X190500000Y-140747768D01*
X190500000Y-141795854D01*
X190433343Y-141757370D01*
X190312535Y-141725000D01*
X190187465Y-141725000D01*
X190066657Y-141757370D01*
X190000000Y-141795854D01*
X190000000Y-140747768D01*
X189999999Y-140747768D01*
X189933875Y-140758241D01*
X189731784Y-140823903D01*
X189542442Y-140920379D01*
X189370540Y-141045272D01*
X189370535Y-141045276D01*
X189220276Y-141195535D01*
X189220272Y-141195540D01*
X189100627Y-141360218D01*
X189045297Y-141402884D01*
X188975684Y-141408863D01*
X188913889Y-141376257D01*
X188899991Y-141360218D01*
X188780109Y-141195214D01*
X188780105Y-141195209D01*
X188629794Y-141044898D01*
X188629788Y-141044893D01*
X188551615Y-140988097D01*
X188508949Y-140932767D01*
X188500500Y-140887779D01*
X188500500Y-124060000D01*
X196223391Y-124060000D01*
X197184314Y-124060000D01*
X197179920Y-124064394D01*
X197127259Y-124155606D01*
X197100000Y-124257339D01*
X197100000Y-124362661D01*
X197127259Y-124464394D01*
X197179920Y-124555606D01*
X197184314Y-124560000D01*
X196223391Y-124560000D01*
X196232009Y-124614413D01*
X196295244Y-124809029D01*
X196388140Y-124991349D01*
X196508417Y-125156894D01*
X196508417Y-125156895D01*
X196653104Y-125301582D01*
X196818650Y-125421859D01*
X197000968Y-125514754D01*
X197195578Y-125577988D01*
X197250000Y-125586607D01*
X197250000Y-124625686D01*
X197254394Y-124630080D01*
X197345606Y-124682741D01*
X197447339Y-124710000D01*
X197552661Y-124710000D01*
X197654394Y-124682741D01*
X197745606Y-124630080D01*
X197750000Y-124625686D01*
X197750000Y-125586606D01*
X197804421Y-125577988D01*
X197999031Y-125514754D01*
X198181349Y-125421859D01*
X198346894Y-125301582D01*
X198346895Y-125301582D01*
X198491582Y-125156895D01*
X198491582Y-125156894D01*
X198611859Y-124991349D01*
X198704755Y-124809029D01*
X198767990Y-124614413D01*
X198776609Y-124560000D01*
X197815686Y-124560000D01*
X197820080Y-124555606D01*
X197872741Y-124464394D01*
X197900000Y-124362661D01*
X197900000Y-124257339D01*
X197872741Y-124155606D01*
X197820080Y-124064394D01*
X197815686Y-124060000D01*
X198776609Y-124060000D01*
X198767990Y-124005586D01*
X198704755Y-123810970D01*
X198611859Y-123628650D01*
X198491582Y-123463105D01*
X198491582Y-123463104D01*
X198346895Y-123318417D01*
X198181349Y-123198140D01*
X197999029Y-123105244D01*
X197804413Y-123042009D01*
X197750000Y-123033390D01*
X197750000Y-123994314D01*
X197745606Y-123989920D01*
X197654394Y-123937259D01*
X197552661Y-123910000D01*
X197447339Y-123910000D01*
X197345606Y-123937259D01*
X197254394Y-123989920D01*
X197250000Y-123994314D01*
X197250000Y-123033390D01*
X197195586Y-123042009D01*
X197000970Y-123105244D01*
X196818650Y-123198140D01*
X196653105Y-123318417D01*
X196653104Y-123318417D01*
X196508417Y-123463104D01*
X196508417Y-123463105D01*
X196388140Y-123628650D01*
X196295244Y-123810970D01*
X196232009Y-124005586D01*
X196223391Y-124060000D01*
X188500500Y-124060000D01*
X188500500Y-122112230D01*
X188520185Y-122045191D01*
X188536819Y-122024549D01*
X195642929Y-114918439D01*
X202847346Y-107714022D01*
X202896580Y-107640335D01*
X202929478Y-107591101D01*
X202986052Y-107454519D01*
X202999764Y-107385586D01*
X203014894Y-107309526D01*
X203014894Y-100248250D01*
X203034579Y-100181211D01*
X203051213Y-100160569D01*
X206082948Y-97128834D01*
X206082952Y-97128830D01*
X206147182Y-97032701D01*
X206165084Y-97005909D01*
X206221658Y-96869327D01*
X206234902Y-96802748D01*
X206250500Y-96724334D01*
X206250500Y-89862230D01*
X206270185Y-89795191D01*
X206286819Y-89774549D01*
X208274549Y-87786819D01*
X208335872Y-87753334D01*
X208362230Y-87750500D01*
X211332770Y-87750500D01*
X211399809Y-87770185D01*
X211420451Y-87786819D01*
X228648731Y-105015098D01*
X228682216Y-105076421D01*
X228683523Y-105122176D01*
X228680500Y-105141263D01*
X228680500Y-105338736D01*
X228711389Y-105533763D01*
X228759615Y-105682185D01*
X228772409Y-105721561D01*
X228832438Y-105839373D01*
X228862058Y-105897504D01*
X228978115Y-106057246D01*
X229117753Y-106196884D01*
X229267234Y-106305486D01*
X229277499Y-106312944D01*
X229447404Y-106399516D01*
X229498199Y-106447490D01*
X229514994Y-106515311D01*
X229492456Y-106581446D01*
X229447404Y-106620483D01*
X229290321Y-106700522D01*
X229277495Y-106707058D01*
X229117753Y-106823115D01*
X228978115Y-106962753D01*
X228862058Y-107122495D01*
X228772408Y-107298441D01*
X228711389Y-107486236D01*
X228680500Y-107681263D01*
X228680500Y-107878736D01*
X228711389Y-108073763D01*
X228732388Y-108138389D01*
X228772409Y-108261561D01*
X228862056Y-108437501D01*
X228862058Y-108437504D01*
X228978115Y-108597246D01*
X229117753Y-108736884D01*
X229267234Y-108845486D01*
X229277499Y-108852944D01*
X229447404Y-108939516D01*
X229498199Y-108987490D01*
X229514994Y-109055311D01*
X229492456Y-109121446D01*
X229447404Y-109160483D01*
X229418943Y-109174986D01*
X229277495Y-109247058D01*
X229117753Y-109363115D01*
X228978115Y-109502753D01*
X228862058Y-109662495D01*
X228772408Y-109838441D01*
X228711389Y-110026236D01*
X228680500Y-110221263D01*
X228680500Y-110418736D01*
X228711389Y-110613763D01*
X228772408Y-110801558D01*
X228772409Y-110801561D01*
X228862056Y-110977501D01*
X228862058Y-110977504D01*
X228978115Y-111137246D01*
X229117753Y-111276884D01*
X229258488Y-111379132D01*
X229277499Y-111392944D01*
X229447404Y-111479516D01*
X229498199Y-111527490D01*
X229514994Y-111595311D01*
X229492456Y-111661446D01*
X229447404Y-111700483D01*
X229290321Y-111780522D01*
X229277495Y-111787058D01*
X229117753Y-111903115D01*
X228978115Y-112042753D01*
X228862058Y-112202495D01*
X228772408Y-112378441D01*
X228711389Y-112566236D01*
X228680500Y-112761263D01*
X228680500Y-112958736D01*
X228711389Y-113153763D01*
X228772408Y-113341558D01*
X228772409Y-113341561D01*
X228862056Y-113517501D01*
X228862058Y-113517504D01*
X228978115Y-113677246D01*
X229117753Y-113816884D01*
X229267234Y-113925486D01*
X229277499Y-113932944D01*
X229447404Y-114019516D01*
X229498199Y-114067490D01*
X229514994Y-114135311D01*
X229492456Y-114201446D01*
X229447404Y-114240483D01*
X229290321Y-114320522D01*
X229277495Y-114327058D01*
X229117753Y-114443115D01*
X228978115Y-114582753D01*
X228862058Y-114742495D01*
X228772408Y-114918441D01*
X228711389Y-115106236D01*
X228680500Y-115301263D01*
X228680500Y-115498736D01*
X228711389Y-115693763D01*
X228760928Y-115846226D01*
X228772409Y-115881561D01*
X228862056Y-116057501D01*
X228862058Y-116057504D01*
X228978115Y-116217246D01*
X229117753Y-116356884D01*
X229263372Y-116462680D01*
X229277499Y-116472944D01*
X229447404Y-116559516D01*
X229498199Y-116607490D01*
X229514994Y-116675311D01*
X229492456Y-116741446D01*
X229447404Y-116780483D01*
X229290321Y-116860522D01*
X229277495Y-116867058D01*
X229117753Y-116983115D01*
X228978115Y-117122753D01*
X228862058Y-117282495D01*
X228862056Y-117282499D01*
X228781550Y-117440500D01*
X228772408Y-117458441D01*
X228711389Y-117646236D01*
X228680500Y-117841263D01*
X228680500Y-118038736D01*
X228711389Y-118233763D01*
X228772408Y-118421558D01*
X228772409Y-118421561D01*
X228862056Y-118597501D01*
X228862058Y-118597504D01*
X228978115Y-118757246D01*
X229117753Y-118896884D01*
X229267234Y-119005486D01*
X229277499Y-119012944D01*
X229447404Y-119099516D01*
X229498199Y-119147490D01*
X229514994Y-119215311D01*
X229492456Y-119281446D01*
X229447404Y-119320483D01*
X229290321Y-119400522D01*
X229277495Y-119407058D01*
X229117753Y-119523115D01*
X228978115Y-119662753D01*
X228862058Y-119822495D01*
X228772408Y-119998441D01*
X228711389Y-120186236D01*
X228680500Y-120381263D01*
X228680500Y-120578736D01*
X228711389Y-120773763D01*
X228762618Y-120931428D01*
X228772409Y-120961561D01*
X228854587Y-121122842D01*
X228862058Y-121137504D01*
X228978115Y-121297246D01*
X229117753Y-121436884D01*
X229250746Y-121533507D01*
X229277499Y-121552944D01*
X229447404Y-121639516D01*
X229498199Y-121687490D01*
X229514994Y-121755311D01*
X229492456Y-121821446D01*
X229447404Y-121860483D01*
X229416798Y-121876079D01*
X229277495Y-121947058D01*
X229117753Y-122063115D01*
X228978115Y-122202753D01*
X228862058Y-122362495D01*
X228772408Y-122538441D01*
X228711389Y-122726236D01*
X228680500Y-122921263D01*
X228680500Y-123118736D01*
X228711389Y-123313763D01*
X228759914Y-123463105D01*
X228772409Y-123501561D01*
X228837165Y-123628650D01*
X228862058Y-123677504D01*
X228978115Y-123837246D01*
X229117753Y-123976884D01*
X229232155Y-124060000D01*
X229277499Y-124092944D01*
X229453439Y-124182591D01*
X229578637Y-124223270D01*
X229641236Y-124243610D01*
X229836264Y-124274500D01*
X229836269Y-124274500D01*
X230033736Y-124274500D01*
X230228763Y-124243610D01*
X230416561Y-124182591D01*
X230471869Y-124154409D01*
X230540534Y-124141512D01*
X230605275Y-124167786D01*
X230615844Y-124177212D01*
X231213181Y-124774549D01*
X231246666Y-124835872D01*
X231249500Y-124862230D01*
X231249500Y-126130442D01*
X231229815Y-126197481D01*
X231177011Y-126243236D01*
X231107853Y-126253180D01*
X231044297Y-126224155D01*
X231037819Y-126218123D01*
X230904786Y-126085090D01*
X230732820Y-125960151D01*
X230543414Y-125863644D01*
X230543413Y-125863643D01*
X230543412Y-125863643D01*
X230341243Y-125797954D01*
X230341241Y-125797953D01*
X230341240Y-125797953D01*
X230179957Y-125772408D01*
X230131287Y-125764700D01*
X229918713Y-125764700D01*
X229870042Y-125772408D01*
X229708760Y-125797953D01*
X229506585Y-125863644D01*
X229317179Y-125960151D01*
X229145213Y-126085090D01*
X228994890Y-126235413D01*
X228869951Y-126407379D01*
X228773444Y-126596785D01*
X228707753Y-126798960D01*
X228674500Y-127008913D01*
X228674500Y-127221486D01*
X228707753Y-127431439D01*
X228773444Y-127633614D01*
X228869951Y-127823020D01*
X228994890Y-127994986D01*
X229145213Y-128145309D01*
X229317179Y-128270248D01*
X229317181Y-128270249D01*
X229317184Y-128270251D01*
X229506588Y-128366757D01*
X229708757Y-128432446D01*
X229918713Y-128465700D01*
X229918714Y-128465700D01*
X230131286Y-128465700D01*
X230131287Y-128465700D01*
X230341243Y-128432446D01*
X230543412Y-128366757D01*
X230732816Y-128270251D01*
X230754789Y-128254286D01*
X230904786Y-128145309D01*
X230904788Y-128145306D01*
X230904792Y-128145304D01*
X231037819Y-128012277D01*
X231099142Y-127978792D01*
X231168834Y-127983776D01*
X231224767Y-128025648D01*
X231249184Y-128091112D01*
X231249500Y-128099958D01*
X231249500Y-139587769D01*
X231229815Y-139654808D01*
X231213181Y-139675450D01*
X230300449Y-140588181D01*
X230239126Y-140621666D01*
X230212769Y-140624500D01*
X230099999Y-140624500D01*
X230099980Y-140624501D01*
X229997203Y-140635000D01*
X229997200Y-140635001D01*
X229830668Y-140690185D01*
X229830663Y-140690187D01*
X229681342Y-140782289D01*
X229557289Y-140906342D01*
X229465187Y-141055663D01*
X229465185Y-141055668D01*
X229453470Y-141091023D01*
X229410001Y-141222203D01*
X229410001Y-141222204D01*
X229410000Y-141222204D01*
X229399500Y-141324983D01*
X229399500Y-142675001D01*
X229399501Y-142675018D01*
X229410000Y-142777796D01*
X229410001Y-142777799D01*
X229465185Y-142944331D01*
X229465187Y-142944336D01*
X229494316Y-142991561D01*
X229557288Y-143093656D01*
X229681344Y-143217712D01*
X229830666Y-143309814D01*
X229997203Y-143364999D01*
X230099991Y-143375500D01*
X230900008Y-143375499D01*
X230900016Y-143375498D01*
X230900019Y-143375498D01*
X230956302Y-143369748D01*
X231002797Y-143364999D01*
X231169334Y-143309814D01*
X231318656Y-143217712D01*
X231442712Y-143093656D01*
X231482310Y-143029456D01*
X231534258Y-142982732D01*
X231603220Y-142971509D01*
X231667303Y-142999352D01*
X231675530Y-143006872D01*
X231783072Y-143114414D01*
X231923212Y-143216232D01*
X232077555Y-143294873D01*
X232242299Y-143348402D01*
X232413389Y-143375500D01*
X232413390Y-143375500D01*
X232586610Y-143375500D01*
X232586611Y-143375500D01*
X232757701Y-143348402D01*
X232922445Y-143294873D01*
X233076788Y-143216232D01*
X233216928Y-143114414D01*
X233339414Y-142991928D01*
X233399682Y-142908975D01*
X233455012Y-142866311D01*
X233524626Y-142860332D01*
X233586421Y-142892938D01*
X233600315Y-142908973D01*
X233660586Y-142991928D01*
X233783072Y-143114414D01*
X233923212Y-143216232D01*
X234077555Y-143294873D01*
X234242299Y-143348402D01*
X234413389Y-143375500D01*
X234413390Y-143375500D01*
X234586610Y-143375500D01*
X234586611Y-143375500D01*
X234757701Y-143348402D01*
X234922445Y-143294873D01*
X235076788Y-143216232D01*
X235216928Y-143114414D01*
X235339414Y-142991928D01*
X235399682Y-142908975D01*
X235455012Y-142866311D01*
X235524626Y-142860332D01*
X235586421Y-142892938D01*
X235600315Y-142908973D01*
X235660586Y-142991928D01*
X235783072Y-143114414D01*
X235923212Y-143216232D01*
X236077555Y-143294873D01*
X236242299Y-143348402D01*
X236413389Y-143375500D01*
X236413390Y-143375500D01*
X236586610Y-143375500D01*
X236586611Y-143375500D01*
X236757701Y-143348402D01*
X236922445Y-143294873D01*
X237076788Y-143216232D01*
X237216928Y-143114414D01*
X237339414Y-142991928D01*
X237441232Y-142851788D01*
X237519873Y-142697445D01*
X237573402Y-142532701D01*
X237600500Y-142361611D01*
X237600500Y-141638389D01*
X237573402Y-141467299D01*
X237519873Y-141302555D01*
X237441232Y-141148212D01*
X237339414Y-141008072D01*
X237286819Y-140955477D01*
X237253334Y-140894154D01*
X237250500Y-140867796D01*
X237250500Y-121876079D01*
X237221659Y-121731092D01*
X237221658Y-121731091D01*
X237221658Y-121731087D01*
X237183728Y-121639515D01*
X237165087Y-121594511D01*
X237165080Y-121594498D01*
X237082951Y-121471584D01*
X237082948Y-121471580D01*
X236978419Y-121367051D01*
X236978415Y-121367048D01*
X236943366Y-121343629D01*
X236924576Y-121328208D01*
X231221268Y-115624900D01*
X231187783Y-115563577D01*
X231186476Y-115517822D01*
X231189500Y-115498731D01*
X231189500Y-115301269D01*
X231189500Y-115301263D01*
X231158610Y-115106236D01*
X231125925Y-115005643D01*
X231097591Y-114918439D01*
X231007944Y-114742499D01*
X231000486Y-114732234D01*
X230891884Y-114582753D01*
X230752246Y-114443115D01*
X230592505Y-114327058D01*
X230586119Y-114323804D01*
X230422593Y-114240482D01*
X230371800Y-114192510D01*
X230355005Y-114124689D01*
X230377542Y-114058554D01*
X230422593Y-114019517D01*
X230592501Y-113932944D01*
X230612912Y-113918114D01*
X230752246Y-113816884D01*
X230752248Y-113816881D01*
X230752252Y-113816879D01*
X230891879Y-113677252D01*
X230891881Y-113677248D01*
X230891884Y-113677246D01*
X230942779Y-113607192D01*
X231007944Y-113517501D01*
X231097591Y-113341561D01*
X231158610Y-113153763D01*
X231189500Y-112958736D01*
X231189500Y-112761263D01*
X231158610Y-112566236D01*
X231138270Y-112503637D01*
X231097591Y-112378439D01*
X231007944Y-112202499D01*
X230983185Y-112168421D01*
X230891884Y-112042753D01*
X230752246Y-111903115D01*
X230592505Y-111787058D01*
X230586119Y-111783804D01*
X230422593Y-111700482D01*
X230371800Y-111652510D01*
X230355005Y-111584689D01*
X230377542Y-111518554D01*
X230422593Y-111479517D01*
X230592501Y-111392944D01*
X230612912Y-111378114D01*
X230752246Y-111276884D01*
X230752248Y-111276881D01*
X230752252Y-111276879D01*
X230891879Y-111137252D01*
X230891879Y-111137251D01*
X230895324Y-111133807D01*
X230896506Y-111134989D01*
X230948923Y-111100774D01*
X230984703Y-111095500D01*
X233947416Y-111095500D01*
X234014455Y-111115185D01*
X234035097Y-111131819D01*
X234512712Y-111609435D01*
X234512718Y-111609440D01*
X238688181Y-115784903D01*
X238721666Y-115846226D01*
X238724500Y-115872584D01*
X238724500Y-141076384D01*
X238754300Y-141226197D01*
X238754302Y-141226205D01*
X238812759Y-141367334D01*
X238812764Y-141367343D01*
X238897629Y-141494351D01*
X238897632Y-141494355D01*
X240688181Y-143284903D01*
X240721666Y-143346226D01*
X240724500Y-143372584D01*
X240724500Y-156120395D01*
X240754300Y-156270208D01*
X240754302Y-156270216D01*
X240814648Y-156415904D01*
X240822117Y-156485374D01*
X240790842Y-156547853D01*
X240730753Y-156583505D01*
X240660928Y-156581011D01*
X240612406Y-156551038D01*
X240286819Y-156225451D01*
X240253334Y-156164128D01*
X240250500Y-156137770D01*
X240250500Y-149876079D01*
X240221659Y-149731092D01*
X240221658Y-149731091D01*
X240221658Y-149731087D01*
X240200412Y-149679794D01*
X240165087Y-149594511D01*
X240165080Y-149594498D01*
X240082952Y-149471585D01*
X240042905Y-149431538D01*
X239978416Y-149367049D01*
X235978416Y-145367048D01*
X235978415Y-145367047D01*
X235978413Y-145367045D01*
X235930765Y-145335209D01*
X235898998Y-145313984D01*
X235855495Y-145284916D01*
X235855494Y-145284915D01*
X235855492Y-145284914D01*
X235855490Y-145284913D01*
X235718917Y-145228343D01*
X235718907Y-145228340D01*
X235573920Y-145199500D01*
X235573918Y-145199500D01*
X221862230Y-145199500D01*
X221795191Y-145179815D01*
X221774549Y-145163181D01*
X219809036Y-143197668D01*
X219807931Y-143195645D01*
X219805949Y-143194469D01*
X219791269Y-143165131D01*
X219775551Y-143136345D01*
X219775715Y-143134045D01*
X219774684Y-143131984D01*
X219778195Y-143099370D01*
X219780535Y-143066653D01*
X219781993Y-143064092D01*
X219782163Y-143062516D01*
X219787092Y-143055139D01*
X219800178Y-143032166D01*
X219804343Y-143026998D01*
X219839414Y-142991928D01*
X219901504Y-142906468D01*
X219903461Y-142904041D01*
X219929707Y-142885822D01*
X219955012Y-142866311D01*
X219958215Y-142866035D01*
X219960859Y-142864201D01*
X219992796Y-142863065D01*
X220024626Y-142860332D01*
X220027471Y-142861833D01*
X220030685Y-142861719D01*
X220058159Y-142878025D01*
X220086421Y-142892938D01*
X220089742Y-142896771D01*
X220090768Y-142897380D01*
X220091448Y-142898740D01*
X220100315Y-142908973D01*
X220160586Y-142991928D01*
X220283072Y-143114414D01*
X220423212Y-143216232D01*
X220577555Y-143294873D01*
X220742299Y-143348402D01*
X220913389Y-143375500D01*
X220913390Y-143375500D01*
X221086610Y-143375500D01*
X221086611Y-143375500D01*
X221257701Y-143348402D01*
X221422445Y-143294873D01*
X221576788Y-143216232D01*
X221716928Y-143114414D01*
X221839414Y-142991928D01*
X221899682Y-142908975D01*
X221955012Y-142866311D01*
X222024626Y-142860332D01*
X222086421Y-142892938D01*
X222100315Y-142908973D01*
X222160586Y-142991928D01*
X222283072Y-143114414D01*
X222423212Y-143216232D01*
X222577555Y-143294873D01*
X222742299Y-143348402D01*
X222913389Y-143375500D01*
X222913390Y-143375500D01*
X223086610Y-143375500D01*
X223086611Y-143375500D01*
X223257701Y-143348402D01*
X223422445Y-143294873D01*
X223576788Y-143216232D01*
X223716928Y-143114414D01*
X223839414Y-142991928D01*
X223941232Y-142851788D01*
X224019873Y-142697445D01*
X224073402Y-142532701D01*
X224100500Y-142361611D01*
X224100500Y-141638389D01*
X224073402Y-141467299D01*
X224019873Y-141302555D01*
X223941232Y-141148212D01*
X223839414Y-141008072D01*
X223786819Y-140955477D01*
X223753334Y-140894154D01*
X223750500Y-140867796D01*
X223750500Y-136331080D01*
X223745429Y-136305591D01*
X223734272Y-136249500D01*
X223721659Y-136186088D01*
X223665857Y-136051374D01*
X223665367Y-136049929D01*
X223582954Y-135926588D01*
X223582953Y-135926587D01*
X223582951Y-135926584D01*
X223478416Y-135822049D01*
X210901268Y-123244900D01*
X210867783Y-123183577D01*
X210866476Y-123137822D01*
X210869500Y-123118731D01*
X210869500Y-122921269D01*
X210869500Y-122921263D01*
X210838610Y-122726236D01*
X210818270Y-122663637D01*
X210777591Y-122538439D01*
X210687944Y-122362499D01*
X210663534Y-122328901D01*
X210571884Y-122202753D01*
X210432246Y-122063115D01*
X210272505Y-121947058D01*
X210266119Y-121943804D01*
X210102593Y-121860482D01*
X210051800Y-121812510D01*
X210035005Y-121744689D01*
X210057542Y-121678554D01*
X210102593Y-121639517D01*
X210272501Y-121552944D01*
X210299254Y-121533507D01*
X210432246Y-121436884D01*
X210432248Y-121436881D01*
X210432252Y-121436879D01*
X210571879Y-121297252D01*
X210571881Y-121297248D01*
X210571884Y-121297246D01*
X210634891Y-121210523D01*
X210687944Y-121137501D01*
X210777591Y-120961561D01*
X210838610Y-120773763D01*
X210856593Y-120660224D01*
X210869500Y-120578736D01*
X210869500Y-120381263D01*
X210838610Y-120186236D01*
X210799189Y-120064911D01*
X210777591Y-119998439D01*
X210687944Y-119822499D01*
X210680486Y-119812234D01*
X210571884Y-119662753D01*
X210432246Y-119523115D01*
X210272505Y-119407058D01*
X210266119Y-119403804D01*
X210102593Y-119320482D01*
X210051800Y-119272510D01*
X210035005Y-119204689D01*
X210057542Y-119138554D01*
X210102593Y-119099517D01*
X210272501Y-119012944D01*
X210345600Y-118959835D01*
X210432246Y-118896884D01*
X210432248Y-118896881D01*
X210432252Y-118896879D01*
X210571879Y-118757252D01*
X210571881Y-118757248D01*
X210571884Y-118757246D01*
X210622779Y-118687192D01*
X210687944Y-118597501D01*
X210777591Y-118421561D01*
X210838610Y-118233763D01*
X210869500Y-118038736D01*
X210869500Y-117841263D01*
X210838610Y-117646236D01*
X210778158Y-117460185D01*
X210777591Y-117458439D01*
X210687944Y-117282499D01*
X210620173Y-117189219D01*
X210571884Y-117122753D01*
X210432246Y-116983115D01*
X210272505Y-116867058D01*
X210266119Y-116863804D01*
X210102593Y-116780482D01*
X210051800Y-116732510D01*
X210035005Y-116664689D01*
X210057542Y-116598554D01*
X210102593Y-116559517D01*
X210272501Y-116472944D01*
X210338638Y-116424893D01*
X210432246Y-116356884D01*
X210432248Y-116356881D01*
X210432252Y-116356879D01*
X210571879Y-116217252D01*
X210571881Y-116217248D01*
X210571884Y-116217246D01*
X210622779Y-116147192D01*
X210687944Y-116057501D01*
X210777591Y-115881561D01*
X210838610Y-115693763D01*
X210856593Y-115580224D01*
X210869500Y-115498736D01*
X210869500Y-115301263D01*
X210838610Y-115106236D01*
X210805925Y-115005643D01*
X210777591Y-114918439D01*
X210687944Y-114742499D01*
X210680486Y-114732234D01*
X210571884Y-114582753D01*
X210432246Y-114443115D01*
X210272505Y-114327058D01*
X210266119Y-114323804D01*
X210102593Y-114240482D01*
X210051800Y-114192510D01*
X210035005Y-114124689D01*
X210057542Y-114058554D01*
X210102593Y-114019517D01*
X210272501Y-113932944D01*
X210292912Y-113918114D01*
X210432246Y-113816884D01*
X210432248Y-113816881D01*
X210432252Y-113816879D01*
X210571879Y-113677252D01*
X210571881Y-113677248D01*
X210571884Y-113677246D01*
X210622779Y-113607192D01*
X210687944Y-113517501D01*
X210777591Y-113341561D01*
X210838610Y-113153763D01*
X210869500Y-112958736D01*
X210869500Y-112761263D01*
X210838610Y-112566236D01*
X210818270Y-112503637D01*
X210777591Y-112378439D01*
X210687944Y-112202499D01*
X210663185Y-112168421D01*
X210571884Y-112042753D01*
X210432246Y-111903115D01*
X210272505Y-111787058D01*
X210266119Y-111783804D01*
X210102593Y-111700482D01*
X210051800Y-111652510D01*
X210035005Y-111584689D01*
X210057542Y-111518554D01*
X210102593Y-111479517D01*
X210272501Y-111392944D01*
X210292912Y-111378114D01*
X210432246Y-111276884D01*
X210432248Y-111276881D01*
X210432252Y-111276879D01*
X210571879Y-111137252D01*
X210571881Y-111137248D01*
X210571884Y-111137246D01*
X210622779Y-111067192D01*
X210687944Y-110977501D01*
X210777591Y-110801561D01*
X210838610Y-110613763D01*
X210854614Y-110512718D01*
X210869500Y-110418736D01*
X210869500Y-110221263D01*
X210838610Y-110026236D01*
X210789470Y-109874999D01*
X210777591Y-109838439D01*
X210687944Y-109662499D01*
X210674129Y-109643484D01*
X210571884Y-109502753D01*
X210432246Y-109363115D01*
X210272505Y-109247058D01*
X210251682Y-109236448D01*
X210102593Y-109160482D01*
X210051800Y-109112510D01*
X210035005Y-109044689D01*
X210057542Y-108978554D01*
X210102593Y-108939517D01*
X210272501Y-108852944D01*
X210292912Y-108838114D01*
X210432246Y-108736884D01*
X210432248Y-108736881D01*
X210432252Y-108736879D01*
X210571879Y-108597252D01*
X210571881Y-108597248D01*
X210571884Y-108597246D01*
X210678405Y-108450630D01*
X210687944Y-108437501D01*
X210777591Y-108261561D01*
X210838610Y-108073763D01*
X210869500Y-107878736D01*
X210869500Y-107681263D01*
X210838610Y-107486236D01*
X210818270Y-107423637D01*
X210777591Y-107298439D01*
X210687944Y-107122499D01*
X210665492Y-107091596D01*
X210571884Y-106962753D01*
X210432246Y-106823115D01*
X210272505Y-106707058D01*
X210266119Y-106703804D01*
X210102593Y-106620482D01*
X210051800Y-106572510D01*
X210035005Y-106504689D01*
X210057542Y-106438554D01*
X210102593Y-106399517D01*
X210272501Y-106312944D01*
X210392926Y-106225451D01*
X210432246Y-106196884D01*
X210432248Y-106196881D01*
X210432252Y-106196879D01*
X210571879Y-106057252D01*
X210571881Y-106057248D01*
X210571884Y-106057246D01*
X210622779Y-105987192D01*
X210687944Y-105897501D01*
X210777591Y-105721561D01*
X210838610Y-105533763D01*
X210865179Y-105366014D01*
X210869500Y-105338736D01*
X210869500Y-105141263D01*
X210838610Y-104946236D01*
X210818270Y-104883637D01*
X210777591Y-104758439D01*
X210687944Y-104582499D01*
X210655328Y-104537606D01*
X210571884Y-104422753D01*
X210432246Y-104283115D01*
X210272505Y-104167058D01*
X210266119Y-104163804D01*
X210102593Y-104080482D01*
X210051800Y-104032510D01*
X210035005Y-103964689D01*
X210057542Y-103898554D01*
X210102593Y-103859517D01*
X210272501Y-103772944D01*
X210292912Y-103758114D01*
X210432246Y-103656884D01*
X210432248Y-103656881D01*
X210432252Y-103656879D01*
X210571879Y-103517252D01*
X210571881Y-103517248D01*
X210571884Y-103517246D01*
X210630462Y-103436619D01*
X210687944Y-103357501D01*
X210777591Y-103181561D01*
X210838610Y-102993763D01*
X210849330Y-102926079D01*
X210869500Y-102798736D01*
X210869500Y-102601263D01*
X210838610Y-102406236D01*
X210818270Y-102343637D01*
X210777591Y-102218439D01*
X210687944Y-102042499D01*
X210680486Y-102032234D01*
X210571884Y-101882753D01*
X210432246Y-101743115D01*
X210272505Y-101627058D01*
X210266119Y-101623804D01*
X210102593Y-101540482D01*
X210051800Y-101492510D01*
X210035005Y-101424689D01*
X210057542Y-101358554D01*
X210102593Y-101319517D01*
X210272501Y-101232944D01*
X210347261Y-101178628D01*
X210432246Y-101116884D01*
X210432248Y-101116881D01*
X210432252Y-101116879D01*
X210571879Y-100977252D01*
X210571881Y-100977248D01*
X210571884Y-100977246D01*
X210625928Y-100902859D01*
X210687944Y-100817501D01*
X210777591Y-100641561D01*
X210838610Y-100453763D01*
X210845901Y-100407732D01*
X210869500Y-100258736D01*
X210869500Y-100061263D01*
X210838610Y-99866236D01*
X210784070Y-99698380D01*
X210777591Y-99678439D01*
X210687944Y-99502499D01*
X210680486Y-99492234D01*
X210571884Y-99342753D01*
X210432246Y-99203115D01*
X210272505Y-99087058D01*
X210266119Y-99083804D01*
X210102593Y-99000482D01*
X210051800Y-98952510D01*
X210035005Y-98884689D01*
X210057542Y-98818554D01*
X210102593Y-98779517D01*
X210272501Y-98692944D01*
X210339172Y-98644505D01*
X210432246Y-98576884D01*
X210432248Y-98576881D01*
X210432252Y-98576879D01*
X210571879Y-98437252D01*
X210571881Y-98437248D01*
X210571884Y-98437246D01*
X210640385Y-98342961D01*
X210687944Y-98277501D01*
X210777591Y-98101561D01*
X210838610Y-97913763D01*
X210847571Y-97857185D01*
X210869500Y-97718736D01*
X210869500Y-97521263D01*
X210838610Y-97326236D01*
X210804059Y-97219901D01*
X210777591Y-97138439D01*
X210687944Y-96962499D01*
X210662159Y-96927009D01*
X210571884Y-96802753D01*
X210432246Y-96663115D01*
X210272505Y-96547058D01*
X210266119Y-96543804D01*
X210102593Y-96460482D01*
X210051800Y-96412510D01*
X210035005Y-96344689D01*
X210057542Y-96278554D01*
X210102593Y-96239517D01*
X210272501Y-96152944D01*
X210310963Y-96125000D01*
X210432246Y-96036884D01*
X210432248Y-96036881D01*
X210432252Y-96036879D01*
X210571879Y-95897252D01*
X210571881Y-95897248D01*
X210571884Y-95897246D01*
X210640682Y-95802552D01*
X210687944Y-95737501D01*
X210777591Y-95561561D01*
X210838610Y-95373763D01*
X210845095Y-95332820D01*
X210869500Y-95178736D01*
X210869500Y-94981263D01*
X210838610Y-94786236D01*
X210785896Y-94624000D01*
X210777591Y-94598439D01*
X210687944Y-94422499D01*
X210680486Y-94412234D01*
X210571884Y-94262753D01*
X210432246Y-94123115D01*
X210272505Y-94007058D01*
X210266119Y-94003804D01*
X210102593Y-93920482D01*
X210051800Y-93872510D01*
X210035005Y-93804689D01*
X210057542Y-93738554D01*
X210102593Y-93699517D01*
X210272501Y-93612944D01*
X210292912Y-93598114D01*
X210432246Y-93496884D01*
X210432248Y-93496881D01*
X210432252Y-93496879D01*
X210571879Y-93357252D01*
X210571881Y-93357248D01*
X210571884Y-93357246D01*
X210671633Y-93219951D01*
X210687944Y-93197501D01*
X210777591Y-93021561D01*
X210838610Y-92833763D01*
X210847562Y-92777242D01*
X210869500Y-92638736D01*
X210869500Y-92441263D01*
X210838610Y-92246236D01*
X210798232Y-92121967D01*
X210777591Y-92058439D01*
X210687944Y-91882499D01*
X210640951Y-91817818D01*
X210571884Y-91722753D01*
X210432246Y-91583115D01*
X210272505Y-91467058D01*
X210266119Y-91463804D01*
X210102593Y-91380482D01*
X210051800Y-91332510D01*
X210035005Y-91264689D01*
X210057542Y-91198554D01*
X210102593Y-91159517D01*
X210272501Y-91072944D01*
X210292912Y-91058114D01*
X210432246Y-90956884D01*
X210432248Y-90956881D01*
X210432252Y-90956879D01*
X210571879Y-90817252D01*
X210571881Y-90817248D01*
X210571884Y-90817246D01*
X210622779Y-90747192D01*
X210687944Y-90657501D01*
X210777591Y-90481561D01*
X210838610Y-90293763D01*
X210846128Y-90246295D01*
X210869500Y-90098736D01*
X210869500Y-89901263D01*
X210838610Y-89706236D01*
X210818270Y-89643637D01*
X210777591Y-89518439D01*
X210687944Y-89342499D01*
X210664962Y-89310867D01*
X210571884Y-89182753D01*
X210432246Y-89043115D01*
X210272504Y-88927058D01*
X210272503Y-88927057D01*
X210272501Y-88927056D01*
X210096561Y-88837409D01*
X210096558Y-88837408D01*
X209908763Y-88776389D01*
X209713736Y-88745500D01*
X209713731Y-88745500D01*
X209516269Y-88745500D01*
X209516264Y-88745500D01*
X209321236Y-88776389D01*
X209133441Y-88837408D01*
X208957495Y-88927058D01*
X208797753Y-89043115D01*
X208658115Y-89182753D01*
X208542058Y-89342495D01*
X208452408Y-89518441D01*
X208391389Y-89706236D01*
X208360500Y-89901263D01*
X208360500Y-90098736D01*
X208391389Y-90293763D01*
X208452408Y-90481558D01*
X208452409Y-90481561D01*
X208542056Y-90657501D01*
X208542058Y-90657504D01*
X208658115Y-90817246D01*
X208797753Y-90956884D01*
X208947234Y-91065486D01*
X208957499Y-91072944D01*
X209127404Y-91159516D01*
X209178199Y-91207490D01*
X209194994Y-91275311D01*
X209172456Y-91341446D01*
X209127404Y-91380483D01*
X208970321Y-91460522D01*
X208957495Y-91467058D01*
X208797753Y-91583115D01*
X208658115Y-91722753D01*
X208542058Y-91882495D01*
X208452408Y-92058441D01*
X208391389Y-92246236D01*
X208360500Y-92441263D01*
X208360500Y-92638736D01*
X208391389Y-92833763D01*
X208429230Y-92950223D01*
X208452409Y-93021561D01*
X208534305Y-93182289D01*
X208542058Y-93197504D01*
X208658115Y-93357246D01*
X208797753Y-93496884D01*
X208947234Y-93605486D01*
X208957499Y-93612944D01*
X209127404Y-93699516D01*
X209178199Y-93747490D01*
X209194994Y-93815311D01*
X209172456Y-93881446D01*
X209127404Y-93920483D01*
X208970321Y-94000522D01*
X208957495Y-94007058D01*
X208797753Y-94123115D01*
X208658115Y-94262753D01*
X208542058Y-94422495D01*
X208452408Y-94598441D01*
X208391389Y-94786236D01*
X208360500Y-94981263D01*
X208360500Y-95178736D01*
X208391389Y-95373763D01*
X208450563Y-95555880D01*
X208452409Y-95561561D01*
X208525398Y-95704808D01*
X208542058Y-95737504D01*
X208658115Y-95897246D01*
X208797753Y-96036884D01*
X208947234Y-96145486D01*
X208957499Y-96152944D01*
X209127404Y-96239516D01*
X209178199Y-96287490D01*
X209194994Y-96355311D01*
X209172456Y-96421446D01*
X209127404Y-96460483D01*
X208970321Y-96540522D01*
X208957495Y-96547058D01*
X208797753Y-96663115D01*
X208658115Y-96802753D01*
X208542058Y-96962495D01*
X208452408Y-97138441D01*
X208391389Y-97326236D01*
X208360500Y-97521263D01*
X208360500Y-97718736D01*
X208391389Y-97913763D01*
X208451055Y-98097393D01*
X208452409Y-98101561D01*
X208473341Y-98142641D01*
X208542058Y-98277504D01*
X208658115Y-98437246D01*
X208797753Y-98576884D01*
X208921158Y-98666541D01*
X208957499Y-98692944D01*
X209127404Y-98779516D01*
X209178199Y-98827490D01*
X209194994Y-98895311D01*
X209172456Y-98961446D01*
X209127404Y-99000483D01*
X208970321Y-99080522D01*
X208957495Y-99087058D01*
X208797753Y-99203115D01*
X208658120Y-99342748D01*
X208595265Y-99429260D01*
X208586098Y-99437252D01*
X208581926Y-99444752D01*
X208563507Y-99456953D01*
X208553503Y-99465677D01*
X208548078Y-99468582D01*
X208545418Y-99469685D01*
X208484505Y-99494916D01*
X208431211Y-99530526D01*
X208426203Y-99533871D01*
X208426192Y-99533878D01*
X208361582Y-99577049D01*
X205417045Y-102521586D01*
X205393167Y-102557324D01*
X205383640Y-102571584D01*
X205376563Y-102582176D01*
X205334914Y-102644507D01*
X205278343Y-102781082D01*
X205278340Y-102781092D01*
X205249500Y-102926079D01*
X205249500Y-111327769D01*
X205229815Y-111394808D01*
X205213181Y-111415450D01*
X201265104Y-115363526D01*
X201203781Y-115397011D01*
X201158025Y-115398318D01*
X201102352Y-115389500D01*
X200897648Y-115389500D01*
X200873329Y-115393351D01*
X200695465Y-115421522D01*
X200500776Y-115484781D01*
X200318386Y-115577715D01*
X200152786Y-115698028D01*
X200008032Y-115842782D01*
X200008028Y-115842787D01*
X199974900Y-115888385D01*
X199919571Y-115931051D01*
X199874582Y-115939500D01*
X198625418Y-115939500D01*
X198558379Y-115919815D01*
X198525100Y-115888385D01*
X198491971Y-115842787D01*
X198491967Y-115842782D01*
X198347213Y-115698028D01*
X198181613Y-115577715D01*
X198181612Y-115577714D01*
X198181610Y-115577713D01*
X198124653Y-115548691D01*
X197999223Y-115484781D01*
X197804534Y-115421522D01*
X197629995Y-115393878D01*
X197602352Y-115389500D01*
X197397648Y-115389500D01*
X197373329Y-115393351D01*
X197195465Y-115421522D01*
X197000776Y-115484781D01*
X196818386Y-115577715D01*
X196652786Y-115698028D01*
X196508028Y-115842786D01*
X196387715Y-116008386D01*
X196294781Y-116190776D01*
X196231522Y-116385465D01*
X196199500Y-116587648D01*
X196199500Y-116792351D01*
X196231522Y-116994534D01*
X196294781Y-117189223D01*
X196387715Y-117371613D01*
X196508028Y-117537213D01*
X196652786Y-117681971D01*
X196807749Y-117794556D01*
X196818390Y-117802287D01*
X196934607Y-117861503D01*
X197000776Y-117895218D01*
X197000778Y-117895218D01*
X197000781Y-117895220D01*
X197105137Y-117929127D01*
X197195465Y-117958477D01*
X197296557Y-117974488D01*
X197397648Y-117990500D01*
X197397649Y-117990500D01*
X197602351Y-117990500D01*
X197602352Y-117990500D01*
X197804534Y-117958477D01*
X197999219Y-117895220D01*
X198181610Y-117802287D01*
X198274590Y-117734732D01*
X198347213Y-117681971D01*
X198347215Y-117681968D01*
X198347219Y-117681966D01*
X198491966Y-117537219D01*
X198494650Y-117533524D01*
X198525100Y-117491615D01*
X198580429Y-117448949D01*
X198625418Y-117440500D01*
X199874582Y-117440500D01*
X199941621Y-117460185D01*
X199974900Y-117491615D01*
X200008028Y-117537212D01*
X200008032Y-117537217D01*
X200152786Y-117681971D01*
X200307749Y-117794556D01*
X200318390Y-117802287D01*
X200434607Y-117861503D01*
X200500776Y-117895218D01*
X200500778Y-117895218D01*
X200500781Y-117895220D01*
X200605137Y-117929127D01*
X200695465Y-117958477D01*
X200796557Y-117974488D01*
X200897648Y-117990500D01*
X200897649Y-117990500D01*
X201102351Y-117990500D01*
X201102352Y-117990500D01*
X201304534Y-117958477D01*
X201499219Y-117895220D01*
X201681610Y-117802287D01*
X201774590Y-117734732D01*
X201847213Y-117681971D01*
X201847215Y-117681968D01*
X201847219Y-117681966D01*
X201991966Y-117537219D01*
X201991968Y-117537215D01*
X201991971Y-117537213D01*
X202049201Y-117458441D01*
X202112287Y-117371610D01*
X202205220Y-117189219D01*
X202268477Y-116994534D01*
X202300500Y-116792352D01*
X202300500Y-116587648D01*
X202291681Y-116531971D01*
X202300635Y-116462680D01*
X202326470Y-116424896D01*
X206582952Y-112168416D01*
X206601753Y-112140277D01*
X206640109Y-112082874D01*
X206640111Y-112082869D01*
X206640117Y-112082861D01*
X206665084Y-112045495D01*
X206721658Y-111908913D01*
X206745897Y-111787058D01*
X206750500Y-111763920D01*
X206750500Y-103362229D01*
X206770185Y-103295190D01*
X206786819Y-103274548D01*
X207655131Y-102406236D01*
X208808346Y-101253020D01*
X208830056Y-101241165D01*
X208849437Y-101225788D01*
X208860185Y-101224714D01*
X208869667Y-101219537D01*
X208894345Y-101221301D01*
X208918961Y-101218843D01*
X208932390Y-101224022D01*
X208939359Y-101224521D01*
X208952364Y-101230241D01*
X208957110Y-101232662D01*
X208957499Y-101232944D01*
X209127403Y-101319515D01*
X209127404Y-101319516D01*
X209127447Y-101319538D01*
X209152950Y-101343644D01*
X209178199Y-101367490D01*
X209178204Y-101367513D01*
X209178224Y-101367532D01*
X209186743Y-101401994D01*
X209194994Y-101435311D01*
X209194985Y-101435335D01*
X209194992Y-101435360D01*
X209183581Y-101468798D01*
X209172456Y-101501446D01*
X209172435Y-101501463D01*
X209172428Y-101501486D01*
X209172212Y-101501656D01*
X209127404Y-101540483D01*
X208970321Y-101620522D01*
X208957495Y-101627058D01*
X208797753Y-101743115D01*
X208658115Y-101882753D01*
X208542058Y-102042495D01*
X208452408Y-102218441D01*
X208391389Y-102406236D01*
X208360500Y-102601263D01*
X208360500Y-102798736D01*
X208391389Y-102993763D01*
X208447836Y-103167486D01*
X208452409Y-103181561D01*
X208497572Y-103270197D01*
X208542058Y-103357504D01*
X208658115Y-103517246D01*
X208797753Y-103656884D01*
X208947234Y-103765486D01*
X208957499Y-103772944D01*
X209127404Y-103859516D01*
X209178199Y-103907490D01*
X209194994Y-103975311D01*
X209172456Y-104041446D01*
X209127404Y-104080483D01*
X209069043Y-104110221D01*
X208957495Y-104167058D01*
X208797753Y-104283115D01*
X208658115Y-104422753D01*
X208542058Y-104582495D01*
X208452408Y-104758441D01*
X208391389Y-104946236D01*
X208360500Y-105141263D01*
X208360500Y-105338736D01*
X208391389Y-105533763D01*
X208439615Y-105682185D01*
X208452409Y-105721561D01*
X208512438Y-105839373D01*
X208542058Y-105897504D01*
X208658115Y-106057246D01*
X208797753Y-106196884D01*
X208947234Y-106305486D01*
X208957499Y-106312944D01*
X209127404Y-106399516D01*
X209178199Y-106447490D01*
X209194994Y-106515311D01*
X209172456Y-106581446D01*
X209127404Y-106620483D01*
X208970321Y-106700522D01*
X208957495Y-106707058D01*
X208797753Y-106823115D01*
X208658115Y-106962753D01*
X208542058Y-107122495D01*
X208452408Y-107298441D01*
X208391389Y-107486236D01*
X208360500Y-107681263D01*
X208360500Y-107878736D01*
X208391389Y-108073763D01*
X208412388Y-108138389D01*
X208452409Y-108261561D01*
X208542056Y-108437501D01*
X208542058Y-108437504D01*
X208658115Y-108597246D01*
X208797753Y-108736884D01*
X208947234Y-108845486D01*
X208957499Y-108852944D01*
X209127404Y-108939516D01*
X209178199Y-108987490D01*
X209194994Y-109055311D01*
X209172456Y-109121446D01*
X209127404Y-109160483D01*
X209098943Y-109174986D01*
X208957495Y-109247058D01*
X208797753Y-109363115D01*
X208658115Y-109502753D01*
X208542058Y-109662495D01*
X208452408Y-109838441D01*
X208391389Y-110026236D01*
X208360500Y-110221263D01*
X208360500Y-110418736D01*
X208391389Y-110613763D01*
X208452408Y-110801558D01*
X208452409Y-110801561D01*
X208542056Y-110977501D01*
X208542058Y-110977504D01*
X208658115Y-111137246D01*
X208797753Y-111276884D01*
X208938488Y-111379132D01*
X208957499Y-111392944D01*
X209127404Y-111479516D01*
X209178199Y-111527490D01*
X209194994Y-111595311D01*
X209172456Y-111661446D01*
X209127404Y-111700483D01*
X208970321Y-111780522D01*
X208957495Y-111787058D01*
X208797753Y-111903115D01*
X208658115Y-112042753D01*
X208542058Y-112202495D01*
X208452408Y-112378441D01*
X208391389Y-112566236D01*
X208360500Y-112761263D01*
X208360500Y-112958736D01*
X208391389Y-113153763D01*
X208452408Y-113341558D01*
X208452409Y-113341561D01*
X208542056Y-113517501D01*
X208542058Y-113517504D01*
X208658115Y-113677246D01*
X208797753Y-113816884D01*
X208947234Y-113925486D01*
X208957499Y-113932944D01*
X209127404Y-114019516D01*
X209178199Y-114067490D01*
X209194994Y-114135311D01*
X209172456Y-114201446D01*
X209127404Y-114240483D01*
X208970321Y-114320522D01*
X208957495Y-114327058D01*
X208797753Y-114443115D01*
X208658115Y-114582753D01*
X208542058Y-114742495D01*
X208452408Y-114918441D01*
X208391389Y-115106236D01*
X208360500Y-115301263D01*
X208360500Y-115498735D01*
X208361472Y-115504872D01*
X208352518Y-115574165D01*
X208326680Y-115611951D01*
X201917050Y-122021580D01*
X201917044Y-122021588D01*
X201867812Y-122095268D01*
X201867813Y-122095269D01*
X201834921Y-122144496D01*
X201834914Y-122144508D01*
X201778342Y-122281086D01*
X201778340Y-122281092D01*
X201749500Y-122426079D01*
X201749500Y-123029954D01*
X201729815Y-123096993D01*
X201677011Y-123142748D01*
X201607853Y-123152692D01*
X201569206Y-123140439D01*
X201499226Y-123104782D01*
X201304534Y-123041522D01*
X201115023Y-123011507D01*
X201102352Y-123009500D01*
X200897648Y-123009500D01*
X200884977Y-123011507D01*
X200695465Y-123041522D01*
X200500776Y-123104781D01*
X200318386Y-123197715D01*
X200152786Y-123318028D01*
X200008028Y-123462786D01*
X199887715Y-123628386D01*
X199794781Y-123810776D01*
X199731522Y-124005465D01*
X199699500Y-124207648D01*
X199699500Y-124412351D01*
X199731522Y-124614534D01*
X199794781Y-124809223D01*
X199887715Y-124991613D01*
X200008028Y-125157213D01*
X200008034Y-125157219D01*
X200152781Y-125301966D01*
X200198384Y-125335098D01*
X200241050Y-125390425D01*
X200249500Y-125435416D01*
X200249500Y-127137770D01*
X200229815Y-127204809D01*
X200213181Y-127225451D01*
X199650450Y-127788181D01*
X199589127Y-127821666D01*
X199562769Y-127824500D01*
X198777129Y-127824500D01*
X198777123Y-127824501D01*
X198717516Y-127830908D01*
X198582671Y-127881202D01*
X198582664Y-127881206D01*
X198467455Y-127967452D01*
X198403459Y-128052939D01*
X198347525Y-128094809D01*
X198277833Y-128099793D01*
X198231308Y-128078946D01*
X198115833Y-127995049D01*
X197951043Y-127911084D01*
X197951037Y-127911082D01*
X197775144Y-127853932D01*
X197750000Y-127849950D01*
X197750000Y-128684314D01*
X197745606Y-128679920D01*
X197654394Y-128627259D01*
X197552661Y-128600000D01*
X197447339Y-128600000D01*
X197345606Y-128627259D01*
X197254394Y-128679920D01*
X197250000Y-128684314D01*
X197250000Y-127849950D01*
X197249999Y-127849950D01*
X197224855Y-127853932D01*
X197048962Y-127911082D01*
X197048956Y-127911084D01*
X196884162Y-127995052D01*
X196734545Y-128103754D01*
X196734540Y-128103758D01*
X196603758Y-128234540D01*
X196603754Y-128234545D01*
X196495052Y-128384162D01*
X196411084Y-128548956D01*
X196411082Y-128548962D01*
X196353932Y-128724855D01*
X196349950Y-128749999D01*
X196349950Y-128750000D01*
X197184314Y-128750000D01*
X197179920Y-128754394D01*
X197127259Y-128845606D01*
X197100000Y-128947339D01*
X197100000Y-129052661D01*
X197127259Y-129154394D01*
X197179920Y-129245606D01*
X197184314Y-129250000D01*
X196349950Y-129250000D01*
X196353932Y-129275144D01*
X196411082Y-129451037D01*
X196411084Y-129451043D01*
X196495052Y-129615837D01*
X196603754Y-129765454D01*
X196603758Y-129765459D01*
X196734540Y-129896241D01*
X196734545Y-129896245D01*
X196884162Y-130004947D01*
X197048956Y-130088915D01*
X197048959Y-130088916D01*
X197224845Y-130146064D01*
X197224858Y-130146067D01*
X197250000Y-130150049D01*
X197250000Y-129315686D01*
X197254394Y-129320080D01*
X197345606Y-129372741D01*
X197447339Y-129400000D01*
X197552661Y-129400000D01*
X197654394Y-129372741D01*
X197745606Y-129320080D01*
X197750000Y-129315686D01*
X197750000Y-130150048D01*
X197775141Y-130146067D01*
X197775154Y-130146064D01*
X197951040Y-130088916D01*
X197951043Y-130088915D01*
X198115838Y-130004947D01*
X198231306Y-129921054D01*
X198297112Y-129897573D01*
X198365166Y-129913398D01*
X198403458Y-129947059D01*
X198467455Y-130032547D01*
X198582664Y-130118793D01*
X198582671Y-130118797D01*
X198717517Y-130169091D01*
X198717516Y-130169091D01*
X198724444Y-130169835D01*
X198777127Y-130175500D01*
X200222872Y-130175499D01*
X200282483Y-130169091D01*
X200417331Y-130118796D01*
X200532546Y-130032546D01*
X200618796Y-129917331D01*
X200669091Y-129782483D01*
X200675500Y-129722873D01*
X200675499Y-128937228D01*
X200695183Y-128870190D01*
X200711813Y-128849553D01*
X201537819Y-128023548D01*
X201599142Y-127990063D01*
X201668834Y-127995047D01*
X201724767Y-128036919D01*
X201749184Y-128102383D01*
X201749500Y-128111229D01*
X201749500Y-130637769D01*
X201729815Y-130704808D01*
X201713181Y-130725450D01*
X199650449Y-132788181D01*
X199589126Y-132821666D01*
X199562768Y-132824500D01*
X198777129Y-132824500D01*
X198777123Y-132824501D01*
X198717516Y-132830908D01*
X198582671Y-132881202D01*
X198582664Y-132881206D01*
X198467455Y-132967452D01*
X198403459Y-133052939D01*
X198347525Y-133094809D01*
X198277833Y-133099793D01*
X198231308Y-133078946D01*
X198115833Y-132995049D01*
X197951043Y-132911084D01*
X197951037Y-132911082D01*
X197775144Y-132853932D01*
X197750000Y-132849950D01*
X197750000Y-133684314D01*
X197745606Y-133679920D01*
X197654394Y-133627259D01*
X197552661Y-133600000D01*
X197447339Y-133600000D01*
X197345606Y-133627259D01*
X197254394Y-133679920D01*
X197250000Y-133684314D01*
X197250000Y-132849950D01*
X197249999Y-132849950D01*
X197224855Y-132853932D01*
X197048962Y-132911082D01*
X197048956Y-132911084D01*
X196884162Y-132995052D01*
X196734545Y-133103754D01*
X196734540Y-133103758D01*
X196603758Y-133234540D01*
X196603754Y-133234545D01*
X196495052Y-133384162D01*
X196411084Y-133548956D01*
X196411082Y-133548962D01*
X196353932Y-133724855D01*
X196349950Y-133749999D01*
X196349950Y-133750000D01*
X197184314Y-133750000D01*
X197179920Y-133754394D01*
X197127259Y-133845606D01*
X197100000Y-133947339D01*
X197100000Y-134052661D01*
X197127259Y-134154394D01*
X197179920Y-134245606D01*
X197184314Y-134250000D01*
X196349950Y-134250000D01*
X196353932Y-134275144D01*
X196411082Y-134451037D01*
X196411084Y-134451043D01*
X196495052Y-134615837D01*
X196603754Y-134765454D01*
X196603758Y-134765459D01*
X196734540Y-134896241D01*
X196734545Y-134896245D01*
X196884162Y-135004947D01*
X197048956Y-135088915D01*
X197048959Y-135088916D01*
X197224845Y-135146064D01*
X197224858Y-135146067D01*
X197250000Y-135150049D01*
X197250000Y-134315686D01*
X197254394Y-134320080D01*
X197345606Y-134372741D01*
X197447339Y-134400000D01*
X197552661Y-134400000D01*
X197654394Y-134372741D01*
X197745606Y-134320080D01*
X197750000Y-134315686D01*
X197750000Y-135150048D01*
X197775141Y-135146067D01*
X197775154Y-135146064D01*
X197951040Y-135088916D01*
X197951043Y-135088915D01*
X198115838Y-135004947D01*
X198231306Y-134921054D01*
X198297112Y-134897573D01*
X198365166Y-134913398D01*
X198403458Y-134947059D01*
X198467455Y-135032547D01*
X198582664Y-135118793D01*
X198582671Y-135118797D01*
X198717517Y-135169091D01*
X198717516Y-135169091D01*
X198724444Y-135169835D01*
X198777127Y-135175500D01*
X200222872Y-135175499D01*
X200282483Y-135169091D01*
X200417331Y-135118796D01*
X200532546Y-135032546D01*
X200618796Y-134917331D01*
X200669091Y-134782483D01*
X200675500Y-134722873D01*
X200675499Y-133937228D01*
X200695183Y-133870190D01*
X200711813Y-133849553D01*
X203037819Y-131523548D01*
X203099142Y-131490063D01*
X203168834Y-131495047D01*
X203224767Y-131536919D01*
X203249184Y-131602383D01*
X203249500Y-131611229D01*
X203249500Y-134677769D01*
X203229815Y-134744808D01*
X203213181Y-134765450D01*
X197223806Y-140754824D01*
X197162483Y-140788309D01*
X197116726Y-140789616D01*
X197021291Y-140774500D01*
X197021287Y-140774500D01*
X196808713Y-140774500D01*
X196760042Y-140782208D01*
X196598760Y-140807753D01*
X196497672Y-140840598D01*
X196415390Y-140867334D01*
X196396585Y-140873444D01*
X196207179Y-140969951D01*
X196035213Y-141094890D01*
X195884890Y-141245213D01*
X195759951Y-141417179D01*
X195663444Y-141606585D01*
X195597753Y-141808760D01*
X195572419Y-141968713D01*
X195564500Y-142018713D01*
X195564500Y-142231287D01*
X195597754Y-142441243D01*
X195662738Y-142641243D01*
X195663444Y-142643414D01*
X195759951Y-142832820D01*
X195884890Y-143004786D01*
X196035213Y-143155109D01*
X196207179Y-143280048D01*
X196207181Y-143280049D01*
X196207184Y-143280051D01*
X196396588Y-143376557D01*
X196598757Y-143442246D01*
X196808713Y-143475500D01*
X196808714Y-143475500D01*
X197021286Y-143475500D01*
X197021287Y-143475500D01*
X197231243Y-143442246D01*
X197433412Y-143376557D01*
X197622816Y-143280051D01*
X197691355Y-143230255D01*
X197794786Y-143155109D01*
X197794788Y-143155106D01*
X197794792Y-143155104D01*
X197945104Y-143004792D01*
X197945106Y-143004788D01*
X197945109Y-143004786D01*
X198070048Y-142832820D01*
X198070047Y-142832820D01*
X198070051Y-142832816D01*
X198074514Y-142824054D01*
X198122488Y-142773259D01*
X198190308Y-142756463D01*
X198256444Y-142778999D01*
X198295486Y-142824056D01*
X198299951Y-142832820D01*
X198424890Y-143004786D01*
X198528076Y-143107972D01*
X198536634Y-143123645D01*
X198549258Y-143136282D01*
X198560565Y-143167471D01*
X198561561Y-143169295D01*
X198561575Y-143169357D01*
X198561797Y-143170384D01*
X198589105Y-143307666D01*
X198594320Y-143320256D01*
X198596680Y-143331131D01*
X198596039Y-143340028D01*
X198599500Y-143357427D01*
X198599500Y-145575638D01*
X198579815Y-145642677D01*
X198563181Y-145663319D01*
X190163319Y-154063181D01*
X190101996Y-154096666D01*
X190075638Y-154099500D01*
X185424361Y-154099500D01*
X185357322Y-154079815D01*
X185336680Y-154063181D01*
X181735834Y-150462334D01*
X181652211Y-150378711D01*
X184649500Y-150378711D01*
X184649500Y-150621288D01*
X184681161Y-150861785D01*
X184743947Y-151096104D01*
X184836773Y-151320205D01*
X184836777Y-151320214D01*
X184839661Y-151325209D01*
X184958064Y-151530289D01*
X184958066Y-151530292D01*
X184958067Y-151530293D01*
X185105733Y-151722736D01*
X185105739Y-151722743D01*
X185277256Y-151894260D01*
X185277263Y-151894266D01*
X185362755Y-151959866D01*
X185469711Y-152041936D01*
X185679788Y-152163224D01*
X185903900Y-152256054D01*
X186138211Y-152318838D01*
X186318586Y-152342584D01*
X186378711Y-152350500D01*
X186378712Y-152350500D01*
X186621289Y-152350500D01*
X186669388Y-152344167D01*
X186861789Y-152318838D01*
X187096100Y-152256054D01*
X187320212Y-152163224D01*
X187530289Y-152041936D01*
X187722738Y-151894265D01*
X187894265Y-151722738D01*
X188041936Y-151530289D01*
X188163224Y-151320212D01*
X188256054Y-151096100D01*
X188318838Y-150861789D01*
X188350500Y-150621288D01*
X188350500Y-150378712D01*
X188347510Y-150356004D01*
X188342584Y-150318586D01*
X188318838Y-150138211D01*
X188256054Y-149903900D01*
X188163224Y-149679788D01*
X188041936Y-149469711D01*
X187931279Y-149325500D01*
X187894266Y-149277263D01*
X187894260Y-149277256D01*
X187722743Y-149105739D01*
X187722736Y-149105733D01*
X187530293Y-148958067D01*
X187530292Y-148958066D01*
X187530289Y-148958064D01*
X187320212Y-148836776D01*
X187320205Y-148836773D01*
X187096104Y-148743947D01*
X186861785Y-148681161D01*
X186621289Y-148649500D01*
X186621288Y-148649500D01*
X186378712Y-148649500D01*
X186378711Y-148649500D01*
X186138214Y-148681161D01*
X185903895Y-148743947D01*
X185679794Y-148836773D01*
X185679785Y-148836777D01*
X185469706Y-148958067D01*
X185277263Y-149105733D01*
X185277256Y-149105739D01*
X185105739Y-149277256D01*
X185105733Y-149277263D01*
X184958067Y-149469706D01*
X184836777Y-149679785D01*
X184836773Y-149679794D01*
X184743947Y-149903895D01*
X184681161Y-150138214D01*
X184649500Y-150378711D01*
X181652211Y-150378711D01*
X179936819Y-148663319D01*
X179903334Y-148601996D01*
X179900500Y-148575638D01*
X179900500Y-79424360D01*
X179920185Y-79357321D01*
X179936815Y-79336683D01*
X180140931Y-79132566D01*
X180202251Y-79099084D01*
X180271942Y-79104068D01*
X180327876Y-79145939D01*
X180352293Y-79211404D01*
X180351082Y-79239647D01*
X180324500Y-79407485D01*
X180324500Y-79592513D01*
X180353445Y-79775265D01*
X180410619Y-79951232D01*
X180410620Y-79951235D01*
X180429438Y-79988166D01*
X180494622Y-80116096D01*
X180603379Y-80265787D01*
X180734213Y-80396621D01*
X180883904Y-80505378D01*
X180964763Y-80546577D01*
X181048764Y-80589379D01*
X181048767Y-80589380D01*
X181136750Y-80617967D01*
X181224736Y-80646555D01*
X181407486Y-80675500D01*
X181407487Y-80675500D01*
X181592513Y-80675500D01*
X181592514Y-80675500D01*
X181775264Y-80646555D01*
X181951235Y-80589379D01*
X182116096Y-80505378D01*
X182265787Y-80396621D01*
X182300589Y-80361819D01*
X182361912Y-80328334D01*
X182388270Y-80325500D01*
X183081307Y-80325500D01*
X183188598Y-80304157D01*
X183240789Y-80293776D01*
X183391021Y-80231548D01*
X183391023Y-80231547D01*
X183458169Y-80186680D01*
X183526225Y-80141208D01*
X184641208Y-79026225D01*
X184731548Y-78891021D01*
X184793776Y-78740789D01*
X184814150Y-78638364D01*
X184825500Y-78581307D01*
X184825500Y-76918692D01*
X184793777Y-76759216D01*
X184793776Y-76759215D01*
X184793776Y-76759211D01*
X184736335Y-76620535D01*
X184731549Y-76608980D01*
X184731547Y-76608976D01*
X184641211Y-76473779D01*
X184641209Y-76473776D01*
X184637705Y-76470272D01*
X184526225Y-76358792D01*
X184030927Y-75863494D01*
X183526228Y-75358794D01*
X183526220Y-75358788D01*
X183391023Y-75268452D01*
X183391019Y-75268450D01*
X183240793Y-75206225D01*
X183240783Y-75206222D01*
X183081307Y-75174500D01*
X183081305Y-75174500D01*
X180081305Y-75174500D01*
X179918695Y-75174500D01*
X179918693Y-75174500D01*
X179759216Y-75206222D01*
X179759206Y-75206225D01*
X179608980Y-75268450D01*
X179608976Y-75268452D01*
X179473779Y-75358788D01*
X179473771Y-75358794D01*
X177212181Y-77620385D01*
X177150858Y-77653870D01*
X177081166Y-77648886D01*
X177025233Y-77607014D01*
X177000816Y-77541550D01*
X177000500Y-77532704D01*
X177000500Y-75501731D01*
X177000549Y-75498253D01*
X177004462Y-75358788D01*
X177019279Y-74830642D01*
X177019667Y-74823733D01*
X177075660Y-74159913D01*
X177076432Y-74153065D01*
X177169557Y-73493431D01*
X177170714Y-73486620D01*
X177291635Y-72878711D01*
X184649500Y-72878711D01*
X184649500Y-73121288D01*
X184680791Y-73358976D01*
X184681162Y-73361789D01*
X184712554Y-73478944D01*
X184743947Y-73596104D01*
X184836773Y-73820205D01*
X184836776Y-73820212D01*
X184958064Y-74030289D01*
X184958066Y-74030292D01*
X184958067Y-74030293D01*
X185105733Y-74222736D01*
X185105739Y-74222743D01*
X185277256Y-74394260D01*
X185277262Y-74394265D01*
X185469711Y-74541936D01*
X185679788Y-74663224D01*
X185903900Y-74756054D01*
X186138211Y-74818838D01*
X186318586Y-74842584D01*
X186378711Y-74850500D01*
X186378712Y-74850500D01*
X186621289Y-74850500D01*
X186669388Y-74844167D01*
X186861789Y-74818838D01*
X187096100Y-74756054D01*
X187320212Y-74663224D01*
X187530289Y-74541936D01*
X187722738Y-74394265D01*
X187894265Y-74222738D01*
X188041936Y-74030289D01*
X188163224Y-73820212D01*
X188256054Y-73596100D01*
X188318838Y-73361789D01*
X188350500Y-73121288D01*
X188350500Y-72878712D01*
X188318838Y-72638211D01*
X188256054Y-72403900D01*
X188163224Y-72179788D01*
X188041936Y-71969711D01*
X187894265Y-71777262D01*
X187894260Y-71777256D01*
X187722743Y-71605739D01*
X187722736Y-71605733D01*
X187530293Y-71458067D01*
X187530292Y-71458066D01*
X187530289Y-71458064D01*
X187320212Y-71336776D01*
X187317339Y-71335586D01*
X187096104Y-71243947D01*
X186861785Y-71181161D01*
X186621289Y-71149500D01*
X186621288Y-71149500D01*
X186378712Y-71149500D01*
X186378711Y-71149500D01*
X186138214Y-71181161D01*
X185903895Y-71243947D01*
X185679794Y-71336773D01*
X185679785Y-71336777D01*
X185469706Y-71458067D01*
X185277263Y-71605733D01*
X185277256Y-71605739D01*
X185105739Y-71777256D01*
X185105733Y-71777263D01*
X184958067Y-71969706D01*
X184836777Y-72179785D01*
X184836773Y-72179794D01*
X184743947Y-72403895D01*
X184681161Y-72638214D01*
X184649500Y-72878711D01*
X177291635Y-72878711D01*
X177300679Y-72833244D01*
X177302210Y-72826534D01*
X177468612Y-72181448D01*
X177470523Y-72174816D01*
X177672822Y-71540107D01*
X177675101Y-71533594D01*
X177912679Y-70911207D01*
X177915318Y-70904838D01*
X178187413Y-70296763D01*
X178190408Y-70290545D01*
X178496168Y-69698689D01*
X178499514Y-69692636D01*
X178837976Y-69118858D01*
X178841654Y-69113004D01*
X179211758Y-68559104D01*
X179215761Y-68553463D01*
X179616325Y-68021208D01*
X179620641Y-68015795D01*
X180050438Y-67506812D01*
X180055032Y-67501671D01*
X180512716Y-67017563D01*
X180517563Y-67012716D01*
X181001671Y-66555032D01*
X181006812Y-66550438D01*
X181515795Y-66120641D01*
X181521208Y-66116325D01*
X182053463Y-65715761D01*
X182059104Y-65711758D01*
X182613004Y-65341654D01*
X182618858Y-65337976D01*
X183192638Y-64999512D01*
X183198689Y-64996168D01*
X183790545Y-64690408D01*
X183796763Y-64687413D01*
X184404838Y-64415318D01*
X184411207Y-64412679D01*
X185033594Y-64175101D01*
X185040107Y-64172822D01*
X185674816Y-63970523D01*
X185681448Y-63968612D01*
X186326534Y-63802210D01*
X186333252Y-63800678D01*
X186986620Y-63670714D01*
X186993431Y-63669557D01*
X187653065Y-63576432D01*
X187659913Y-63575660D01*
X188323733Y-63519667D01*
X188330642Y-63519279D01*
X188998254Y-63500549D01*
X189001732Y-63500500D01*
X189065892Y-63500500D01*
X253926498Y-63500500D01*
X253934104Y-63500500D01*
X253934108Y-63500501D01*
G37*
%TD.AperFunction*%
%TA.AperFunction,Conductor*%
G36*
X242621967Y-69020185D02*
G01*
X242642609Y-69036819D01*
X244488181Y-70882391D01*
X244521666Y-70943714D01*
X244524500Y-70970072D01*
X244524500Y-71343796D01*
X244504815Y-71410835D01*
X244452011Y-71456590D01*
X244382853Y-71466534D01*
X244319297Y-71437509D01*
X244312819Y-71431477D01*
X244216930Y-71335588D01*
X244216928Y-71335586D01*
X244076788Y-71233768D01*
X243922445Y-71155127D01*
X243757701Y-71101598D01*
X243757699Y-71101597D01*
X243757698Y-71101597D01*
X243626271Y-71080781D01*
X243586611Y-71074500D01*
X243413389Y-71074500D01*
X243373728Y-71080781D01*
X243242302Y-71101597D01*
X243166373Y-71126268D01*
X243107772Y-71145309D01*
X243077552Y-71155128D01*
X242923211Y-71233768D01*
X242863491Y-71277158D01*
X242783072Y-71335586D01*
X242783070Y-71335588D01*
X242783069Y-71335588D01*
X242660588Y-71458069D01*
X242660581Y-71458078D01*
X242600317Y-71541023D01*
X242544987Y-71583689D01*
X242475374Y-71589667D01*
X242413579Y-71557061D01*
X242399683Y-71541023D01*
X242339418Y-71458078D01*
X242339414Y-71458072D01*
X242216928Y-71335586D01*
X242076788Y-71233768D01*
X241922445Y-71155127D01*
X241757701Y-71101598D01*
X241757699Y-71101597D01*
X241757698Y-71101597D01*
X241626271Y-71080781D01*
X241586611Y-71074500D01*
X241413389Y-71074500D01*
X241373728Y-71080781D01*
X241242302Y-71101597D01*
X241166373Y-71126268D01*
X241107772Y-71145309D01*
X241077552Y-71155128D01*
X240923211Y-71233768D01*
X240863491Y-71277158D01*
X240783072Y-71335586D01*
X240783070Y-71335588D01*
X240783069Y-71335588D01*
X240660588Y-71458069D01*
X240660588Y-71458070D01*
X240660586Y-71458072D01*
X240660582Y-71458078D01*
X240558768Y-71598211D01*
X240480128Y-71752552D01*
X240426597Y-71917302D01*
X240399500Y-72088389D01*
X240399500Y-72811610D01*
X240424099Y-72966927D01*
X240426598Y-72982701D01*
X240480127Y-73147445D01*
X240558768Y-73301788D01*
X240660586Y-73441928D01*
X240660588Y-73441930D01*
X240713181Y-73494523D01*
X240746666Y-73555846D01*
X240749500Y-73582204D01*
X240749500Y-83367796D01*
X240729815Y-83434835D01*
X240713181Y-83455477D01*
X240660588Y-83508069D01*
X240660588Y-83508070D01*
X240660586Y-83508072D01*
X240625855Y-83555875D01*
X240558768Y-83648211D01*
X240480128Y-83802552D01*
X240426597Y-83967302D01*
X240399500Y-84138389D01*
X240399500Y-84861610D01*
X240421418Y-85000000D01*
X240426598Y-85032701D01*
X240480127Y-85197445D01*
X240558768Y-85351788D01*
X240660586Y-85491928D01*
X240660588Y-85491930D01*
X240713181Y-85544523D01*
X240746666Y-85605846D01*
X240749500Y-85632204D01*
X240749500Y-95367796D01*
X240729815Y-95434835D01*
X240713181Y-95455477D01*
X240660588Y-95508069D01*
X240660588Y-95508070D01*
X240660586Y-95508072D01*
X240634686Y-95543720D01*
X240558768Y-95648211D01*
X240480128Y-95802552D01*
X240426597Y-95967302D01*
X240399500Y-96138389D01*
X240399500Y-96861610D01*
X240422354Y-97005909D01*
X240426598Y-97032701D01*
X240480127Y-97197445D01*
X240558768Y-97351788D01*
X240625818Y-97444074D01*
X240649298Y-97509879D01*
X240649500Y-97516959D01*
X240649500Y-100096349D01*
X240629815Y-100163388D01*
X240613181Y-100184030D01*
X235184030Y-105613181D01*
X235122707Y-105646666D01*
X235096349Y-105649500D01*
X231285464Y-105649500D01*
X231218425Y-105629815D01*
X231172670Y-105577011D01*
X231162726Y-105507853D01*
X231162991Y-105506102D01*
X231189500Y-105338736D01*
X231189500Y-105141263D01*
X231158610Y-104946236D01*
X231138270Y-104883637D01*
X231097591Y-104758439D01*
X231007944Y-104582499D01*
X230975328Y-104537606D01*
X230891884Y-104422753D01*
X230752246Y-104283115D01*
X230592505Y-104167058D01*
X230586119Y-104163804D01*
X230422593Y-104080482D01*
X230371800Y-104032510D01*
X230355005Y-103964689D01*
X230377542Y-103898554D01*
X230422593Y-103859517D01*
X230592501Y-103772944D01*
X230612912Y-103758114D01*
X230752246Y-103656884D01*
X230752248Y-103656881D01*
X230752252Y-103656879D01*
X230891879Y-103517252D01*
X230891881Y-103517248D01*
X230891884Y-103517246D01*
X230950462Y-103436619D01*
X231007944Y-103357501D01*
X231097591Y-103181561D01*
X231158610Y-102993763D01*
X231169330Y-102926079D01*
X231189500Y-102798736D01*
X231189500Y-102601263D01*
X231158610Y-102406236D01*
X231138270Y-102343637D01*
X231097591Y-102218439D01*
X231007944Y-102042499D01*
X231000486Y-102032234D01*
X230891884Y-101882753D01*
X230752246Y-101743115D01*
X230592505Y-101627058D01*
X230586119Y-101623804D01*
X230422593Y-101540482D01*
X230371800Y-101492510D01*
X230355005Y-101424689D01*
X230377542Y-101358554D01*
X230422593Y-101319517D01*
X230592501Y-101232944D01*
X230667261Y-101178628D01*
X230752246Y-101116884D01*
X230752248Y-101116881D01*
X230752252Y-101116879D01*
X230891879Y-100977252D01*
X230891881Y-100977248D01*
X230891884Y-100977246D01*
X230945928Y-100902859D01*
X231007944Y-100817501D01*
X231097591Y-100641561D01*
X231158610Y-100453763D01*
X231165901Y-100407732D01*
X231189500Y-100258736D01*
X231189500Y-100061263D01*
X231158610Y-99866236D01*
X231104070Y-99698380D01*
X231097591Y-99678439D01*
X231007944Y-99502499D01*
X231000486Y-99492234D01*
X230891884Y-99342753D01*
X230752246Y-99203115D01*
X230592505Y-99087058D01*
X230587334Y-99084423D01*
X230422043Y-99000202D01*
X230371250Y-98952230D01*
X230354455Y-98884409D01*
X230376992Y-98818275D01*
X230422046Y-98779235D01*
X230592241Y-98692516D01*
X230627988Y-98666543D01*
X230627988Y-98666541D01*
X230064410Y-98102962D01*
X230127993Y-98085925D01*
X230242007Y-98020099D01*
X230335099Y-97927007D01*
X230400925Y-97812993D01*
X230417962Y-97749409D01*
X230981541Y-98312988D01*
X230981543Y-98312988D01*
X231007516Y-98277241D01*
X231097126Y-98101373D01*
X231158123Y-97913646D01*
X231189000Y-97718695D01*
X231189000Y-97521302D01*
X231158123Y-97326353D01*
X231097126Y-97138626D01*
X231007520Y-96962768D01*
X231007512Y-96962755D01*
X230981542Y-96927010D01*
X230981541Y-96927009D01*
X230417962Y-97490589D01*
X230400925Y-97427007D01*
X230335099Y-97312993D01*
X230242007Y-97219901D01*
X230127993Y-97154075D01*
X230064409Y-97137037D01*
X230627989Y-96573457D01*
X230592236Y-96547481D01*
X230422045Y-96460763D01*
X230371250Y-96412789D01*
X230354455Y-96344968D01*
X230376993Y-96278833D01*
X230422042Y-96239798D01*
X230592501Y-96152944D01*
X230704688Y-96071435D01*
X230728438Y-96054181D01*
X230794245Y-96030702D01*
X230801323Y-96030500D01*
X233513618Y-96030500D01*
X233522530Y-96028726D01*
X233605433Y-96012236D01*
X233697251Y-95993973D01*
X233784488Y-95957838D01*
X233870230Y-95922323D01*
X234025908Y-95818302D01*
X236738302Y-93105908D01*
X236842323Y-92950230D01*
X236913973Y-92777250D01*
X236950500Y-92593617D01*
X236950500Y-92406383D01*
X236950500Y-85406384D01*
X236950500Y-70945072D01*
X236970185Y-70878033D01*
X236986819Y-70857391D01*
X238807391Y-69036819D01*
X238868714Y-69003334D01*
X238895072Y-69000500D01*
X242554928Y-69000500D01*
X242621967Y-69020185D01*
G37*
%TD.AperFunction*%
%TA.AperFunction,Conductor*%
G36*
X200663388Y-67370185D02*
G01*
X200684030Y-67386819D01*
X208209530Y-74912319D01*
X208243015Y-74973642D01*
X208238031Y-75043334D01*
X208209530Y-75087681D01*
X196184030Y-87113181D01*
X196122707Y-87146666D01*
X196096349Y-87149500D01*
X192403650Y-87149500D01*
X192336611Y-87129815D01*
X192315969Y-87113181D01*
X191056319Y-85853531D01*
X191022834Y-85792208D01*
X191020000Y-85765850D01*
X191020000Y-84933012D01*
X191077007Y-84965925D01*
X191204174Y-85000000D01*
X191335826Y-85000000D01*
X191462993Y-84965925D01*
X191520000Y-84933012D01*
X191520000Y-85827230D01*
X191586126Y-85816757D01*
X191586129Y-85816757D01*
X191788217Y-85751095D01*
X191977557Y-85654620D01*
X192149459Y-85529727D01*
X192149464Y-85529723D01*
X192299723Y-85379464D01*
X192299727Y-85379459D01*
X192424620Y-85207558D01*
X192429232Y-85198507D01*
X192477205Y-85147709D01*
X192545025Y-85130912D01*
X192611161Y-85153447D01*
X192650204Y-85198504D01*
X192654949Y-85207817D01*
X192779890Y-85379786D01*
X192930213Y-85530109D01*
X193102179Y-85655048D01*
X193102181Y-85655049D01*
X193102184Y-85655051D01*
X193291588Y-85751557D01*
X193493757Y-85817246D01*
X193703713Y-85850500D01*
X193703714Y-85850500D01*
X193916286Y-85850500D01*
X193916287Y-85850500D01*
X194126243Y-85817246D01*
X194328412Y-85751557D01*
X194517816Y-85655051D01*
X194583672Y-85607204D01*
X194689786Y-85530109D01*
X194689788Y-85530106D01*
X194689792Y-85530104D01*
X194840104Y-85379792D01*
X194840106Y-85379788D01*
X194840109Y-85379786D01*
X194965048Y-85207820D01*
X194965050Y-85207817D01*
X194965051Y-85207816D01*
X194969514Y-85199054D01*
X195017488Y-85148259D01*
X195085308Y-85131463D01*
X195151444Y-85153999D01*
X195190486Y-85199056D01*
X195194951Y-85207820D01*
X195319890Y-85379786D01*
X195470213Y-85530109D01*
X195642179Y-85655048D01*
X195642181Y-85655049D01*
X195642184Y-85655051D01*
X195831588Y-85751557D01*
X196033757Y-85817246D01*
X196243713Y-85850500D01*
X196243714Y-85850500D01*
X196456286Y-85850500D01*
X196456287Y-85850500D01*
X196666243Y-85817246D01*
X196868412Y-85751557D01*
X197057816Y-85655051D01*
X197123672Y-85607204D01*
X197229786Y-85530109D01*
X197229788Y-85530106D01*
X197229792Y-85530104D01*
X197380104Y-85379792D01*
X197380106Y-85379788D01*
X197380109Y-85379786D01*
X197505048Y-85207820D01*
X197505050Y-85207817D01*
X197505051Y-85207816D01*
X197601557Y-85018412D01*
X197667246Y-84816243D01*
X197700500Y-84606287D01*
X197700500Y-84393713D01*
X197667246Y-84183757D01*
X197601557Y-83981588D01*
X197505051Y-83792184D01*
X197505049Y-83792181D01*
X197505048Y-83792179D01*
X197380109Y-83620213D01*
X197229786Y-83469890D01*
X197057820Y-83344951D01*
X196868414Y-83248444D01*
X196868413Y-83248443D01*
X196868412Y-83248443D01*
X196666243Y-83182754D01*
X196666241Y-83182753D01*
X196666240Y-83182753D01*
X196504957Y-83157208D01*
X196456287Y-83149500D01*
X196243713Y-83149500D01*
X196195042Y-83157208D01*
X196033760Y-83182753D01*
X195831585Y-83248444D01*
X195642179Y-83344951D01*
X195470213Y-83469890D01*
X195319890Y-83620213D01*
X195194949Y-83792182D01*
X195190484Y-83800946D01*
X195142509Y-83851742D01*
X195074688Y-83868536D01*
X195008553Y-83845998D01*
X194969516Y-83800946D01*
X194965050Y-83792182D01*
X194840109Y-83620213D01*
X194689786Y-83469890D01*
X194517820Y-83344951D01*
X194328414Y-83248444D01*
X194328413Y-83248443D01*
X194328412Y-83248443D01*
X194126243Y-83182754D01*
X194126241Y-83182753D01*
X194126240Y-83182753D01*
X193964957Y-83157208D01*
X193916287Y-83149500D01*
X193703713Y-83149500D01*
X193655042Y-83157208D01*
X193493760Y-83182753D01*
X193291585Y-83248444D01*
X193102179Y-83344951D01*
X192930213Y-83469890D01*
X192779890Y-83620213D01*
X192654949Y-83792182D01*
X192650202Y-83801499D01*
X192602227Y-83852293D01*
X192534405Y-83869087D01*
X192468271Y-83846548D01*
X192429234Y-83801495D01*
X192424622Y-83792444D01*
X192299727Y-83620540D01*
X192299723Y-83620535D01*
X192149464Y-83470276D01*
X192149459Y-83470272D01*
X191977557Y-83345379D01*
X191788215Y-83248903D01*
X191586124Y-83183241D01*
X191520000Y-83172768D01*
X191520000Y-84066988D01*
X191462993Y-84034075D01*
X191335826Y-84000000D01*
X191204174Y-84000000D01*
X191077007Y-84034075D01*
X191020000Y-84066988D01*
X191020000Y-83172768D01*
X191019999Y-83172768D01*
X190953875Y-83183241D01*
X190751784Y-83248903D01*
X190562442Y-83345379D01*
X190390540Y-83470272D01*
X190390535Y-83470276D01*
X190240276Y-83620535D01*
X190240272Y-83620540D01*
X190115378Y-83792443D01*
X190110762Y-83801502D01*
X190062784Y-83852295D01*
X189994963Y-83869087D01*
X189928829Y-83846546D01*
X189889794Y-83801493D01*
X189885051Y-83792184D01*
X189885049Y-83792181D01*
X189885048Y-83792179D01*
X189760109Y-83620213D01*
X189609786Y-83469890D01*
X189437820Y-83344951D01*
X189248416Y-83248444D01*
X189162391Y-83220493D01*
X189112165Y-83204173D01*
X189054491Y-83164736D01*
X189027293Y-83100377D01*
X189039208Y-83031531D01*
X189062801Y-82998565D01*
X201082952Y-70978416D01*
X201132741Y-70903900D01*
X201165084Y-70855495D01*
X201221658Y-70718913D01*
X201229026Y-70681869D01*
X201261409Y-70619960D01*
X201262963Y-70618378D01*
X201298941Y-70582401D01*
X201339414Y-70541928D01*
X201441232Y-70401788D01*
X201519873Y-70247445D01*
X201573402Y-70082701D01*
X201600500Y-69911611D01*
X201600500Y-69188389D01*
X201573402Y-69017299D01*
X201519873Y-68852555D01*
X201441232Y-68698212D01*
X201339414Y-68558072D01*
X201216928Y-68435586D01*
X201076788Y-68333768D01*
X200922445Y-68255127D01*
X200757701Y-68201598D01*
X200757699Y-68201597D01*
X200757698Y-68201597D01*
X200626271Y-68180781D01*
X200586611Y-68174500D01*
X200413389Y-68174500D01*
X200373728Y-68180781D01*
X200242302Y-68201597D01*
X200077552Y-68255128D01*
X199923211Y-68333768D01*
X199843256Y-68391859D01*
X199783072Y-68435586D01*
X199783070Y-68435588D01*
X199783069Y-68435588D01*
X199660588Y-68558069D01*
X199660581Y-68558078D01*
X199600317Y-68641023D01*
X199544987Y-68683689D01*
X199475374Y-68689667D01*
X199413579Y-68657061D01*
X199399683Y-68641023D01*
X199339418Y-68558078D01*
X199339414Y-68558072D01*
X199216928Y-68435586D01*
X199076788Y-68333768D01*
X198922445Y-68255127D01*
X198757701Y-68201598D01*
X198757699Y-68201597D01*
X198757698Y-68201597D01*
X198626271Y-68180781D01*
X198586611Y-68174500D01*
X198413389Y-68174500D01*
X198373728Y-68180781D01*
X198242302Y-68201597D01*
X198077552Y-68255128D01*
X197923211Y-68333768D01*
X197843256Y-68391859D01*
X197783072Y-68435586D01*
X197783070Y-68435588D01*
X197783069Y-68435588D01*
X197660588Y-68558069D01*
X197660581Y-68558078D01*
X197600317Y-68641023D01*
X197578042Y-68658199D01*
X197557868Y-68677806D01*
X197550744Y-68679249D01*
X197544987Y-68683689D01*
X197516956Y-68686096D01*
X197489390Y-68691682D01*
X197482616Y-68689045D01*
X197475374Y-68689667D01*
X197450494Y-68676539D01*
X197424281Y-68666334D01*
X197417048Y-68658891D01*
X197413579Y-68657061D01*
X197399683Y-68641023D01*
X197374183Y-68605926D01*
X197350702Y-68540120D01*
X197350500Y-68533040D01*
X197350500Y-68403650D01*
X197370185Y-68336611D01*
X197386819Y-68315969D01*
X198315969Y-67386819D01*
X198377292Y-67353334D01*
X198403650Y-67350500D01*
X200596349Y-67350500D01*
X200663388Y-67370185D01*
G37*
%TD.AperFunction*%
%TD*%
M02*
