M48
; DRILL file {KiCad 9.0.0} date 2025-03-05T10:58:34+0100
; FORMAT={-:-/ absolute / metric / decimal}
; #@! TF.CreationDate,2025-03-05T10:58:34+01:00
; #@! TF.GenerationSoftware,Kicad,Pcbnew,9.0.0
; #@! TF.FileFunction,Plated,1,2,PTH
FMAT,2
METRIC
; #@! TA.AperFunction,Plated,PTH,ComponentDrill
T1C0.800
; #@! TA.AperFunction,Plated,PTH,ComponentDrill
T2C1.000
%
G90
G05
T1
X103.5Y-66.69
X103.5Y-74.31
X107.5Y-66.69
X107.5Y-74.31
T2
X103.46Y-62.0
X105.5Y-93.235
X105.5Y-95.775
X106.0Y-62.0
X113.115Y-68.16
X113.115Y-70.7
X113.115Y-73.24
X113.115Y-75.78
X113.115Y-78.32
X113.115Y-80.86
X113.115Y-83.4
X113.115Y-85.94
X113.115Y-88.48
X113.115Y-91.02
X113.115Y-93.56
X113.115Y-96.1
X113.115Y-98.64
X113.115Y-101.18
X121.34Y-120.0
X123.88Y-120.0
X126.42Y-120.0
X128.96Y-120.0
X131.5Y-120.0
X133.435Y-68.16
X133.435Y-70.7
X133.435Y-73.24
X133.435Y-75.78
X133.435Y-78.32
X133.435Y-80.86
X133.435Y-83.4
X133.435Y-85.94
X133.435Y-88.48
X133.435Y-91.02
X133.435Y-93.56
X133.435Y-96.1
X133.435Y-98.64
X133.435Y-101.18
X134.04Y-120.0
X138.5Y-81.0
X138.5Y-83.54
X148.975Y-48.315
X148.975Y-55.615
X148.975Y-62.915
X148.975Y-70.215
X148.975Y-77.515
X148.975Y-84.815
X148.975Y-92.115
X148.975Y-99.415
X148.975Y-106.715
X148.975Y-114.015
X151.475Y-48.315
X151.475Y-55.615
X151.475Y-62.915
X151.475Y-70.215
X151.475Y-77.515
X151.475Y-84.815
X151.475Y-92.115
X151.475Y-99.415
X151.475Y-106.715
X151.475Y-114.015
X153.975Y-48.315
X153.975Y-55.615
X153.975Y-62.915
X153.975Y-70.215
X153.975Y-77.515
X153.975Y-84.815
X153.975Y-92.115
X153.975Y-99.415
X153.975Y-106.715
X153.975Y-114.015
X156.475Y-48.315
X156.475Y-55.615
X156.475Y-62.915
X156.475Y-70.215
X156.475Y-77.515
X156.475Y-84.815
X156.475Y-92.115
X156.475Y-99.415
X156.475Y-106.715
X156.475Y-114.015
X164.5Y-46.65
X164.5Y-49.19
X164.5Y-51.73
X164.5Y-54.27
X164.5Y-56.81
X164.5Y-59.35
X164.5Y-68.92
X164.5Y-71.46
X164.5Y-74.0
X164.5Y-76.54
X164.5Y-79.08
X164.5Y-81.62
M30
