M48
; DRILL file {KiCad 9.0.0} date 2025-03-21T19:40:04+0100
; FORMAT={-:-/ absolute / metric / decimal}
; #@! TF.CreationDate,2025-03-21T19:40:04+01:00
; #@! TF.GenerationSoftware,Kicad,Pcbnew,9.0.0
; #@! TF.FileFunction,MixedPlating,1,2
FMAT,2
METRIC
; #@! TA.AperFunction,Plated,PTH,ComponentDrill
T1C0.750
; #@! TA.AperFunction,Plated,PTH,ComponentDrill
T2C0.800
; #@! TA.AperFunction,Plated,PTH,ComponentDrill
T3C0.950
; #@! TA.AperFunction,Plated,PTH,ComponentDrill
T4C1.000
; #@! TA.AperFunction,Plated,PTH,ComponentDrill
T5C1.200
; #@! TA.AperFunction,NonPlated,NPTH,ComponentDrill
T6C2.200
; #@! TA.AperFunction,NonPlated,NPTH,ComponentDrill
T7C3.200
%
G90
G05
T1
X194.5Y-69.55
X196.5Y-69.55
X198.5Y-69.55
X200.5Y-69.55
X217.0Y-142.0
X219.0Y-142.0
X221.0Y-142.0
X223.0Y-142.0
X230.5Y-142.0
X232.5Y-142.0
X234.5Y-142.0
X236.5Y-142.0
X241.5Y-72.45
X241.5Y-84.5
X241.5Y-96.5
X241.5Y-108.5
X241.5Y-120.0
X241.5Y-131.5
X243.5Y-72.45
X243.5Y-84.5
X243.5Y-96.5
X243.5Y-108.5
X243.5Y-120.0
X243.5Y-131.5
X243.5Y-143.0
X243.5Y-154.5
X245.5Y-72.45
X245.5Y-84.5
X245.5Y-96.5
X245.5Y-108.5
X245.5Y-120.0
X245.5Y-131.5
X245.5Y-143.0
X245.5Y-154.5
X247.5Y-72.45
X247.5Y-84.5
X247.5Y-96.5
X247.5Y-108.5
X247.5Y-120.0
X247.5Y-131.5
X247.5Y-143.0
X247.5Y-154.5
X249.5Y-143.0
X249.5Y-154.5
T2
X181.5Y-77.5
X181.5Y-79.5
X197.5Y-116.69
X197.5Y-124.31
X197.5Y-129.0
X197.5Y-134.0
X199.5Y-129.0
X199.5Y-134.0
X201.0Y-116.69
X201.0Y-124.31
X216.0Y-152.0
X218.0Y-152.0
X224.88Y-152.0
X232.5Y-152.0
T3
X182.75Y-142.2
X184.0Y-94.5
X185.25Y-142.2
X186.5Y-94.5
X187.75Y-142.2
X189.0Y-94.5
X190.25Y-142.2
X191.5Y-94.5
X194.0Y-94.5
X196.5Y-94.5
X226.0Y-75.0
X226.0Y-77.5
X226.0Y-80.0
X226.0Y-82.5
T4
X183.65Y-84.5
X186.19Y-84.5
X188.73Y-84.5
X191.27Y-84.5
X193.81Y-84.5
X196.35Y-84.5
X196.915Y-142.125
X199.455Y-142.125
X201.995Y-142.125
X204.535Y-142.125
X207.075Y-142.125
X209.68Y-90.0
X209.68Y-92.54
X209.68Y-95.08
X209.68Y-97.62
X209.68Y-100.16
X209.68Y-102.7
X209.68Y-105.24
X209.68Y-107.78
X209.68Y-110.32
X209.68Y-112.86
X209.68Y-115.4
X209.68Y-117.94
X209.68Y-120.48
X209.68Y-123.02
X230.0Y-90.0
X230.0Y-92.54
X230.0Y-95.08
X230.0Y-97.62
X230.0Y-100.16
X230.0Y-102.7
X230.0Y-105.24
X230.0Y-107.78
X230.0Y-110.32
X230.0Y-112.86
X230.0Y-115.4
X230.0Y-117.94
X230.0Y-120.48
X230.0Y-123.02
T5
X181.865Y-101.567
X186.945Y-101.567
X192.025Y-101.567
T6
X209.59Y-70.115
X209.59Y-127.115
X230.09Y-70.115
X230.09Y-127.115
T7
X186.5Y-71.5
X186.5Y-152.0
X256.5Y-71.5
X256.5Y-151.898
M30
